LinguisticsPro-Bold.ufo
<glyph name="numbersign" format="2">
	<unicode hex="0023"/>
	<advance width="560"/>
	<outline>
		<contour>
			<point x="14" y="219" type="line"/>
			<point x="14" y="291" type="line"/>
			<point x="131" y="291" type="line"/>
			<point x="163" y="398" type="line"/>
			<point x="67" y="398" type="line"/>
			<point x="67" y="470" type="line"/>
			<point x="185" y="470" type="line"/>
			<point x="244" y="668" type="line"/>
			<point x="320" y="668" type="line"/>
			<point x="261" y="470" type="line"/>
			<point x="374" y="470" type="line"/>
			<point x="433" y="668" type="line"/>
			<point x="508" y="668" type="line"/>
			<point x="449" y="470" type="line"/>
			<point x="547" y="470" type="line"/>
			<point x="547" y="398" type="line"/>
			<point x="427" y="398" type="line"/>
			<point x="395" y="291" type="line"/>
			<point x="494" y="291" type="line"/>
			<point x="494" y="219" type="line"/>
			<point x="374" y="219" type="line"/>
			<point x="309" y="0" type="line"/>
			<point x="233" y="0" type="line"/>
			<point x="299" y="219" type="line"/>
			<point x="187" y="219" type="line"/>
			<point x="121" y="0" type="line"/>
			<point x="44" y="0" type="line"/>
			<point x="110" y="219" type="line"/>
		</contour>
		<contour>
			<point x="208" y="291" type="line"/>
			<point x="320" y="291" type="line"/>
			<point x="352" y="398" type="line"/>
			<point x="240" y="398" type="line"/>
		</contour>
	</outline>
</glyph>
<glyph name="dollar" format="1">
  <advance width="560"/>
  <unicode hex="0024"/>
  <outline>
    <contour>
      <point x="38" y="122" type="curve" smooth="yes"/>
      <point x="38" y="165"/>
      <point x="84" y="194"/>
      <point x="110" y="194" type="curve" smooth="yes"/>
      <point x="134" y="194"/>
      <point x="145" y="184"/>
      <point x="154" y="162" type="curve" smooth="yes"/>
      <point x="191" y="69"/>
      <point x="228" y="50"/>
      <point x="248" y="46" type="curve"/>
      <point x="248" y="281" type="line"/>
      <point x="196" y="300" type="line" smooth="yes"/>
      <point x="106" y="334"/>
      <point x="39" y="385"/>
      <point x="39" y="478" type="curve" smooth="yes"/>
      <point x="39" y="604"/>
      <point x="133" y="664"/>
      <point x="248" y="668" type="curve"/>
      <point x="248" y="748" type="line"/>
      <point x="304" y="748" type="line"/>
      <point x="304" y="668" type="line"/>
      <point x="436" y="665"/>
      <point x="496" y="600"/>
      <point x="496" y="558" type="curve" smooth="yes"/>
      <point x="496" y="510"/>
      <point x="441" y="497"/>
      <point x="422" y="497" type="curve" smooth="yes"/>
      <point x="400" y="497"/>
      <point x="391" y="506"/>
      <point x="384" y="524" type="curve" smooth="yes"/>
      <point x="358" y="595"/>
      <point x="330" y="617"/>
      <point x="304" y="622" type="curve"/>
      <point x="304" y="416" type="line"/>
      <point x="350" y="399" type="line" smooth="yes"/>
      <point x="456" y="359"/>
      <point x="523" y="307"/>
      <point x="524" y="197" type="curve" smooth="yes"/>
      <point x="523" y="53"/>
      <point x="396" y="0"/>
      <point x="304" y="0" type="curve"/>
      <point x="304" y="-104" type="line"/>
      <point x="248" y="-104" type="line"/>
      <point x="248" y="0" type="line"/>
      <point x="80" y="6"/>
      <point x="38" y="88"/>
    </contour>
    <contour>
      <point x="161" y="530" type="curve" smooth="yes"/>
      <point x="161" y="482"/>
      <point x="199" y="451"/>
      <point x="248" y="438" type="curve"/>
      <point x="248" y="622" type="line"/>
      <point x="197" y="619"/>
      <point x="161" y="580"/>
    </contour>
    <contour>
      <point x="304" y="46" type="line"/>
      <point x="357" y="46"/>
      <point x="395" y="80"/>
      <point x="395" y="139" type="curve" smooth="yes"/>
      <point x="395" y="200"/>
      <point x="358" y="241"/>
      <point x="304" y="262" type="curve"/>
    </contour>
  </outline>
</glyph>
<glyph name="percent" format="1">
  <advance width="887"/>
  <unicode hex="0025"/>
  <outline>
    <contour>
      <point x="40" y="494" type="curve" smooth="yes"/>
      <point x="40" y="617"/>
      <point x="100" y="680"/>
      <point x="216" y="680" type="curve" smooth="yes"/>
      <point x="273" y="680"/>
      <point x="303" y="666"/>
      <point x="337" y="646" type="curve" smooth="yes"/>
      <point x="348" y="640"/>
      <point x="362" y="633"/>
      <point x="382" y="633" type="curve" smooth="yes"/>
      <point x="526" y="633" type="line" smooth="yes"/>
      <point x="584" y="633"/>
      <point x="595" y="642"/>
      <point x="614" y="670" type="curve" smooth="yes"/>
      <point x="635" y="701" type="line"/>
      <point x="682" y="668" type="line"/>
      <point x="252" y="-31" type="line"/>
      <point x="205" y="6" type="line"/>
      <point x="564" y="590" type="line"/>
      <point x="378" y="590" type="line"/>
      <point x="385" y="567"/>
      <point x="392" y="539"/>
      <point x="392" y="494" type="curve" smooth="yes"/>
      <point x="392" y="371"/>
      <point x="326" y="308"/>
      <point x="210" y="308" type="curve" smooth="yes"/>
      <point x="100" y="308"/>
      <point x="40" y="371"/>
    </contour>
    <contour>
      <point x="154" y="494" type="curve" smooth="yes"/>
      <point x="154" y="390"/>
      <point x="177" y="348"/>
      <point x="216" y="348" type="curve" smooth="yes"/>
      <point x="256" y="348"/>
      <point x="278" y="390"/>
      <point x="278" y="494" type="curve" smooth="yes"/>
      <point x="278" y="606"/>
      <point x="254" y="640"/>
      <point x="216" y="640" type="curve" smooth="yes"/>
      <point x="179" y="640"/>
      <point x="154" y="606"/>
    </contour>
    <contour>
      <point x="495" y="174" type="curve" smooth="yes"/>
      <point x="495" y="297"/>
      <point x="555" y="360"/>
      <point x="672" y="360" type="curve" smooth="yes"/>
      <point x="787" y="360"/>
      <point x="847" y="297"/>
      <point x="847" y="174" type="curve" smooth="yes"/>
      <point x="847" y="51"/>
      <point x="787" y="-12"/>
      <point x="672" y="-12" type="curve" smooth="yes"/>
      <point x="555" y="-12"/>
      <point x="495" y="51"/>
    </contour>
    <contour>
      <point x="609" y="174" type="curve" smooth="yes"/>
      <point x="609" y="70"/>
      <point x="631" y="28"/>
      <point x="672" y="28" type="curve" smooth="yes"/>
      <point x="711" y="28"/>
      <point x="733" y="70"/>
      <point x="733" y="174" type="curve" smooth="yes"/>
      <point x="733" y="286"/>
      <point x="708" y="320"/>
      <point x="672" y="320" type="curve" smooth="yes"/>
      <point x="634" y="320"/>
      <point x="609" y="286"/>
    </contour>
  </outline>
</glyph>
<glyph name="ampersand" format="1">
  <advance width="748"/>
  <unicode hex="0026"/>
  <outline>
    <contour>
      <point x="45" y="186" type="curve" smooth="yes"/>
      <point x="45" y="281"/>
      <point x="129" y="333"/>
      <point x="186" y="359" type="curve"/>
      <point x="155" y="400"/>
      <point x="129" y="451"/>
      <point x="129" y="500" type="curve" smooth="yes"/>
      <point x="129" y="605"/>
      <point x="203" y="680"/>
      <point x="318" y="680" type="curve" smooth="yes"/>
      <point x="417" y="680"/>
      <point x="492" y="622"/>
      <point x="492" y="531" type="curve" smooth="yes"/>
      <point x="492" y="446"/>
      <point x="424" y="404"/>
      <point x="358" y="373" type="curve"/>
      <point x="402" y="322"/>
      <point x="467" y="254"/>
      <point x="536" y="187" type="curve"/>
      <point x="585" y="248"/>
      <point x="573" y="340"/>
      <point x="560" y="400" type="curve"/>
      <point x="589" y="430"/>
      <point x="641" y="446"/>
      <point x="671" y="443" type="curve"/>
      <point x="695" y="420"/>
      <point x="702" y="387"/>
      <point x="702" y="355" type="curve" smooth="yes"/>
      <point x="702" y="285"/>
      <point x="629" y="194"/>
      <point x="580" y="150" type="curve"/>
      <point x="634" y="97"/>
      <point x="698" y="40"/>
      <point x="734" y="24" type="curve"/>
      <point x="730" y="-7" type="line"/>
      <point x="684" y="-6" type="line" smooth="yes"/>
      <point x="602" y="-3"/>
      <point x="548" y="14"/>
      <point x="489" y="57" type="curve"/>
      <point x="428" y="13"/>
      <point x="360" y="-12"/>
      <point x="274" y="-12" type="curve" smooth="yes"/>
      <point x="151" y="-12"/>
      <point x="45" y="56"/>
    </contour>
    <contour>
      <point x="191" y="218" type="curve" smooth="yes"/>
      <point x="191" y="126"/>
      <point x="262" y="62"/>
      <point x="347" y="62" type="curve" smooth="yes"/>
      <point x="386" y="62"/>
      <point x="426" y="73"/>
      <point x="444" y="91" type="curve"/>
      <point x="351" y="166"/>
      <point x="267" y="257"/>
      <point x="223" y="310" type="curve"/>
      <point x="208" y="297"/>
      <point x="191" y="263"/>
    </contour>
    <contour>
      <point x="253" y="549" type="curve" smooth="yes"/>
      <point x="253" y="498"/>
      <point x="278" y="454"/>
      <point x="317" y="414" type="curve"/>
      <point x="348" y="438"/>
      <point x="373" y="482"/>
      <point x="373" y="542" type="curve" smooth="yes"/>
      <point x="373" y="600"/>
      <point x="344" y="634"/>
      <point x="313" y="634" type="curve" smooth="yes"/>
      <point x="280" y="634"/>
      <point x="253" y="600"/>
    </contour>
  </outline>
</glyph>
<glyph name="quotesingle" format="2">
  <advance width="252"/>
  <unicode hex="0027"/>
  <outline>
    <contour>
      <point x="74" y="666" type="line" smooth="yes"/>
      <point x="72.093" y="675.891"/>
      <point x="71.064" y="684.808"/>
      <point x="71.064" y="692.759" type="curve" smooth="yes"/>
      <point x="71.064" y="726.607"/>
      <point x="89.795" y="743"/>
      <point x="140" y="743" type="curve" smooth="yes"/>
      <point x="190.533" y="743"/>
      <point x="209.844" y="727.057"/>
      <point x="209.844" y="692.463" type="curve" smooth="yes"/>
      <point x="209.844" y="684.613"/>
      <point x="208.931" y="675.787"/>
      <point x="207" y="666" type="curve" smooth="yes"/>
      <point x="163" y="443" type="line"/>
      <point x="117" y="443" type="line"/>
    </contour>
  </outline>
</glyph>
<glyph name="parenright" format="2">
  <advance width="365"/>
  <unicode hex="0029"/>
  <outline>
    <contour>
      <point x="21" y="-101" type="line"/>
      <point x="137" y="-68"/>
      <point x="165" y="159"/>
      <point x="165" y="282" type="curve" smooth="yes"/>
      <point x="165" y="405"/>
      <point x="137" y="632"/>
      <point x="21" y="665" type="curve"/>
      <point x="26" y="699" type="line"/>
      <point x="233" y="694"/>
      <point x="266" y="441"/>
      <point x="266" y="282" type="curve" smooth="yes"/>
      <point x="266" y="123"/>
      <point x="233" y="-130"/>
      <point x="26" y="-135" type="curve"/>
    </contour>
  </outline>
</glyph>
<glyph name="plus" format="2">
	<unicode hex="002B"/>
	<advance width="600"/>
	<outline>
		<contour>
			<point x="58" y="210" type="line"/>
			<point x="58" y="290" type="line"/>
			<point x="252" y="290" type="line"/>
			<point x="252" y="490" type="line"/>
			<point x="348" y="490" type="line"/>
			<point x="348" y="290" type="line"/>
			<point x="542" y="290" type="line"/>
			<point x="542" y="210" type="line"/>
			<point x="348" y="210" type="line"/>
			<point x="348" y="0" type="line"/>
			<point x="252" y="0" type="line"/>
			<point x="252" y="210" type="line"/>
		</contour>
	</outline>
</glyph>
<glyph name="comma" format="2">
  <advance width="280"/>
  <unicode hex="002C"/>
  <outline>
    <contour>
      <point x="40" y="-138" type="line"/>
      <point x="75" y="-99"/>
      <point x="100" y="-56"/>
      <point x="100" y="-8" type="curve" smooth="yes"/>
      <point x="100" y="40"/>
      <point x="60" y="61"/>
      <point x="60" y="107" type="curve" smooth="yes"/>
      <point x="60" y="144"/>
      <point x="85" y="180"/>
      <point x="134" y="180" type="curve" smooth="yes"/>
      <point x="186" y="180"/>
      <point x="226" y="137"/>
      <point x="226" y="65" type="curve" smooth="yes"/>
      <point x="226" y="-27"/>
      <point x="137" y="-113"/>
      <point x="70" y="-167" type="curve"/>
    </contour>
  </outline>
</glyph>
<glyph name="hyphen" format="2">
  <advance width="420"/>
  <unicode hex="002D"/>
  <outline>
    <contour>
      <point x="60" y="203" type="line"/>
      <point x="60" y="298" type="line"/>
      <point x="360" y="298" type="line"/>
      <point x="360" y="203" type="line"/>
    </contour>
  </outline>
</glyph>
<glyph name="one" format="1">
  <advance width="560"/>
  <unicode hex="0031"/>
  <outline>
    <contour>
      <point x="102" y="0" type="line"/>
      <point x="102" y="38" type="line"/>
      <point x="170" y="44" type="line" smooth="yes"/>
      <point x="194" y="46"/>
      <point x="205" y="53"/>
      <point x="205" y="85" type="curve" smooth="yes"/>
      <point x="205" y="547" type="line" smooth="yes"/>
      <point x="205" y="583"/>
      <point x="196" y="592"/>
      <point x="170" y="597" type="curve" smooth="yes"/>
      <point x="108" y="610" type="line"/>
      <point x="108" y="641" type="line"/>
      <point x="347" y="680" type="line"/>
      <point x="356" y="672" type="line"/>
      <point x="356" y="85" type="line" smooth="yes"/>
      <point x="356" y="53"/>
      <point x="367" y="46"/>
      <point x="391" y="44" type="curve" smooth="yes"/>
      <point x="459" y="38" type="line"/>
      <point x="459" y="0" type="line"/>
    </contour>
  </outline>
</glyph>
<glyph name="two" format="2">
  <advance width="560"/>
  <unicode hex="0032"/>
  <outline>
    <contour>
      <point x="30" y="18" type="line"/>
      <point x="30" y="85"/>
      <point x="81" y="168"/>
      <point x="221" y="283" type="curve" smooth="yes"/>
      <point x="332" y="375"/>
      <point x="348" y="450"/>
      <point x="348" y="511.393" type="curve" smooth="yes"/>
      <point x="348" y="585"/>
      <point x="325" y="634"/>
      <point x="275.981" y="634" type="curve" smooth="yes"/>
      <point x="225" y="634"/>
      <point x="194" y="581"/>
      <point x="177" y="502" type="curve" smooth="yes"/>
      <point x="171" y="475"/>
      <point x="154" y="464"/>
      <point x="131.218" y="464" type="curve" smooth="yes"/>
      <point x="99" y="464"/>
      <point x="48" y="486"/>
      <point x="48" y="529" type="curve" smooth="yes"/>
      <point x="48" y="616"/>
      <point x="150" y="680"/>
      <point x="286.216" y="680" type="curve" smooth="yes"/>
      <point x="409" y="680"/>
      <point x="507" y="628"/>
      <point x="507" y="495.081" type="curve" smooth="yes"/>
      <point x="507" y="386"/>
      <point x="441" y="333"/>
      <point x="325" y="271" type="curve" smooth="yes"/>
      <point x="214" y="212"/>
      <point x="181" y="156"/>
      <point x="165" y="121" type="curve"/>
      <point x="420" y="121" type="line" smooth="yes"/>
      <point x="462" y="121"/>
      <point x="475" y="128"/>
      <point x="504" y="180" type="curve"/>
      <point x="539" y="175" type="line"/>
      <point x="499" y="0" type="line"/>
      <point x="44" y="0" type="line"/>
    </contour>
  </outline>
</glyph>
<glyph name="three" format="1">
  <advance width="560"/>
  <unicode hex="0033"/>
  <outline>
    <contour>
      <point x="27" y="119" type="curve" smooth="yes"/>
      <point x="27" y="165"/>
      <point x="75" y="192"/>
      <point x="111" y="192" type="curve" smooth="yes"/>
      <point x="134" y="192"/>
      <point x="149" y="176"/>
      <point x="155" y="158" type="curve" smooth="yes"/>
      <point x="183" y="67"/>
      <point x="219" y="34"/>
      <point x="264" y="34" type="curve" smooth="yes"/>
      <point x="325" y="34"/>
      <point x="357" y="86"/>
      <point x="357" y="186" type="curve" smooth="yes"/>
      <point x="357" y="309"/>
      <point x="307" y="331"/>
      <point x="257" y="331" type="curve" smooth="yes"/>
      <point x="217" y="331"/>
      <point x="183" y="317"/>
      <point x="161" y="317" type="curve" smooth="yes"/>
      <point x="140" y="317"/>
      <point x="132" y="335"/>
      <point x="132" y="358" type="curve" smooth="yes"/>
      <point x="132" y="382"/>
      <point x="140" y="399"/>
      <point x="161" y="399" type="curve" smooth="yes"/>
      <point x="183" y="399"/>
      <point x="219" y="385"/>
      <point x="257" y="385" type="curve" smooth="yes"/>
      <point x="330" y="385"/>
      <point x="336" y="481"/>
      <point x="336" y="517" type="curve" smooth="yes"/>
      <point x="336" y="558"/>
      <point x="326" y="634"/>
      <point x="265" y="634" type="curve" smooth="yes"/>
      <point x="217" y="634"/>
      <point x="191" y="593"/>
      <point x="169" y="519" type="curve" smooth="yes"/>
      <point x="162" y="497"/>
      <point x="149" y="484"/>
      <point x="127" y="484" type="curve" smooth="yes"/>
      <point x="103" y="484"/>
      <point x="49" y="502"/>
      <point x="49" y="547" type="curve" smooth="yes"/>
      <point x="49" y="622"/>
      <point x="148" y="680"/>
      <point x="265" y="680" type="curve" smooth="yes"/>
      <point x="368" y="680"/>
      <point x="491" y="648"/>
      <point x="491" y="510" type="curve" smooth="yes"/>
      <point x="491" y="412"/>
      <point x="405" y="380"/>
      <point x="352" y="366" type="curve"/>
      <point x="352" y="362" type="line"/>
      <point x="390" y="356"/>
      <point x="519" y="327"/>
      <point x="519" y="184" type="curve" smooth="yes"/>
      <point x="519" y="57"/>
      <point x="422" y="-12"/>
      <point x="260" y="-12" type="curve" smooth="yes"/>
      <point x="78" y="-12"/>
      <point x="27" y="81"/>
    </contour>
  </outline>
</glyph>
<glyph name="six" format="2">
	<unicode hex="0036"/>
	<advance width="560"/>
	<outline>
		<contour>
			<point x="30" y="316.039" type="curve" smooth="yes"/>
			<point x="30" y="507.995"/>
			<point x="96.9416" y="680"/>
			<point x="305.843" y="680" type="curve" smooth="yes"/>
			<point x="441" y="680"/>
			<point x="502" y="608"/>
			<point x="502" y="559.483" type="curve" smooth="yes"/>
			<point x="502" y="516"/>
			<point x="453" y="497"/>
			<point x="427" y="497" type="curve" smooth="yes"/>
			<point x="404" y="497"/>
			<point x="388" y="511"/>
			<point x="383" y="528" type="curve" smooth="yes"/>
			<point x="364.909" y="594"/>
			<point x="337.773" y="634"/>
			<point x="296.613" y="634" type="curve" smooth="yes"/>
			<point x="227.718" y="634"/>
			<point x="183.993" y="522.953"/>
			<point x="184" y="348" type="curve"/>
			<point x="186.01" y="348" type="line"/>
			<point x="225.207" y="394"/>
			<point x="273.449" y="430"/>
			<point x="344.976" y="430" type="curve" smooth="yes"/>
			<point x="444" y="430"/>
			<point x="537" y="361"/>
			<point x="537" y="222.162" type="curve" smooth="yes"/>
			<point x="537" y="100"/>
			<point x="465" y="-12"/>
			<point x="289.924" y="-12" type="curve" smooth="yes"/>
			<point x="97" y="-12"/>
			<point x="30" y="124"/>
		</contour>
		<contour>
			<point x="184" y="234" type="curve" smooth="yes"/>
			<point x="184" y="126"/>
			<point x="215.157" y="34"/>
			<point x="290.846" y="34" type="curve" smooth="yes"/>
			<point x="356.869" y="34"/>
			<point x="383" y="104"/>
			<point x="383" y="190.691" type="curve" smooth="yes"/>
			<point x="383" y="306"/>
			<point x="336.768" y="348"/>
			<point x="280.485" y="348" type="curve" smooth="yes"/>
			<point x="218.172" y="348"/>
			<point x="184" y="293"/>
		</contour>
	</outline>
</glyph>
<glyph name="seven" format="2">
  <advance width="560"/>
  <unicode hex="0037"/>
  <outline>
    <contour>
      <point x="34" y="499" type="line"/>
      <point x="77" y="668" type="line"/>
      <point x="517" y="668" type="line"/>
      <point x="530" y="656" type="line"/>
      <point x="514" y="559"/>
      <point x="475" y="492"/>
      <point x="380" y="353" type="curve" smooth="yes"/>
      <point x="333" y="285"/>
      <point x="313" y="174"/>
      <point x="313" y="51" type="curve" smooth="yes"/>
      <point x="313" y="-4.009"/>
      <point x="272" y="-12"/>
      <point x="233.511" y="-12" type="curve" smooth="yes"/>
      <point x="195" y="-12"/>
      <point x="153" y="-4"/>
      <point x="153" y="61.283" type="curve" smooth="yes"/>
      <point x="153" y="138"/>
      <point x="211" y="241"/>
      <point x="293" y="340" type="curve" smooth="yes"/>
      <point x="374" y="438"/>
      <point x="398" y="514"/>
      <point x="408" y="547" type="curve"/>
      <point x="146" y="547" type="line" smooth="yes"/>
      <point x="103" y="547"/>
      <point x="91" y="531"/>
      <point x="79" y="508" type="curve" smooth="yes"/>
      <point x="69" y="489" type="line"/>
    </contour>
  </outline>
</glyph>
<glyph name="eight" format="2">
  <advance width="560"/>
  <unicode hex="0038"/>
  <outline>
    <contour>
      <point x="27" y="185.372" type="curve" smooth="yes"/>
      <point x="27" y="280.644"/>
      <point x="79" y="338.792"/>
      <point x="159" y="362.75" type="curve"/>
      <point x="159" y="364.667" type="line"/>
      <point x="98" y="382"/>
      <point x="52" y="426"/>
      <point x="52" y="505.308" type="curve" smooth="yes"/>
      <point x="52" y="615"/>
      <point x="140" y="680"/>
      <point x="282.666" y="680" type="curve" smooth="yes"/>
      <point x="422" y="680"/>
      <point x="508" y="618"/>
      <point x="508" y="507.104" type="curve" smooth="yes"/>
      <point x="508" y="426"/>
      <point x="462" y="382"/>
      <point x="401" y="363.708" type="curve"/>
      <point x="401" y="361.792" type="line"/>
      <point x="482" y="338.792"/>
      <point x="533" y="280.644"/>
      <point x="533" y="185.294" type="curve" smooth="yes"/>
      <point x="533" y="39.034"/>
      <point x="413" y="-12"/>
      <point x="281.147" y="-12" type="curve" smooth="yes"/>
      <point x="148" y="-12"/>
      <point x="27" y="40.04"/>
    </contour>
    <contour>
      <point x="185" y="182.835" type="curve" smooth="yes"/>
      <point x="185" y="97.423"/>
      <point x="217" y="34"/>
      <point x="280" y="34" type="curve" smooth="yes"/>
      <point x="343" y="34"/>
      <point x="375" y="97.423"/>
      <point x="375" y="182.834" type="curve" smooth="yes"/>
      <point x="375" y="269.57"/>
      <point x="342" y="334"/>
      <point x="280" y="334" type="curve" smooth="yes"/>
      <point x="218" y="334"/>
      <point x="185" y="269.57"/>
    </contour>
    <contour>
      <point x="200" y="507.094" type="curve" smooth="yes"/>
      <point x="200" y="434"/>
      <point x="231" y="380"/>
      <point x="281.5" y="380" type="curve" smooth="yes"/>
      <point x="332" y="380"/>
      <point x="360" y="434"/>
      <point x="360" y="507.159" type="curve" smooth="yes"/>
      <point x="360" y="579"/>
      <point x="333" y="634"/>
      <point x="281.5" y="634" type="curve" smooth="yes"/>
      <point x="230" y="634"/>
      <point x="200" y="579"/>
    </contour>
  </outline>
</glyph>
<glyph name="nine" format="2">
  <advance width="560"/>
  <unicode hex="0039"/>
  <outline>
    <contour>
      <point x="34" y="454" type="curve" smooth="yes"/>
      <point x="34" y="580"/>
      <point x="119" y="680"/>
      <point x="279.523" y="680" type="curve" smooth="yes"/>
      <point x="477.286" y="680"/>
      <point x="523" y="528.22"/>
      <point x="523" y="344.123" type="curve" smooth="yes"/>
      <point x="523" y="156.758"/>
      <point x="475.649" y="-12"/>
      <point x="254.634" y="-12" type="curve" smooth="yes"/>
      <point x="102" y="-12"/>
      <point x="50" y="68.486"/>
      <point x="50" y="109.998" type="curve" smooth="yes"/>
      <point x="50" y="148.614"/>
      <point x="95" y="176"/>
      <point x="127.351" y="176" type="curve" smooth="yes"/>
      <point x="148" y="176"/>
      <point x="163" y="164.843"/>
      <point x="170" y="143.543" type="curve" smooth="yes"/>
      <point x="199" y="56.314"/>
      <point x="225" y="34"/>
      <point x="262" y="34" type="curve" smooth="yes"/>
      <point x="314" y="34"/>
      <point x="369" y="77.614"/>
      <point x="369" y="317" type="curve"/>
      <point x="367" y="317" type="line"/>
      <point x="338" y="287"/>
      <point x="292" y="255"/>
      <point x="236" y="255" type="curve" smooth="yes"/>
      <point x="129" y="255"/>
      <point x="34" y="319"/>
    </contour>
    <contour>
      <point x="188" y="485.574" type="curve" smooth="yes"/>
      <point x="188" y="393"/>
      <point x="225" y="331"/>
      <point x="291.933" y="331" type="curve" smooth="yes"/>
      <point x="352.319" y="331"/>
      <point x="369" y="381.463"/>
      <point x="369" y="433" type="curve" smooth="yes"/>
      <point x="369" y="551"/>
      <point x="338" y="634"/>
      <point x="275.005" y="634" type="curve" smooth="yes"/>
      <point x="221" y="634"/>
      <point x="188" y="573"/>
    </contour>
  </outline>
</glyph>
<glyph name="colon" format="1">
  <advance width="280"/>
  <unicode hex="003A"/>
  <outline>
    <contour>
      <point x="47" y="81" type="curve" smooth="yes"/>
      <point x="47" y="136"/>
      <point x="85" y="174"/>
      <point x="140" y="174" type="curve" smooth="yes"/>
      <point x="195" y="174"/>
      <point x="233" y="136"/>
      <point x="233" y="81" type="curve" smooth="yes"/>
      <point x="233" y="26"/>
      <point x="195" y="-12"/>
      <point x="140" y="-12" type="curve" smooth="yes"/>
      <point x="85" y="-12"/>
      <point x="47" y="26"/>
    </contour>
    <contour>
      <point x="47" y="397" type="curve" smooth="yes"/>
      <point x="47" y="452"/>
      <point x="85" y="490"/>
      <point x="140" y="490" type="curve" smooth="yes"/>
      <point x="195" y="490"/>
      <point x="233" y="452"/>
      <point x="233" y="397" type="curve" smooth="yes"/>
      <point x="233" y="342"/>
      <point x="195" y="304"/>
      <point x="140" y="304" type="curve" smooth="yes"/>
      <point x="85" y="304"/>
      <point x="47" y="342"/>
    </contour>
  </outline>
</glyph>
<glyph name="less" format="1">
  <advance width="600"/>
  <unicode hex="003C"/>
  <outline>
    <contour>
      <point x="61" y="206" type="line"/>
      <point x="61" y="289" type="line"/>
      <point x="539" y="493" type="line"/>
      <point x="539" y="402" type="line"/>
      <point x="158" y="248" type="line"/>
      <point x="539" y="95" type="line"/>
      <point x="539" y="5" type="line"/>
    </contour>
  </outline>
</glyph>
<glyph name="greater" format="2">
	<unicode hex="003E"/>
	<advance width="600"/>
	<outline>
		<contour>
			<point x="61" y="5" type="line"/>
			<point x="61" y="95" type="line"/>
			<point x="442" y="248" type="line"/>
			<point x="61" y="402" type="line"/>
			<point x="61" y="493" type="line"/>
			<point x="539" y="289" type="line"/>
			<point x="539" y="206" type="line"/>
		</contour>
	</outline>
</glyph>
<glyph name="question" format="2">
	<unicode hex="003F"/>
	<advance width="456"/>
	<outline>
		<contour>
			<point x="20" y="582" type="curve" smooth="yes"/>
			<point x="20" y="632"/>
			<point x="88" y="707"/>
			<point x="231.333" y="707" type="curve" smooth="yes"/>
			<point x="346" y="707"/>
			<point x="433" y="659"/>
			<point x="433" y="556.276" type="curve" smooth="yes"/>
			<point x="433" y="498"/>
			<point x="405" y="472.252"/>
			<point x="328" y="435" type="curve" smooth="yes"/>
			<point x="277.269" y="410.456"/>
			<point x="254" y="377"/>
			<point x="254" y="347" type="curve" smooth="yes"/>
			<point x="254" y="317"/>
			<point x="278" y="294"/>
			<point x="322.08" y="294" type="curve" smooth="yes"/>
			<point x="338" y="294"/>
			<point x="353" y="297"/>
			<point x="364" y="300" type="curve"/>
			<point x="375" y="273" type="line"/>
			<point x="335" y="246"/>
			<point x="281" y="224"/>
			<point x="224" y="224" type="curve" smooth="yes"/>
			<point x="152" y="224"/>
			<point x="86" y="258"/>
			<point x="86" y="326.39" type="curve" smooth="yes"/>
			<point x="86" y="359"/>
			<point x="101.005" y="393.991"/>
			<point x="172" y="437" type="curve" smooth="yes"/>
			<point x="247.017" y="482.445"/>
			<point x="265.704" y="521.518"/>
			<point x="265.97" y="577.753" type="curve" smooth="yes"/>
			<point x="266.213" y="629"/>
			<point x="251" y="661"/>
			<point x="223.896" y="661" type="curve" smooth="yes"/>
			<point x="199" y="661"/>
			<point x="179" y="634"/>
			<point x="159" y="551" type="curve" smooth="yes"/>
			<point x="153" y="526"/>
			<point x="137" y="514"/>
			<point x="109.74" y="514" type="curve" smooth="yes"/>
			<point x="72" y="514"/>
			<point x="20" y="537"/>
		</contour>
		<contour>
			<point x="131" y="81" type="curve" smooth="yes"/>
			<point x="131" y="136"/>
			<point x="169" y="174"/>
			<point x="224" y="174" type="curve" smooth="yes"/>
			<point x="279" y="174"/>
			<point x="317" y="136"/>
			<point x="317" y="81" type="curve" smooth="yes"/>
			<point x="317" y="26"/>
			<point x="279" y="-12"/>
			<point x="224" y="-12" type="curve" smooth="yes"/>
			<point x="169" y="-12"/>
			<point x="131" y="26"/>
		</contour>
	</outline>
</glyph>
<glyph name="A" format="2">
	<unicode hex="0041"/>
	<advance width="644"/>
	<outline>
		<contour>
			<point x="-28" y="0" type="line"/>
			<point x="-28" y="38" type="line"/>
			<point x="26" y="41"/>
			<point x="38" y="48"/>
			<point x="53" y="90" type="curve" smooth="yes"/>
			<point x="262" y="692" type="line"/>
			<point x="388" y="692" type="line"/>
			<point x="585" y="86" type="line" smooth="yes"/>
			<point x="598" y="45"/>
			<point x="611" y="40"/>
			<point x="663" y="38" type="curve"/>
			<point x="663" y="0" type="line"/>
			<point x="347" y="0" type="line"/>
			<point x="347" y="38" type="line"/>
			<point x="405" y="44" type="line"/>
			<point x="419" y="45"/>
			<point x="425" y="52"/>
			<point x="425" y="63" type="curve" smooth="yes"/>
			<point x="425" y="68"/>
			<point x="424" y="73"/>
			<point x="422" y="80" type="curve" smooth="yes"/>
			<point x="370" y="246" type="line"/>
			<point x="176" y="246" type="line"/>
			<point x="128" y="79" type="line" smooth="yes"/>
			<point x="126" y="72"/>
			<point x="125" y="67"/>
			<point x="125" y="62" type="curve" smooth="yes"/>
			<point x="125" y="51"/>
			<point x="131" y="44"/>
			<point x="146" y="43" type="curve" smooth="yes"/>
			<point x="206" y="38" type="line"/>
			<point x="206" y="0" type="line"/>
		</contour>
		<contour>
			<point x="192" y="294" type="line"/>
			<point x="354" y="294" type="line"/>
			<point x="276" y="553" type="line"/>
			<point x="273" y="553" type="line"/>
		</contour>
	</outline>
	<anchor name="aring" x="320" y="660"/>
	<anchor name="ogonek" x="496" y="10"/>
	<anchor name="tonos" x="156" y="707"/>
	<anchor name="top" x="318" y="730"/>
</glyph>
<glyph name="B" format="1">
  <advance width="683"/>
  <unicode hex="0042"/>
  <outline>
    <contour>
      <point x="33" y="0" type="line"/>
      <point x="33" y="38" type="line"/>
      <point x="104" y="41"/>
      <point x="112" y="46"/>
      <point x="112" y="97" type="curve" smooth="yes"/>
      <point x="112" y="595" type="line" smooth="yes"/>
      <point x="112" y="646"/>
      <point x="104" y="651"/>
      <point x="33" y="654" type="curve"/>
      <point x="33" y="692" type="line"/>
      <point x="363" y="692" type="line" smooth="yes"/>
      <point x="521" y="692"/>
      <point x="618" y="648"/>
      <point x="618" y="526" type="curve" smooth="yes"/>
      <point x="618" y="444"/>
      <point x="568" y="392"/>
      <point x="470" y="371" type="curve"/>
      <point x="470" y="369" type="line"/>
      <point x="563" y="355"/>
      <point x="645" y="300"/>
      <point x="645" y="189" type="curve" smooth="yes"/>
      <point x="645" y="135"/>
      <point x="629" y="87"/>
      <point x="588" y="54" type="curve" smooth="yes"/>
      <point x="546" y="20"/>
      <point x="477" y="0"/>
      <point x="363" y="0" type="curve" smooth="yes"/>
    </contour>
    <contour>
      <point x="272" y="111" type="line" smooth="yes"/>
      <point x="272" y="62"/>
      <point x="294" y="46"/>
      <point x="344" y="46" type="curve" smooth="yes"/>
      <point x="414" y="46"/>
      <point x="470" y="81"/>
      <point x="470" y="188" type="curve" smooth="yes"/>
      <point x="470" y="272"/>
      <point x="423" y="343"/>
      <point x="323" y="343" type="curve" smooth="yes"/>
      <point x="272" y="343" type="line"/>
    </contour>
    <contour>
      <point x="272" y="389" type="line"/>
      <point x="321" y="389" type="line" smooth="yes"/>
      <point x="417" y="389"/>
      <point x="456" y="444"/>
      <point x="456" y="518" type="curve" smooth="yes"/>
      <point x="456" y="593"/>
      <point x="420" y="646"/>
      <point x="330" y="646" type="curve" smooth="yes"/>
      <point x="290" y="646"/>
      <point x="272" y="643"/>
      <point x="272" y="609" type="curve" smooth="yes"/>
    </contour>
  </outline>
</glyph>
<glyph name="C" format="2">
  <advance width="689"/>
  <unicode hex="0043"/>
  <anchor x="399" y="10" name="cedilla"/>
  <outline>
    <contour>
      <point x="42" y="341" type="curve" smooth="yes"/>
      <point x="42" y="585"/>
      <point x="180" y="707"/>
      <point x="413" y="707" type="curve" smooth="yes"/>
      <point x="473" y="707"/>
      <point x="578" y="699"/>
      <point x="638" y="663" type="curve"/>
      <point x="638" y="484" type="line"/>
      <point x="600" y="484" type="line"/>
      <point x="577" y="556"/>
      <point x="542" y="661"/>
      <point x="418" y="661" type="curve" smooth="yes"/>
      <point x="233" y="661"/>
      <point x="219" y="428"/>
      <point x="219" y="348" type="curve" smooth="yes"/>
      <point x="219" y="242"/>
      <point x="244" y="31"/>
      <point x="422" y="31" type="curve" smooth="yes"/>
      <point x="535" y="31"/>
      <point x="578" y="118"/>
      <point x="616" y="228" type="curve"/>
      <point x="654" y="228" type="line"/>
      <point x="642" y="33" type="line"/>
      <point x="582" y="-3"/>
      <point x="478" y="-15"/>
      <point x="404" y="-15" type="curve" smooth="yes"/>
      <point x="151" y="-15"/>
      <point x="42" y="125"/>
    </contour>
  </outline>
</glyph>
<glyph name="D" format="2">
  <advance width="777"/>
  <unicode hex="0044"/>
  <outline>
    <contour>
      <point x="33" y="0" type="line"/>
      <point x="33" y="38" type="line"/>
      <point x="104" y="41"/>
      <point x="112" y="46"/>
      <point x="112" y="97" type="curve" smooth="yes"/>
      <point x="112" y="595" type="line" smooth="yes"/>
      <point x="112" y="646"/>
      <point x="104" y="651"/>
      <point x="33" y="654" type="curve"/>
      <point x="33" y="692" type="line"/>
      <point x="376" y="692" type="line" smooth="yes"/>
      <point x="607" y="692"/>
      <point x="735" y="593"/>
      <point x="735" y="353" type="curve" smooth="yes"/>
      <point x="735" y="21"/>
      <point x="488" y="0"/>
      <point x="332" y="0" type="curve" smooth="yes"/>
    </contour>
    <contour>
      <point x="272" y="90" type="line" smooth="yes"/>
      <point x="272" y="58"/>
      <point x="289" y="46"/>
      <point x="345" y="46" type="curve" smooth="yes"/>
      <point x="450" y="46"/>
      <point x="558" y="89"/>
      <point x="558" y="353" type="curve" smooth="yes"/>
      <point x="558" y="546"/>
      <point x="489" y="646"/>
      <point x="355" y="646" type="curve" smooth="yes"/>
      <point x="292" y="646"/>
      <point x="272" y="641"/>
      <point x="272" y="618" type="curve" smooth="yes"/>
    </contour>
  </outline>
</glyph>
<glyph name="F" format="2">
  <advance width="593"/>
  <unicode hex="0046"/>
  <outline>
    <contour>
      <point x="37" y="0" type="line"/>
      <point x="37" y="38" type="line"/>
      <point x="108" y="41"/>
      <point x="116" y="46"/>
      <point x="116" y="97" type="curve" smooth="yes"/>
      <point x="116" y="595" type="line" smooth="yes"/>
      <point x="116" y="646"/>
      <point x="108" y="651"/>
      <point x="37" y="654" type="curve"/>
      <point x="37" y="692" type="line"/>
      <point x="568" y="692" type="line"/>
      <point x="568" y="507" type="line"/>
      <point x="530" y="507" type="line"/>
      <point x="499" y="604"/>
      <point x="481" y="646"/>
      <point x="378" y="646" type="curve" smooth="yes"/>
      <point x="311" y="646" type="line" smooth="yes"/>
      <point x="283" y="646"/>
      <point x="276" y="639"/>
      <point x="276" y="610" type="curve" smooth="yes"/>
      <point x="276" y="370" type="line"/>
      <point x="390" y="370" type="line" smooth="yes"/>
      <point x="453" y="370"/>
      <point x="466" y="387"/>
      <point x="482" y="460" type="curve"/>
      <point x="520" y="460" type="line"/>
      <point x="520" y="228" type="line"/>
      <point x="482" y="228" type="line"/>
      <point x="466" y="301"/>
      <point x="453" y="318"/>
      <point x="390" y="318" type="curve" smooth="yes"/>
      <point x="276" y="318" type="line"/>
      <point x="276" y="97" type="line" smooth="yes"/>
      <point x="276" y="46"/>
      <point x="284" y="41"/>
      <point x="372" y="38" type="curve"/>
      <point x="372" y="0" type="line"/>
    </contour>
  </outline>
</glyph>
<glyph name="G" format="2">
	<unicode hex="0047"/>
	<advance width="726"/>
	<outline>
		<contour>
			<point x="42" y="332" type="curve" smooth="yes"/>
			<point x="42" y="479"/>
			<point x="94" y="707"/>
			<point x="424" y="707" type="curve" smooth="yes"/>
			<point x="493" y="707"/>
			<point x="580" y="697"/>
			<point x="643" y="663" type="curve"/>
			<point x="643" y="481" type="line"/>
			<point x="605" y="481" type="line"/>
			<point x="577" y="567"/>
			<point x="530" y="661"/>
			<point x="415" y="661" type="curve" smooth="yes"/>
			<point x="244" y="661"/>
			<point x="219" y="456"/>
			<point x="219" y="349" type="curve" smooth="yes"/>
			<point x="219" y="281"/>
			<point x="229" y="31"/>
			<point x="410" y="31" type="curve" smooth="yes"/>
			<point x="479" y="31"/>
			<point x="493" y="41"/>
			<point x="493" y="76" type="curve" smooth="yes"/>
			<point x="493" y="217" type="line" smooth="yes"/>
			<point x="493" y="266"/>
			<point x="485" y="271"/>
			<point x="407" y="276" type="curve"/>
			<point x="407" y="314" type="line"/>
			<point x="709" y="314" type="line"/>
			<point x="709" y="276" type="line"/>
			<point x="661" y="271"/>
			<point x="653" y="266"/>
			<point x="653" y="219" type="curve" smooth="yes"/>
			<point x="653" y="33" type="line"/>
			<point x="583" y="2"/>
			<point x="486" y="-15"/>
			<point x="410" y="-15" type="curve" smooth="yes"/>
			<point x="177" y="-15"/>
			<point x="42" y="95"/>
		</contour>
	</outline>
</glyph>
<glyph name="H" format="2">
	<unicode hex="0048"/>
	<advance width="807"/>
	<outline>
		<contour>
			<point x="33" y="0" type="line"/>
			<point x="33" y="38" type="line"/>
			<point x="104" y="41"/>
			<point x="112" y="46"/>
			<point x="112" y="97" type="curve" smooth="yes"/>
			<point x="112" y="595" type="line" smooth="yes"/>
			<point x="112" y="646"/>
			<point x="104" y="651"/>
			<point x="33" y="654" type="curve"/>
			<point x="33" y="692" type="line"/>
			<point x="351" y="692" type="line"/>
			<point x="351" y="654" type="line"/>
			<point x="280" y="651"/>
			<point x="272" y="646"/>
			<point x="272" y="595" type="curve" smooth="yes"/>
			<point x="272" y="389" type="line"/>
			<point x="535" y="389" type="line"/>
			<point x="535" y="595" type="line" smooth="yes"/>
			<point x="535" y="646"/>
			<point x="527" y="651"/>
			<point x="456" y="654" type="curve"/>
			<point x="456" y="692" type="line"/>
			<point x="774" y="692" type="line"/>
			<point x="774" y="654" type="line"/>
			<point x="703" y="651"/>
			<point x="695" y="646"/>
			<point x="695" y="595" type="curve" smooth="yes"/>
			<point x="695" y="97" type="line" smooth="yes"/>
			<point x="695" y="46"/>
			<point x="703" y="41"/>
			<point x="774" y="38" type="curve"/>
			<point x="774" y="0" type="line"/>
			<point x="456" y="0" type="line"/>
			<point x="456" y="38" type="line"/>
			<point x="527" y="41"/>
			<point x="535" y="46"/>
			<point x="535" y="97" type="curve" smooth="yes"/>
			<point x="535" y="341" type="line"/>
			<point x="272" y="341" type="line"/>
			<point x="272" y="97" type="line" smooth="yes"/>
			<point x="272" y="46"/>
			<point x="280" y="41"/>
			<point x="351" y="38" type="curve"/>
			<point x="351" y="0" type="line"/>
		</contour>
	</outline>
	<anchor name="tonos" x="0" y="702"/>
</glyph>
<glyph name="K" format="2">
	<unicode hex="004B"/>
	<advance width="707"/>
	<outline>
		<component base="I"/>
		<contour>
			<point x="272" y="359" type="line"/>
			<point x="348" y="446"/>
			<point x="422.365" y="533.707"/>
			<point x="493" y="622" type="curve" smooth="yes"/>
			<point x="498.374" y="628.717"/>
			<point x="501" y="634"/>
			<point x="501" y="639" type="curve" smooth="yes"/>
			<point x="501" y="645"/>
			<point x="495.964" y="648.719"/>
			<point x="487" y="650" type="curve" smooth="yes"/>
			<point x="445" y="656" type="line"/>
			<point x="445" y="692" type="line"/>
			<point x="717" y="692" type="line"/>
			<point x="717" y="656" type="line"/>
			<point x="656" y="651"/>
			<point x="636.259" y="642.688"/>
			<point x="605" y="617" type="curve" smooth="yes"/>
			<point x="535.257" y="559.686"/>
			<point x="478" y="500"/>
			<point x="401" y="419" type="curve"/>
			<point x="441" y="352"/>
			<point x="626" y="59"/>
			<point x="719" y="32" type="curve"/>
			<point x="719" y="-5" type="line"/>
			<point x="651" y="-5" type="line" smooth="yes"/>
			<point x="534" y="-5"/>
			<point x="481.052" y="31.0411"/>
			<point x="410" y="120" type="curve" smooth="yes"/>
			<point x="358.052" y="185.041"/>
			<point x="326" y="241"/>
			<point x="274" y="339" type="curve"/>
			<point x="272" y="339" type="line"/>
		</contour>
	</outline>
</glyph>
<glyph name="L" format="2">
	<unicode hex="004C"/>
	<advance width="585"/>
	<outline>
		<contour>
			<point x="33" y="0" type="line"/>
			<point x="33" y="38" type="line"/>
			<point x="104" y="41"/>
			<point x="112" y="46"/>
			<point x="112" y="97" type="curve" smooth="yes"/>
			<point x="112" y="595" type="line" smooth="yes"/>
			<point x="112" y="646"/>
			<point x="104" y="651"/>
			<point x="33" y="654" type="curve"/>
			<point x="33" y="692" type="line"/>
			<point x="363" y="692" type="line"/>
			<point x="363" y="654" type="line"/>
			<point x="280" y="651"/>
			<point x="272" y="646"/>
			<point x="272" y="595" type="curve" smooth="yes"/>
			<point x="272" y="119" type="line" smooth="yes"/>
			<point x="272" y="55"/>
			<point x="299" y="46"/>
			<point x="383" y="46" type="curve" smooth="yes"/>
			<point x="491" y="46"/>
			<point x="510" y="101"/>
			<point x="546" y="201" type="curve"/>
			<point x="584" y="201" type="line"/>
			<point x="572" y="0" type="line"/>
		</contour>
	</outline>
	<anchor name="dot" x="375" y="391"/>
	<anchor name="quote" x="539" y="742"/>
</glyph>
<glyph name="N" format="2">
  <advance width="739"/>
  <unicode hex="004E"/>
  <outline>
    <contour>
      <point x="25" y="654" type="curve"/>
      <point x="25" y="692" type="line"/>
      <point x="262" y="692" type="line"/>
      <point x="577" y="216" type="line"/>
      <point x="581" y="216" type="line"/>
      <point x="581" y="440" type="line" smooth="yes"/>
      <point x="581" y="522"/>
      <point x="579" y="560"/>
      <point x="576" y="596" type="curve" smooth="yes"/>
      <point x="573" y="639"/>
      <point x="533" y="649"/>
      <point x="478" y="654" type="curve"/>
      <point x="478" y="692" type="line"/>
      <point x="719" y="692" type="line"/>
      <point x="719" y="654" type="line"/>
      <point x="671" y="647"/>
      <point x="650" y="638"/>
      <point x="647" y="596" type="curve" smooth="yes"/>
      <point x="645" y="561"/>
      <point x="643" y="522"/>
      <point x="643" y="440" type="curve" smooth="yes"/>
      <point x="643" y="0" type="line"/>
      <point x="533" y="0" type="line"/>
      <point x="170" y="558" type="line"/>
      <point x="166" y="558" type="line"/>
      <point x="166" y="252" type="line" smooth="yes"/>
      <point x="166" y="170"/>
      <point x="168" y="132"/>
      <point x="171" y="96" type="curve" smooth="yes"/>
      <point x="175" y="48"/>
      <point x="214" y="43"/>
      <point x="269" y="38" type="curve"/>
      <point x="269" y="0" type="line"/>
      <point x="28" y="0" type="line"/>
      <point x="28" y="38" type="line"/>
      <point x="83" y="46"/>
      <point x="97" y="55"/>
      <point x="100" y="105" type="curve" smooth="yes"/>
      <point x="102" y="131"/>
      <point x="104" y="170"/>
      <point x="104" y="252" type="curve" smooth="yes"/>
      <point x="104" y="595" type="line" smooth="yes"/>
      <point x="104" y="646"/>
      <point x="96" y="651"/>
    </contour>
  </outline>
</glyph>
<glyph name="O" format="2">
  <advance width="768"/>
  <unicode hex="004F"/>
  <anchor x="38" y="702" name="tonos"/>
  <outline>
    <contour>
      <point x="42" y="346" type="curve" smooth="yes"/>
      <point x="42" y="572"/>
      <point x="154" y="707"/>
      <point x="384" y="707" type="curve" smooth="yes"/>
      <point x="614" y="707"/>
      <point x="726" y="572"/>
      <point x="726" y="346" type="curve" smooth="yes"/>
      <point x="726" y="120"/>
      <point x="614" y="-15"/>
      <point x="384" y="-15" type="curve" smooth="yes"/>
      <point x="154" y="-15"/>
      <point x="42" y="120"/>
    </contour>
    <contour>
      <point x="219" y="349" type="curve" smooth="yes"/>
      <point x="219" y="225"/>
      <point x="239" y="31"/>
      <point x="384" y="31" type="curve" smooth="yes"/>
      <point x="531" y="31"/>
      <point x="549" y="225"/>
      <point x="549" y="346" type="curve" smooth="yes"/>
      <point x="549" y="467"/>
      <point x="531" y="661"/>
      <point x="384" y="661" type="curve" smooth="yes"/>
      <point x="237" y="661"/>
      <point x="219" y="467"/>
    </contour>
  </outline>
</glyph>
<glyph name="T" format="2">
	<unicode hex="0054"/>
	<advance width="624"/>
	<outline>
		<contour>
			<point x="15" y="504" type="line"/>
			<point x="15" y="692" type="line"/>
			<point x="609" y="692" type="line"/>
			<point x="609" y="504" type="line"/>
			<point x="571" y="504" type="line"/>
			<point x="538" y="604"/>
			<point x="524" y="646"/>
			<point x="432" y="646" type="curve" smooth="yes"/>
			<point x="392" y="646" type="line"/>
			<point x="392" y="95" type="line" smooth="yes"/>
			<point x="392" y="45"/>
			<point x="431" y="42"/>
			<point x="488" y="38" type="curve"/>
			<point x="488" y="0" type="line"/>
			<point x="136" y="0" type="line"/>
			<point x="136" y="38" type="line"/>
			<point x="193" y="42"/>
			<point x="232" y="45"/>
			<point x="232" y="95" type="curve" smooth="yes"/>
			<point x="232" y="646" type="line"/>
			<point x="192" y="646" type="line" smooth="yes"/>
			<point x="100" y="646"/>
			<point x="86" y="604"/>
			<point x="53" y="504" type="curve"/>
		</contour>
	</outline>
</glyph>
<glyph name="V" format="1">
  <advance width="645"/>
  <unicode hex="0056"/>
  <outline>
    <contour>
      <point x="-16" y="654" type="curve"/>
      <point x="-16" y="692" type="line"/>
      <point x="287" y="692" type="line"/>
      <point x="287" y="654" type="line"/>
      <point x="239" y="649" type="line" smooth="yes"/>
      <point x="216" y="647"/>
      <point x="216" y="634"/>
      <point x="222" y="613" type="curve" smooth="yes"/>
      <point x="372" y="149" type="line"/>
      <point x="377" y="149" type="line"/>
      <point x="395" y="200"/>
      <point x="440" y="346"/>
      <point x="460" y="407" type="curve" smooth="yes"/>
      <point x="490" y="500"/>
      <point x="512" y="583"/>
      <point x="520" y="616" type="curve" smooth="yes"/>
      <point x="525" y="637"/>
      <point x="523" y="647"/>
      <point x="503" y="649" type="curve" smooth="yes"/>
      <point x="447" y="654" type="line"/>
      <point x="447" y="692" type="line"/>
      <point x="679" y="692" type="line"/>
      <point x="679" y="654" type="line"/>
      <point x="623" y="650"/>
      <point x="614" y="643"/>
      <point x="594" y="595" type="curve" smooth="yes"/>
      <point x="579" y="556"/>
      <point x="544" y="459"/>
      <point x="507" y="349" type="curve" smooth="yes"/>
      <point x="388" y="0" type="line"/>
      <point x="262" y="0" type="line"/>
      <point x="60" y="603" type="line" smooth="yes"/>
      <point x="46" y="646"/>
      <point x="35" y="652"/>
    </contour>
  </outline>
</glyph>
<glyph name="X" format="2">
  <advance width="634"/>
  <unicode hex="0058"/>
  <outline>
    <contour>
      <point x="-19" y="0" type="line"/>
      <point x="-19" y="38" type="line"/>
      <point x="46" y="42"/>
      <point x="55" y="45"/>
      <point x="85" y="89" type="curve" smooth="yes"/>
      <point x="249" y="330" type="line"/>
      <point x="83" y="603" type="line" smooth="yes"/>
      <point x="57" y="645"/>
      <point x="49" y="649"/>
      <point x="-6" y="654" type="curve"/>
      <point x="-6" y="692" type="line"/>
      <point x="299" y="692" type="line"/>
      <point x="299" y="654" type="line"/>
      <point x="257" y="649" type="line"/>
      <point x="245" y="648"/>
      <point x="239" y="642"/>
      <point x="239" y="634" type="curve" smooth="yes"/>
      <point x="239" y="628"/>
      <point x="241" y="622"/>
      <point x="246" y="614" type="curve" smooth="yes"/>
      <point x="346" y="449" type="line"/>
      <point x="348" y="449" type="line"/>
      <point x="451" y="618" type="line"/>
      <point x="455" y="624"/>
      <point x="456" y="629"/>
      <point x="456" y="633" type="curve" smooth="yes"/>
      <point x="456" y="641"/>
      <point x="450" y="646"/>
      <point x="441" y="647" type="curve"/>
      <point x="398" y="654" type="line"/>
      <point x="398" y="692" type="line"/>
      <point x="631" y="692" type="line"/>
      <point x="631" y="654" type="line"/>
      <point x="580" y="651"/>
      <point x="559" y="648"/>
      <point x="530" y="608" type="curve" smooth="yes"/>
      <point x="381" y="401" type="line"/>
      <point x="568" y="98" type="line" smooth="yes"/>
      <point x="598" y="49"/>
      <point x="608" y="41"/>
      <point x="671" y="38" type="curve"/>
      <point x="671" y="0" type="line"/>
      <point x="335" y="0" type="line"/>
      <point x="335" y="38" type="line"/>
      <point x="386" y="44" type="line" smooth="yes"/>
      <point x="400" y="46"/>
      <point x="406" y="52"/>
      <point x="406" y="60" type="curve" smooth="yes"/>
      <point x="406" y="65"/>
      <point x="403" y="71"/>
      <point x="400" y="77" type="curve"/>
      <point x="283" y="274" type="line"/>
      <point x="279" y="274" type="line"/>
      <point x="168" y="77" type="line"/>
      <point x="164" y="71"/>
      <point x="163" y="65"/>
      <point x="163" y="60" type="curve" smooth="yes"/>
      <point x="163" y="50"/>
      <point x="170" y="43"/>
      <point x="184" y="42" type="curve" smooth="yes"/>
      <point x="242" y="38" type="line"/>
      <point x="242" y="0" type="line"/>
    </contour>
  </outline>
</glyph>
<glyph name="Y" format="2">
	<unicode hex="0059"/>
	<advance width="617"/>
	<outline>
		<contour>
			<point x="-12" y="654" type="curve"/>
			<point x="-12" y="692" type="line"/>
			<point x="304" y="692" type="line"/>
			<point x="304" y="654" type="line"/>
			<point x="250" y="648" type="line"/>
			<point x="236" y="646"/>
			<point x="232" y="640"/>
			<point x="232" y="632" type="curve" smooth="yes"/>
			<point x="232" y="627"/>
			<point x="233" y="621"/>
			<point x="236" y="615" type="curve"/>
			<point x="359" y="342" type="line"/>
			<point x="362" y="342" type="line"/>
			<point x="481" y="608" type="line"/>
			<point x="485" y="616"/>
			<point x="486" y="623"/>
			<point x="486" y="628" type="curve" smooth="yes"/>
			<point x="486" y="640"/>
			<point x="479" y="647"/>
			<point x="466" y="648" type="curve"/>
			<point x="414" y="654" type="line"/>
			<point x="414" y="692" type="line"/>
			<point x="655" y="692" type="line"/>
			<point x="655" y="654" type="line"/>
			<point x="601" y="648"/>
			<point x="584" y="640"/>
			<point x="561" y="600" type="curve" smooth="yes"/>
			<point x="514" y="518"/>
			<point x="463" y="416"/>
			<point x="416" y="321" type="curve" smooth="yes"/>
			<point x="405" y="298"/>
			<point x="398" y="278"/>
			<point x="398" y="250" type="curve" smooth="yes"/>
			<point x="398" y="97" type="line" smooth="yes"/>
			<point x="398" y="46"/>
			<point x="406" y="41"/>
			<point x="494" y="38" type="curve"/>
			<point x="494" y="0" type="line"/>
			<point x="142" y="0" type="line"/>
			<point x="142" y="38" type="line"/>
			<point x="230" y="41"/>
			<point x="238" y="46"/>
			<point x="238" y="97" type="curve" smooth="yes"/>
			<point x="238" y="240" type="line" smooth="yes"/>
			<point x="238" y="265"/>
			<point x="227" y="289"/>
			<point x="217" y="309" type="curve" smooth="yes"/>
			<point x="72" y="597" type="line" smooth="yes"/>
			<point x="49" y="643"/>
			<point x="40" y="650"/>
		</contour>
	</outline>
	<anchor name="tonos" x="-34" y="702"/>
</glyph>
<glyph name="bracketleft" format="2">
  <advance width="335"/>
  <unicode hex="005B"/>
  <outline>
    <contour>
      <point x="123" y="-128" type="line"/>
      <point x="123" y="692" type="line"/>
      <point x="308" y="692" type="line"/>
      <point x="308" y="658" type="line"/>
      <point x="255" y="652"/>
      <point x="217" y="648"/>
      <point x="217" y="604" type="curve" smooth="yes"/>
      <point x="217" y="-40" type="line" smooth="yes"/>
      <point x="217" y="-84"/>
      <point x="255" y="-88"/>
      <point x="308" y="-94" type="curve"/>
      <point x="308" y="-128" type="line"/>
    </contour>
  </outline>
</glyph>
<glyph name="bracketright" format="1">
  <advance width="335"/>
  <unicode hex="005D"/>
  <outline>
    <contour>
      <point x="27" y="-94" type="line"/>
      <point x="87" y="-87" type="line" smooth="yes"/>
      <point x="114" y="-84"/>
      <point x="118" y="-69"/>
      <point x="118" y="-40" type="curve" smooth="yes"/>
      <point x="118" y="604" type="line" smooth="yes"/>
      <point x="118" y="633"/>
      <point x="114" y="648"/>
      <point x="87" y="651" type="curve" smooth="yes"/>
      <point x="27" y="658" type="line"/>
      <point x="27" y="692" type="line"/>
      <point x="212" y="692" type="line"/>
      <point x="212" y="-128" type="line"/>
      <point x="27" y="-128" type="line"/>
    </contour>
  </outline>
</glyph>
<glyph name="b" format="1">
  <advance width="605"/>
  <unicode hex="0062"/>
  <outline>
    <contour>
      <point x="15" y="679" type="line"/>
      <point x="15" y="715" type="line"/>
      <point x="218" y="742" type="line"/>
      <point x="225" y="736" type="line"/>
      <point x="225" y="433" type="line"/>
      <point x="272" y="469"/>
      <point x="321" y="502"/>
      <point x="384" y="502" type="curve" smooth="yes"/>
      <point x="484" y="502"/>
      <point x="571" y="425"/>
      <point x="571" y="262" type="curve" smooth="yes"/>
      <point x="571" y="36"/>
      <point x="452" y="-12"/>
      <point x="309" y="-12" type="curve" smooth="yes"/>
      <point x="244" y="-12"/>
      <point x="196" y="3"/>
      <point x="160" y="22" type="curve"/>
      <point x="106" y="-12" type="line"/>
      <point x="74" y="6" type="line"/>
      <point x="74" y="621" type="line" smooth="yes"/>
      <point x="74" y="661"/>
      <point x="66" y="670"/>
      <point x="50" y="673" type="curve" smooth="yes"/>
    </contour>
    <contour>
      <point x="225" y="154" type="line" smooth="yes"/>
      <point x="225" y="135"/>
      <point x="226" y="113"/>
      <point x="229" y="98" type="curve" smooth="yes"/>
      <point x="236" y="61"/>
      <point x="262" y="34"/>
      <point x="311" y="34" type="curve" smooth="yes"/>
      <point x="386" y="34"/>
      <point x="412" y="111"/>
      <point x="412" y="237" type="curve" smooth="yes"/>
      <point x="412" y="400"/>
      <point x="361" y="425"/>
      <point x="312" y="425" type="curve" smooth="yes"/>
      <point x="267" y="425"/>
      <point x="244" y="402"/>
      <point x="231" y="368" type="curve" smooth="yes"/>
      <point x="226" y="354"/>
      <point x="225" y="333"/>
      <point x="225" y="312" type="curve" smooth="yes"/>
    </contour>
  </outline>
</glyph>
<glyph name="c" format="2">
	<unicode hex="0063"/>
	<advance width="494"/>
	<outline>
		<contour>
			<point x="34" y="241" type="curve" smooth="yes"/>
			<point x="34" y="408"/>
			<point x="127" y="502"/>
			<point x="280" y="502" type="curve" smooth="yes"/>
			<point x="378" y="502"/>
			<point x="478" y="463"/>
			<point x="478" y="395" type="curve" smooth="yes"/>
			<point x="478" y="348"/>
			<point x="430" y="330"/>
			<point x="396" y="330" type="curve" smooth="yes"/>
			<point x="369" y="330"/>
			<point x="354" y="342"/>
			<point x="347" y="365" type="curve" smooth="yes"/>
			<point x="330" y="425"/>
			<point x="313" y="456"/>
			<point x="280" y="456" type="curve" smooth="yes"/>
			<point x="236" y="456"/>
			<point x="193" y="399"/>
			<point x="193" y="268" type="curve" smooth="yes"/>
			<point x="193" y="109"/>
			<point x="256" y="65"/>
			<point x="326" y="65" type="curve" smooth="yes"/>
			<point x="376" y="65"/>
			<point x="415" y="88"/>
			<point x="449" y="156" type="curve"/>
			<point x="484" y="140" type="line"/>
			<point x="445" y="16"/>
			<point x="352" y="-12"/>
			<point x="270" y="-12" type="curve" smooth="yes"/>
			<point x="128" y="-12"/>
			<point x="34" y="73"/>
		</contour>
	</outline>
	<anchor name="cedilla" x="272" y="0"/>
</glyph>
<glyph name="d" format="2">
  <advance width="605"/>
  <unicode hex="0064"/>
  <anchor x="657" y="742" name="quote"/>
  <outline>
    <contour>
      <point x="34" y="236" type="curve" smooth="yes"/>
      <point x="34" y="401"/>
      <point x="130" y="502"/>
      <point x="296" y="502" type="curve" smooth="yes"/>
      <point x="330" y="502"/>
      <point x="358" y="498"/>
      <point x="380" y="489" type="curve"/>
      <point x="380" y="621" type="line" smooth="yes"/>
      <point x="380" y="661"/>
      <point x="372" y="670"/>
      <point x="356" y="673" type="curve" smooth="yes"/>
      <point x="321" y="679" type="line"/>
      <point x="321" y="715" type="line"/>
      <point x="524" y="742" type="line"/>
      <point x="531" y="736" type="line"/>
      <point x="531" y="87" type="line" smooth="yes"/>
      <point x="531" y="45"/>
      <point x="539" y="41"/>
      <point x="596" y="38" type="curve"/>
      <point x="596" y="0" type="line"/>
      <point x="390" y="0" type="line"/>
      <point x="380" y="10" type="line"/>
      <point x="380" y="50" type="line"/>
      <point x="326" y="7"/>
      <point x="272" y="-12"/>
      <point x="235" y="-12" type="curve" smooth="yes"/>
      <point x="108" y="-12"/>
      <point x="34" y="90"/>
    </contour>
    <contour>
      <point x="193" y="258" type="curve" smooth="yes"/>
      <point x="193" y="128"/>
      <point x="237" y="65"/>
      <point x="306" y="65" type="curve" smooth="yes"/>
      <point x="366" y="65"/>
      <point x="380" y="112"/>
      <point x="380" y="152" type="curve" smooth="yes"/>
      <point x="380" y="358" type="line" smooth="yes"/>
      <point x="380" y="411"/>
      <point x="369" y="456"/>
      <point x="311" y="456" type="curve" smooth="yes"/>
      <point x="248" y="456"/>
      <point x="193" y="403"/>
    </contour>
  </outline>
</glyph>
<glyph name="f" format="1">
  <advance width="342"/>
  <unicode hex="0066"/>
  <outline>
    <contour>
      <point x="27" y="0" type="line"/>
      <point x="27" y="38" type="line"/>
      <point x="84" y="41"/>
      <point x="92" y="45"/>
      <point x="92" y="87" type="curve" smooth="yes"/>
      <point x="92" y="440" type="line"/>
      <point x="29" y="440" type="line"/>
      <point x="29" y="490" type="line"/>
      <point x="92" y="490" type="line"/>
      <point x="92" y="533" type="line" smooth="yes"/>
      <point x="92" y="670"/>
      <point x="162" y="742"/>
      <point x="273" y="742" type="curve" smooth="yes"/>
      <point x="383" y="742"/>
      <point x="421" y="686"/>
      <point x="421" y="649" type="curve" smooth="yes"/>
      <point x="421" y="615"/>
      <point x="380" y="591"/>
      <point x="348" y="591" type="curve" smooth="yes"/>
      <point x="324" y="591"/>
      <point x="313" y="603"/>
      <point x="303" y="621" type="curve" smooth="yes"/>
      <point x="273" y="677"/>
      <point x="261" y="696"/>
      <point x="245" y="696" type="curve" smooth="yes"/>
      <point x="233" y="696"/>
      <point x="221" y="685"/>
      <point x="221" y="659" type="curve" smooth="yes"/>
      <point x="221" y="622"/>
      <point x="243" y="538"/>
      <point x="243" y="490" type="curve"/>
      <point x="346" y="490" type="line"/>
      <point x="346" y="440" type="line"/>
      <point x="243" y="440" type="line"/>
      <point x="243" y="87" type="line" smooth="yes"/>
      <point x="243" y="45"/>
      <point x="251" y="41"/>
      <point x="322" y="38" type="curve"/>
      <point x="322" y="0" type="line"/>
    </contour>
  </outline>
</glyph>
<glyph name="h" format="2">
  <advance width="631"/>
  <unicode hex="0068"/>
  <anchor x="321" y="800" name="top"/>
  <anchor x="160" y="0" name="cedilla"/>
  <outline>
    <contour>
      <point x="406" y="200" type="line"/>
      <point x="406" y="332" type="line" smooth="yes"/>
      <point x="406" y="392"/>
      <point x="378" y="425"/>
      <point x="325" y="425" type="curve" smooth="yes"/>
      <point x="260" y="425"/>
      <point x="235" y="375"/>
      <point x="235" y="317" type="curve"/>
      <point x="185" y="316.961" type="line"/>
      <point x="185" y="392.398" type="line"/>
      <point x="235" y="433" type="line" smooth="yes"/>
      <point x="294.471" y="481.293"/>
      <point x="344" y="502"/>
      <point x="404.743" y="502" type="curve" smooth="yes"/>
      <point x="509" y="502"/>
      <point x="557" y="441"/>
      <point x="557" y="347" type="curve" smooth="yes"/>
      <point x="557" y="200" type="line"/>
    </contour>
    <contour>
      <point x="557" y="87" type="line" smooth="yes"/>
      <point x="557.11" y="45"/>
      <point x="565" y="41"/>
      <point x="622" y="38" type="curve"/>
      <point x="622" y="0" type="line"/>
      <point x="353" y="0" type="line"/>
      <point x="353" y="38" type="line"/>
      <point x="387" y="41"/>
      <point x="406.067" y="45"/>
      <point x="406" y="87" type="curve" smooth="yes"/>
      <point x="405.819" y="200" type="line"/>
      <point x="556.705" y="200" type="line"/>
    </contour>
    <contour>
      <point x="19" y="0" type="line"/>
      <point x="19" y="38" type="line"/>
      <point x="76" y="41"/>
      <point x="84" y="45"/>
      <point x="84" y="87" type="curve" smooth="yes"/>
      <point x="84" y="621" type="line" smooth="yes"/>
      <point x="84" y="661"/>
      <point x="76" y="670"/>
      <point x="60" y="673" type="curve" smooth="yes"/>
      <point x="25" y="679" type="line"/>
      <point x="25" y="715" type="line"/>
      <point x="228" y="742" type="line"/>
      <point x="235" y="736" type="line"/>
      <point x="235" y="87" type="line" smooth="yes"/>
      <point x="235" y="45"/>
      <point x="243" y="41"/>
      <point x="300" y="38" type="curve"/>
      <point x="300" y="0" type="line"/>
    </contour>
  </outline>
</glyph>
<glyph name="i" format="2">
	<unicode hex="0069"/>
	<advance width="316"/>
	<outline>
		<contour>
			<point x="26" y="0" type="line"/>
			<point x="26" y="38" type="line"/>
			<point x="83" y="41"/>
			<point x="91" y="45"/>
			<point x="91" y="87" type="curve" smooth="yes"/>
			<point x="91" y="381" type="line" smooth="yes"/>
			<point x="91" y="421"/>
			<point x="83" y="430"/>
			<point x="67" y="432" type="curve" smooth="yes"/>
			<point x="32" y="437" type="line"/>
			<point x="32" y="473" type="line"/>
			<point x="235" y="502" type="line"/>
			<point x="242" y="496" type="line"/>
			<point x="242" y="87" type="line" smooth="yes"/>
			<point x="242" y="45"/>
			<point x="250" y="41"/>
			<point x="307" y="38" type="curve"/>
			<point x="307" y="0" type="line"/>
		</contour>
		<contour>
			<point x="70" y="633" type="curve" smooth="yes"/>
			<point x="70" y="680"/>
			<point x="105" y="720"/>
			<point x="161" y="720" type="curve" smooth="yes"/>
			<point x="218" y="720"/>
			<point x="253" y="680"/>
			<point x="253" y="633" type="curve" smooth="yes"/>
			<point x="253" y="585"/>
			<point x="216" y="545"/>
			<point x="161" y="545" type="curve" smooth="yes"/>
			<point x="105" y="545"/>
			<point x="70" y="585"/>
		</contour>
	</outline>
	<anchor name="ogonek" x="180" y="20"/>
</glyph>
<glyph name="k" format="2">
  <advance width="582"/>
  <unicode hex="006B"/>
  <outline>
    <contour>
      <point x="215.2" y="272" type="line"/>
      <point x="237" y="272" type="line"/>
      <point x="371" y="460" type="line" smooth="yes"/>
      <point x="387.499" y="483.147"/>
      <point x="408" y="490"/>
      <point x="430" y="490" type="curve" smooth="yes"/>
      <point x="575" y="490" type="line"/>
      <point x="575" y="458" type="line"/>
      <point x="491" y="440"/>
      <point x="430" y="396"/>
      <point x="377" y="345" type="curve" smooth="yes"/>
      <point x="367.057" y="335.057" type="line" smooth="yes"/>
      <point x="361.471" y="329.471"/>
      <point x="359.297" y="324.497"/>
      <point x="359.425" y="320.017" type="curve" smooth="yes"/>
      <point x="359.482" y="318.03"/>
      <point x="360.525" y="314.262"/>
      <point x="362.186" y="311.678" type="curve" smooth="yes"/>
      <point x="369.923" y="299.637" type="line" smooth="yes"/>
      <point x="405.192" y="245.115"/>
      <point x="535.029" y="54.846"/>
      <point x="595" y="32" type="curve"/>
      <point x="595" y="0" type="line"/>
      <point x="505" y="0" type="line" smooth="yes"/>
      <point x="432" y="0"/>
      <point x="392" y="13"/>
      <point x="357" y="59" type="curve" smooth="yes"/>
      <point x="311" y="120"/>
      <point x="271" y="188"/>
      <point x="237" y="254" type="curve"/>
      <point x="215.2" y="254" type="line"/>
    </contour>
    <contour>
      <point x="19" y="0" type="line"/>
      <point x="19" y="38" type="line"/>
      <point x="76" y="41"/>
      <point x="84" y="45"/>
      <point x="84" y="87" type="curve" smooth="yes"/>
      <point x="84" y="621" type="line" smooth="yes"/>
      <point x="84" y="661"/>
      <point x="76" y="670"/>
      <point x="60" y="673" type="curve" smooth="yes"/>
      <point x="25" y="679" type="line"/>
      <point x="25" y="715" type="line"/>
      <point x="228" y="742" type="line"/>
      <point x="235" y="736" type="line"/>
      <point x="235" y="87" type="line" smooth="yes"/>
      <point x="235" y="45"/>
      <point x="243" y="41"/>
      <point x="300" y="38" type="curve"/>
      <point x="300" y="0" type="line"/>
    </contour>
  </outline>
</glyph>
<glyph name="n" format="2">
  <advance width="638"/>
  <unicode hex="006E"/>
  <outline>
    <contour>
      <point x="26" y="0" type="line"/>
      <point x="26" y="38" type="line"/>
      <point x="83" y="41"/>
      <point x="91" y="45"/>
      <point x="91" y="87" type="curve" smooth="yes"/>
      <point x="91" y="381" type="line" smooth="yes"/>
      <point x="91" y="421"/>
      <point x="83" y="430"/>
      <point x="67" y="432" type="curve" smooth="yes"/>
      <point x="32" y="437" type="line"/>
      <point x="32" y="473" type="line"/>
      <point x="229" y="502" type="line"/>
      <point x="242" y="433" type="line"/>
      <point x="308" y="476"/>
      <point x="355" y="502"/>
      <point x="419" y="502" type="curve" smooth="yes"/>
      <point x="516" y="502"/>
      <point x="564" y="442"/>
      <point x="564" y="348" type="curve" smooth="yes"/>
      <point x="564" y="87" type="line" smooth="yes"/>
      <point x="564" y="45"/>
      <point x="572" y="41"/>
      <point x="629" y="38" type="curve"/>
      <point x="629" y="0" type="line"/>
      <point x="360" y="0" type="line"/>
      <point x="360" y="38" type="line"/>
      <point x="394" y="41"/>
      <point x="413" y="44"/>
      <point x="413" y="80" type="curve" smooth="yes"/>
      <point x="413" y="334" type="line" smooth="yes"/>
      <point x="413" y="394"/>
      <point x="385" y="425"/>
      <point x="334" y="425" type="curve" smooth="yes"/>
      <point x="267" y="425"/>
      <point x="242" y="375"/>
      <point x="242" y="317" type="curve" smooth="yes"/>
      <point x="242" y="80" type="line" smooth="yes"/>
      <point x="242" y="44"/>
      <point x="261" y="41"/>
      <point x="295" y="38" type="curve"/>
      <point x="295" y="0" type="line"/>
    </contour>
  </outline>
</glyph>
<glyph name="q" format="2">
  <advance width="597"/>
  <unicode hex="0071"/>
  <outline>
    <contour>
      <point x="34" y="238" type="curve" smooth="yes"/>
      <point x="34" y="406"/>
      <point x="131" y="502"/>
      <point x="297" y="502" type="curve" smooth="yes"/>
      <point x="358" y="502"/>
      <point x="407" y="489"/>
      <point x="441" y="471" type="curve"/>
      <point x="484" y="502" type="line"/>
      <point x="531" y="502" type="line"/>
      <point x="531" y="-143" type="line" smooth="yes"/>
      <point x="531" y="-185"/>
      <point x="539" y="-189"/>
      <point x="596" y="-192" type="curve"/>
      <point x="596" y="-230" type="line"/>
      <point x="305" y="-230" type="line"/>
      <point x="305" y="-192" type="line"/>
      <point x="372" y="-189"/>
      <point x="380" y="-185"/>
      <point x="380" y="-143" type="curve" smooth="yes"/>
      <point x="380" y="47" type="line"/>
      <point x="328" y="1"/>
      <point x="284" y="-12"/>
      <point x="238" y="-12" type="curve" smooth="yes"/>
      <point x="111" y="-12"/>
      <point x="34" y="89"/>
    </contour>
    <contour>
      <point x="193" y="255" type="curve" smooth="yes"/>
      <point x="193" y="128"/>
      <point x="236" y="65"/>
      <point x="306" y="65" type="curve" smooth="yes"/>
      <point x="367" y="65"/>
      <point x="380" y="112"/>
      <point x="380" y="152" type="curve" smooth="yes"/>
      <point x="380" y="353" type="line" smooth="yes"/>
      <point x="380" y="405"/>
      <point x="371" y="456"/>
      <point x="311" y="456" type="curve" smooth="yes"/>
      <point x="243" y="456"/>
      <point x="193" y="391"/>
    </contour>
  </outline>
</glyph>
<glyph name="v" format="2">
  <advance width="520"/>
  <unicode hex="0076"/>
  <outline>
    <contour>
      <point x="-8" y="452" type="curve"/>
      <point x="-8" y="490" type="line"/>
      <point x="257" y="490" type="line"/>
      <point x="257" y="452" type="line"/>
      <point x="220" y="447" type="line"/>
      <point x="208" y="446"/>
      <point x="203" y="442"/>
      <point x="203" y="433" type="curve" smooth="yes"/>
      <point x="203" y="429"/>
      <point x="204" y="424"/>
      <point x="206" y="418" type="curve" smooth="yes"/>
      <point x="304" y="132" type="line"/>
      <point x="308" y="132" type="line"/>
      <point x="398" y="414" type="line"/>
      <point x="400" y="419"/>
      <point x="401" y="424"/>
      <point x="401" y="428" type="curve" smooth="yes"/>
      <point x="401" y="438"/>
      <point x="395" y="444"/>
      <point x="382" y="446" type="curve" smooth="yes"/>
      <point x="339" y="452" type="line"/>
      <point x="339" y="490" type="line"/>
      <point x="546" y="490" type="line"/>
      <point x="546" y="452" type="line"/>
      <point x="505" y="449"/>
      <point x="491" y="445"/>
      <point x="477" y="409" type="curve" smooth="yes"/>
      <point x="318" y="0" type="line"/>
      <point x="208" y="0" type="line"/>
      <point x="57" y="408" type="line" smooth="yes"/>
      <point x="45" y="440"/>
      <point x="31" y="449"/>
    </contour>
  </outline>
</glyph>
<glyph name="w" format="2">
  <advance width="774"/>
  <unicode hex="0077"/>
  <outline>
    <contour>
      <point x="-10" y="452" type="curve"/>
      <point x="-10" y="490" type="line"/>
      <point x="250" y="490" type="line"/>
      <point x="250" y="452" type="line"/>
      <point x="222" y="449" type="line" smooth="yes"/>
      <point x="207.54" y="447.554"/>
      <point x="201.443" y="442.971"/>
      <point x="201.443" y="432.229" type="curve" smooth="yes"/>
      <point x="201.443" y="428.113"/>
      <point x="202.338" y="423.094"/>
      <point x="204" y="417" type="curve" smooth="yes"/>
      <point x="280" y="142" type="line"/>
      <point x="283" y="142" type="line"/>
      <point x="376" y="490" type="line"/>
      <point x="481" y="490" type="line"/>
      <point x="584" y="142" type="line"/>
      <point x="588" y="142" type="line"/>
      <point x="655" y="413" type="line" smooth="yes"/>
      <point x="656.098" y="417.44"/>
      <point x="657.144" y="421.584"/>
      <point x="657.144" y="426.221" type="curve" smooth="yes"/>
      <point x="657.144" y="436.779"/>
      <point x="651.72" y="443.713"/>
      <point x="638" y="446" type="curve"/>
      <point x="595" y="452" type="line"/>
      <point x="595" y="490" type="line"/>
      <point x="802" y="490" type="line"/>
      <point x="802" y="452" type="line"/>
      <point x="751" y="448"/>
      <point x="741.767" y="441.787"/>
      <point x="729" y="402" type="curve" smooth="yes"/>
      <point x="600" y="0" type="line"/>
      <point x="490" y="0" type="line"/>
      <point x="390" y="307" type="line"/>
      <point x="386" y="307" type="line"/>
      <point x="295" y="0" type="line"/>
      <point x="185" y="0" type="line"/>
      <point x="53" y="409" type="line" smooth="yes"/>
      <point x="41.926" y="443.313"/>
      <point x="30" y="448"/>
    </contour>
  </outline>
</glyph>
<glyph name="y" format="2">
  <advance width="524"/>
  <unicode hex="0079"/>
  <outline>
    <contour>
      <point x="-12" y="452" type="curve"/>
      <point x="-12" y="490" type="line"/>
      <point x="268" y="490" type="line"/>
      <point x="268" y="452" type="line"/>
      <point x="230" y="446" type="line" smooth="yes"/>
      <point x="219" y="444"/>
      <point x="214" y="439"/>
      <point x="214" y="430" type="curve" smooth="yes"/>
      <point x="214" y="425"/>
      <point x="215" y="420"/>
      <point x="218" y="413" type="curve"/>
      <point x="319" y="134" type="line"/>
      <point x="321" y="134" type="line"/>
      <point x="412" y="416" type="line"/>
      <point x="414" y="421"/>
      <point x="414" y="427"/>
      <point x="414" y="428" type="curve"/>
      <point x="414" y="439"/>
      <point x="408" y="444"/>
      <point x="397" y="446" type="curve"/>
      <point x="356" y="452" type="line"/>
      <point x="356" y="490" type="line"/>
      <point x="557" y="490" type="line"/>
      <point x="557" y="452" type="line"/>
      <point x="509" y="452"/>
      <point x="500" y="436"/>
      <point x="479" y="385" type="curve" smooth="yes"/>
      <point x="302" y="-60" type="line"/>
      <point x="248" y="-204"/>
      <point x="202" y="-242"/>
      <point x="142" y="-242" type="curve" smooth="yes"/>
      <point x="95" y="-242"/>
      <point x="52" y="-218"/>
      <point x="52" y="-177" type="curve" smooth="yes"/>
      <point x="52" y="-141"/>
      <point x="84" y="-98"/>
      <point x="121" y="-98" type="curve" smooth="yes"/>
      <point x="133" y="-98"/>
      <point x="143" y="-103"/>
      <point x="155" y="-114" type="curve" smooth="yes"/>
      <point x="172" y="-129"/>
      <point x="186" y="-134"/>
      <point x="197" y="-134" type="curve" smooth="yes"/>
      <point x="227" y="-134"/>
      <point x="238" y="-88"/>
      <point x="238" y="-62" type="curve" smooth="yes"/>
      <point x="238" y="-48"/>
      <point x="235" y="-32"/>
      <point x="230" y="-19" type="curve" smooth="yes"/>
      <point x="59" y="406" type="line" smooth="yes"/>
      <point x="44" y="442"/>
      <point x="31" y="452"/>
    </contour>
  </outline>
</glyph>
<glyph name="braceleft" format="2">
  <advance width="365"/>
  <unicode hex="007B"/>
  <outline>
    <contour>
      <point x="73" y="265" type="curve"/>
      <point x="73" y="299" type="line"/>
      <point x="147" y="299"/>
      <point x="162" y="322"/>
      <point x="162" y="363" type="curve" smooth="yes"/>
      <point x="162" y="377"/>
      <point x="162" y="393"/>
      <point x="160" y="411" type="curve" smooth="yes"/>
      <point x="149" y="505" type="line" smooth="yes"/>
      <point x="147" y="521"/>
      <point x="146" y="538"/>
      <point x="146" y="553" type="curve" smooth="yes"/>
      <point x="146" y="625"/>
      <point x="168" y="692"/>
      <point x="284" y="692" type="curve" smooth="yes"/>
      <point x="325" y="692" type="line"/>
      <point x="325" y="658" type="line"/>
      <point x="260" y="655"/>
      <point x="243" y="624"/>
      <point x="243" y="586" type="curve" smooth="yes"/>
      <point x="243" y="570"/>
      <point x="246" y="544"/>
      <point x="247" y="539" type="curve"/>
      <point x="256" y="462" type="line" smooth="yes"/>
      <point x="259" y="437"/>
      <point x="262" y="412"/>
      <point x="262" y="391" type="curve" smooth="yes"/>
      <point x="262" y="340"/>
      <point x="244" y="301"/>
      <point x="162" y="285" type="curve"/>
      <point x="162" y="279" type="line"/>
      <point x="244" y="263"/>
      <point x="262" y="224"/>
      <point x="262" y="173" type="curve" smooth="yes"/>
      <point x="262" y="152"/>
      <point x="259" y="127"/>
      <point x="256" y="102" type="curve" smooth="yes"/>
      <point x="247" y="25" type="line" smooth="yes"/>
      <point x="245" y="11"/>
      <point x="243" y="-8"/>
      <point x="243" y="-21" type="curve" smooth="yes"/>
      <point x="243" y="-60"/>
      <point x="260" y="-91"/>
      <point x="325" y="-94" type="curve"/>
      <point x="325" y="-128" type="line"/>
      <point x="284" y="-128" type="line" smooth="yes"/>
      <point x="168" y="-128"/>
      <point x="146" y="-61"/>
      <point x="146" y="11" type="curve" smooth="yes"/>
      <point x="146" y="26"/>
      <point x="147" y="43"/>
      <point x="149" y="59" type="curve" smooth="yes"/>
      <point x="160" y="153" type="line" smooth="yes"/>
      <point x="161" y="163"/>
      <point x="162" y="173"/>
      <point x="162" y="184" type="curve" smooth="yes"/>
      <point x="162" y="235"/>
      <point x="139" y="265"/>
    </contour>
  </outline>
</glyph>
<glyph name="bar" format="1">
  <advance width="284"/>
  <unicode hex="007C"/>
  <outline>
    <contour>
      <point x="94" y="-250" type="line"/>
      <point x="94" y="750" type="line"/>
      <point x="190" y="750" type="line"/>
      <point x="190" y="-250" type="line"/>
    </contour>
  </outline>
</glyph>
<glyph name="braceright" format="1">
  <advance width="365"/>
  <unicode hex="007D"/>
  <outline>
    <contour>
      <point x="40" y="-94" type="line"/>
      <point x="121" y="-90"/>
      <point x="125" y="-43"/>
      <point x="118" y="25" type="curve" smooth="yes"/>
      <point x="110" y="102" type="line" smooth="yes"/>
      <point x="102" y="182"/>
      <point x="83" y="255"/>
      <point x="201" y="279" type="curve"/>
      <point x="201" y="285" type="line"/>
      <point x="83" y="309"/>
      <point x="102" y="382"/>
      <point x="110" y="462" type="curve" smooth="yes"/>
      <point x="118" y="539" type="line" smooth="yes"/>
      <point x="125" y="607"/>
      <point x="121" y="654"/>
      <point x="40" y="658" type="curve"/>
      <point x="40" y="692" type="line"/>
      <point x="81" y="692" type="line" smooth="yes"/>
      <point x="223" y="692"/>
      <point x="224" y="588"/>
      <point x="215" y="505" type="curve" smooth="yes"/>
      <point x="205" y="411" type="line" smooth="yes"/>
      <point x="197" y="340"/>
      <point x="192" y="299"/>
      <point x="291" y="299" type="curve"/>
      <point x="291" y="265" type="line"/>
      <point x="214" y="265"/>
      <point x="197" y="224"/>
      <point x="205" y="153" type="curve" smooth="yes"/>
      <point x="215" y="59" type="line" smooth="yes"/>
      <point x="224" y="-24"/>
      <point x="223" y="-128"/>
      <point x="81" y="-128" type="curve" smooth="yes"/>
      <point x="40" y="-128" type="line"/>
    </contour>
  </outline>
</glyph>
<glyph name="asciitilde" format="2">
  <advance width="600"/>
  <unicode hex="007E"/>
  <outline>
    <contour>
      <point x="50" y="186" type="line"/>
      <point x="74" y="243"/>
      <point x="113" y="324"/>
      <point x="205" y="324" type="curve" smooth="yes"/>
      <point x="241" y="324"/>
      <point x="277" y="310"/>
      <point x="311" y="296" type="curve" smooth="yes"/>
      <point x="345" y="281"/>
      <point x="379" y="267"/>
      <point x="410" y="267" type="curve" smooth="yes"/>
      <point x="445" y="267"/>
      <point x="468" y="285"/>
      <point x="497" y="339" type="curve"/>
      <point x="551" y="311" type="line"/>
      <point x="523" y="245"/>
      <point x="482" y="178"/>
      <point x="395" y="178" type="curve" smooth="yes"/>
      <point x="352" y="178"/>
      <point x="318" y="192"/>
      <point x="287" y="207" type="curve"/>
      <point x="255" y="221"/>
      <point x="226" y="235"/>
      <point x="189" y="235" type="curve" smooth="yes"/>
      <point x="155" y="235"/>
      <point x="130" y="209"/>
      <point x="106" y="158" type="curve"/>
    </contour>
  </outline>
</glyph>
<glyph name="exclamdown" format="1">
  <advance width="278"/>
  <unicode hex="00A1"/>
  <outline>
    <contour>
      <point x="47" y="409" type="curve" smooth="yes"/>
      <point x="47" y="464"/>
      <point x="84" y="502"/>
      <point x="139" y="502" type="curve" smooth="yes"/>
      <point x="195" y="502"/>
      <point x="229" y="464"/>
      <point x="231" y="409" type="curve" smooth="yes"/>
      <point x="231" y="355"/>
      <point x="195" y="316"/>
      <point x="139" y="316" type="curve" smooth="yes"/>
      <point x="84" y="316"/>
      <point x="47" y="355"/>
    </contour>
    <contour>
      <point x="56" y="-102" type="curve" smooth="yes"/>
      <point x="107" y="271" type="line"/>
      <point x="171" y="271" type="line"/>
      <point x="221" y="-102" type="line" smooth="yes"/>
      <point x="232" y="-181"/>
      <point x="225" y="-217"/>
      <point x="139" y="-217" type="curve" smooth="yes"/>
      <point x="52" y="-217"/>
      <point x="45" y="-181"/>
    </contour>
  </outline>
</glyph>
<glyph name="cent" format="1">
  <advance width="560"/>
  <unicode hex="00A2"/>
  <outline>
    <contour>
      <point x="39" y="339" type="curve" smooth="yes"/>
      <point x="39" y="513"/>
      <point x="137" y="594"/>
      <point x="296" y="599" type="curve"/>
      <point x="296" y="678" type="line"/>
      <point x="350" y="678" type="line"/>
      <point x="350" y="599" type="line"/>
      <point x="418" y="598"/>
      <point x="539" y="568"/>
      <point x="539" y="495" type="curve" smooth="yes"/>
      <point x="539" y="455"/>
      <point x="496" y="436"/>
      <point x="464" y="436" type="curve" smooth="yes"/>
      <point x="440" y="436"/>
      <point x="428" y="448"/>
      <point x="418" y="473" type="curve" smooth="yes"/>
      <point x="396" y="531"/>
      <point x="374" y="550"/>
      <point x="350" y="553" type="curve"/>
      <point x="350" y="146" type="line"/>
      <point x="408" y="146"/>
      <point x="465" y="163"/>
      <point x="509" y="243" type="curve"/>
      <point x="546" y="221" type="line"/>
      <point x="508" y="120"/>
      <point x="414" y="88"/>
      <point x="350" y="87" type="curve"/>
      <point x="350" y="-15" type="line"/>
      <point x="294" y="-15" type="line"/>
      <point x="294" y="87" type="line"/>
      <point x="97" y="86"/>
      <point x="39" y="208"/>
    </contour>
    <contour>
      <point x="192" y="368" type="curve" smooth="yes"/>
      <point x="192" y="271"/>
      <point x="215" y="169"/>
      <point x="294" y="150" type="curve"/>
      <point x="294" y="553" type="line"/>
      <point x="250" y="549"/>
      <point x="192" y="518"/>
    </contour>
  </outline>
</glyph>
<glyph name="currency" format="2">
  <advance width="560"/>
  <unicode hex="00A4"/>
  <outline>
    <contour>
      <point x="21" y="126" type="curve" smooth="yes"/>
      <point x="21" y="139"/>
      <point x="29" y="152"/>
      <point x="40" y="161" type="curve" smooth="yes"/>
      <point x="89" y="200" type="line"/>
      <point x="61" y="232"/>
      <point x="46" y="285"/>
      <point x="46" y="334" type="curve" smooth="yes"/>
      <point x="46" y="383"/>
      <point x="61" y="436"/>
      <point x="89" y="468" type="curve"/>
      <point x="40" y="507" type="line" smooth="yes"/>
      <point x="29" y="516"/>
      <point x="21" y="529"/>
      <point x="21" y="542" type="curve" smooth="yes"/>
      <point x="21" y="568"/>
      <point x="50" y="596"/>
      <point x="76" y="596" type="curve" smooth="yes"/>
      <point x="90" y="596"/>
      <point x="104" y="589"/>
      <point x="112" y="578" type="curve"/>
      <point x="150" y="529" type="line"/>
      <point x="183" y="557"/>
      <point x="236" y="570"/>
      <point x="280" y="570" type="curve" smooth="yes"/>
      <point x="324" y="570"/>
      <point x="377" y="557"/>
      <point x="410" y="529" type="curve"/>
      <point x="448" y="578" type="line"/>
      <point x="456" y="589"/>
      <point x="470" y="596"/>
      <point x="484" y="596" type="curve" smooth="yes"/>
      <point x="510" y="596"/>
      <point x="539" y="568"/>
      <point x="539" y="542" type="curve" smooth="yes"/>
      <point x="539" y="529"/>
      <point x="531" y="516"/>
      <point x="520" y="507" type="curve" smooth="yes"/>
      <point x="471" y="468" type="line"/>
      <point x="499" y="436"/>
      <point x="514" y="383"/>
      <point x="514" y="334" type="curve" smooth="yes"/>
      <point x="514" y="285"/>
      <point x="499" y="232"/>
      <point x="471" y="200" type="curve"/>
      <point x="520" y="161" type="line" smooth="yes"/>
      <point x="531" y="152"/>
      <point x="539" y="139"/>
      <point x="539" y="126" type="curve" smooth="yes"/>
      <point x="539" y="100"/>
      <point x="510" y="72"/>
      <point x="484" y="72" type="curve" smooth="yes"/>
      <point x="470" y="72"/>
      <point x="456" y="79"/>
      <point x="448" y="90" type="curve"/>
      <point x="410" y="139" type="line"/>
      <point x="377" y="111"/>
      <point x="324" y="98"/>
      <point x="280" y="98" type="curve" smooth="yes"/>
      <point x="236" y="98"/>
      <point x="183" y="111"/>
      <point x="150" y="139" type="curve"/>
      <point x="112" y="90" type="line"/>
      <point x="104" y="79"/>
      <point x="90" y="72"/>
      <point x="76" y="72" type="curve" smooth="yes"/>
      <point x="50" y="72"/>
      <point x="21" y="100"/>
    </contour>
    <contour>
      <point x="148" y="334" type="curve" smooth="yes"/>
      <point x="148" y="251"/>
      <point x="205" y="187"/>
      <point x="280" y="187" type="curve" smooth="yes"/>
      <point x="355" y="187"/>
      <point x="412" y="251"/>
      <point x="412" y="334" type="curve" smooth="yes"/>
      <point x="412" y="417"/>
      <point x="355" y="481"/>
      <point x="280" y="481" type="curve" smooth="yes"/>
      <point x="205" y="481"/>
      <point x="148" y="417"/>
    </contour>
  </outline>
</glyph>
<glyph name="yen" format="1">
  <advance width="560"/>
  <unicode hex="00A5"/>
  <outline>
    <contour>
      <point x="3" y="632" type="line"/>
      <point x="3" y="668" type="line"/>
      <point x="285" y="668" type="line"/>
      <point x="285" y="629" type="line"/>
      <point x="238" y="624" type="line" smooth="yes"/>
      <point x="219" y="622"/>
      <point x="223" y="609"/>
      <point x="229" y="595" type="curve" smooth="yes"/>
      <point x="320" y="386" type="line"/>
      <point x="322" y="386" type="line"/>
      <point x="361" y="474"/>
      <point x="397" y="560"/>
      <point x="408" y="592" type="curve" smooth="yes"/>
      <point x="415" y="615"/>
      <point x="407" y="624"/>
      <point x="389" y="626" type="curve" smooth="yes"/>
      <point x="341" y="632" type="line"/>
      <point x="341" y="668" type="line"/>
      <point x="562" y="668" type="line"/>
      <point x="562" y="632" type="line"/>
      <point x="529" y="628" type="line" smooth="yes"/>
      <point x="507" y="625"/>
      <point x="493" y="612"/>
      <point x="479" y="586" type="curve" smooth="yes"/>
      <point x="462" y="555"/>
      <point x="423" y="481"/>
      <point x="386" y="397" type="curve"/>
      <point x="513" y="397" type="line"/>
      <point x="513" y="349" type="line"/>
      <point x="366" y="349" type="line"/>
      <point x="359" y="327" type="line" smooth="yes"/>
      <point x="355" y="314"/>
      <point x="355" y="282"/>
      <point x="355" y="262" type="curve"/>
      <point x="513" y="262" type="line"/>
      <point x="513" y="214" type="line"/>
      <point x="355" y="214" type="line"/>
      <point x="355" y="77" type="line" smooth="yes"/>
      <point x="355" y="61"/>
      <point x="357" y="44"/>
      <point x="377" y="42" type="curve" smooth="yes"/>
      <point x="435" y="36" type="line"/>
      <point x="435" y="0" type="line"/>
      <point x="128" y="0" type="line"/>
      <point x="128" y="36" type="line"/>
      <point x="185" y="42" type="line" smooth="yes"/>
      <point x="206" y="44"/>
      <point x="208" y="61"/>
      <point x="208" y="77" type="curve" smooth="yes"/>
      <point x="208" y="214" type="line"/>
      <point x="51" y="214" type="line"/>
      <point x="51" y="262" type="line"/>
      <point x="208" y="262" type="line"/>
      <point x="208" y="291"/>
      <point x="208" y="311"/>
      <point x="202" y="325" type="curve" smooth="yes"/>
      <point x="191" y="349" type="line"/>
      <point x="51" y="349" type="line"/>
      <point x="51" y="397" type="line"/>
      <point x="170" y="397" type="line"/>
      <point x="127" y="484"/>
      <point x="93" y="553"/>
      <point x="72" y="592" type="curve" smooth="yes"/>
      <point x="60" y="614"/>
      <point x="47" y="625"/>
      <point x="30" y="628" type="curve" smooth="yes"/>
    </contour>
  </outline>
</glyph>
<glyph name="section" format="1">
  <advance width="566"/>
  <unicode hex="00A7"/>
  <outline>
    <contour>
      <point x="35" y="370" type="curve" smooth="yes"/>
      <point x="35" y="438"/>
      <point x="71" y="510"/>
      <point x="129" y="553" type="curve"/>
      <point x="128" y="617"/>
      <point x="172" y="707"/>
      <point x="307" y="707" type="curve" smooth="yes"/>
      <point x="382" y="707"/>
      <point x="455" y="669"/>
      <point x="455" y="622" type="curve" smooth="yes"/>
      <point x="455" y="589"/>
      <point x="417" y="566"/>
      <point x="392" y="566" type="curve" smooth="yes"/>
      <point x="372" y="566"/>
      <point x="363" y="577"/>
      <point x="354" y="591" type="curve" smooth="yes"/>
      <point x="321" y="642"/>
      <point x="300" y="659"/>
      <point x="270" y="659" type="curve" smooth="yes"/>
      <point x="240" y="659"/>
      <point x="220" y="635"/>
      <point x="220" y="610" type="curve" smooth="yes"/>
      <point x="220" y="583"/>
      <point x="226" y="546"/>
      <point x="328" y="492" type="curve" smooth="yes"/>
      <point x="476" y="414"/>
      <point x="531" y="358"/>
      <point x="531" y="240" type="curve" smooth="yes"/>
      <point x="531" y="174"/>
      <point x="498" y="108"/>
      <point x="455" y="53" type="curve"/>
      <point x="456" y="-43"/>
      <point x="396" y="-115"/>
      <point x="270" y="-115" type="curve" smooth="yes"/>
      <point x="171" y="-115"/>
      <point x="102" y="-69"/>
      <point x="101" y="-20" type="curve" smooth="yes"/>
      <point x="101" y="26"/>
      <point x="138" y="45"/>
      <point x="165" y="45" type="curve" smooth="yes"/>
      <point x="187" y="45"/>
      <point x="199" y="38"/>
      <point x="211" y="14" type="curve" smooth="yes"/>
      <point x="244" y="-53"/>
      <point x="275" y="-67"/>
      <point x="307" y="-67" type="curve" smooth="yes"/>
      <point x="332" y="-67"/>
      <point x="359" y="-48"/>
      <point x="359" y="-14" type="curve" smooth="yes"/>
      <point x="359" y="22"/>
      <point x="342" y="69"/>
      <point x="218" y="134" type="curve" smooth="yes"/>
      <point x="77" y="208"/>
      <point x="35" y="277"/>
    </contour>
    <contour>
      <point x="100" y="428" type="curve" smooth="yes"/>
      <point x="100" y="369"/>
      <point x="143" y="321"/>
      <point x="266" y="255" type="curve" smooth="yes"/>
      <point x="344" y="213"/>
      <point x="409" y="165"/>
      <point x="436" y="115" type="curve"/>
      <point x="449" y="128"/>
      <point x="466" y="150"/>
      <point x="466" y="183" type="curve" smooth="yes"/>
      <point x="466" y="240"/>
      <point x="421" y="296"/>
      <point x="316" y="353" type="curve" smooth="yes"/>
      <point x="241" y="394"/>
      <point x="172" y="435"/>
      <point x="143" y="496" type="curve"/>
      <point x="123" y="486"/>
      <point x="100" y="457"/>
    </contour>
  </outline>
</glyph>
<glyph name="copyright" format="2">
	<unicode hex="00A9"/>
	<advance width="800"/>
	<outline>
		<contour>
			<point x="36" y="346" type="curve" smooth="yes"/>
			<point x="36" y="546"/>
			<point x="199" y="707"/>
			<point x="400" y="707" type="curve" smooth="yes"/>
			<point x="601" y="707"/>
			<point x="764" y="546"/>
			<point x="764" y="346" type="curve" smooth="yes"/>
			<point x="764" y="146"/>
			<point x="601" y="-15"/>
			<point x="400" y="-15" type="curve" smooth="yes"/>
			<point x="199" y="-15"/>
			<point x="36" y="146"/>
		</contour>
		<contour>
			<point x="119" y="346" type="curve" smooth="yes"/>
			<point x="119" y="178"/>
			<point x="245" y="48"/>
			<point x="400" y="48" type="curve" smooth="yes"/>
			<point x="555" y="48"/>
			<point x="681" y="178"/>
			<point x="681" y="346" type="curve" smooth="yes"/>
			<point x="681" y="514"/>
			<point x="555" y="644"/>
			<point x="400" y="644" type="curve" smooth="yes"/>
			<point x="245" y="644"/>
			<point x="119" y="514"/>
		</contour>
		<contour>
			<point x="207" y="348" type="curve" smooth="yes"/>
			<point x="207" y="458"/>
			<point x="270" y="548"/>
			<point x="420" y="548" type="curve" smooth="yes"/>
			<point x="475" y="548"/>
			<point x="526" y="538"/>
			<point x="558" y="519" type="curve"/>
			<point x="558" y="415" type="line"/>
			<point x="531" y="415" type="line"/>
			<point x="516" y="462"/>
			<point x="487" y="516"/>
			<point x="427" y="516" type="curve" smooth="yes"/>
			<point x="358" y="516"/>
			<point x="327" y="443"/>
			<point x="327" y="354" type="curve" smooth="yes"/>
			<point x="327" y="262"/>
			<point x="356" y="183"/>
			<point x="433" y="183" type="curve" smooth="yes"/>
			<point x="490" y="183"/>
			<point x="519" y="238"/>
			<point x="541" y="290" type="curve"/>
			<point x="568" y="290" type="line"/>
			<point x="557" y="182" type="line"/>
			<point x="525" y="162"/>
			<point x="471" y="151"/>
			<point x="419" y="151" type="curve" smooth="yes"/>
			<point x="263" y="151"/>
			<point x="207" y="236"/>
		</contour>
	</outline>
</glyph>
<glyph name="guillemotleft" format="2">
  <advance width="487"/>
  <unicode hex="00AB"/>
  <outline>
    <contour>
      <point x="49" y="231" type="curve" smooth="yes"/>
      <point x="43.13" y="237.848"/>
      <point x="40.371" y="244.457"/>
      <point x="40.371" y="250.826" type="curve" smooth="yes"/>
      <point x="40.371" y="257.479"/>
      <point x="43.381" y="263.87"/>
      <point x="49" y="270" type="curve" smooth="yes"/>
      <point x="223" y="464" type="line"/>
      <point x="252" y="443" type="line"/>
      <point x="238.211" y="412.454"/>
      <point x="184.824" y="294.193"/>
      <point x="173" y="268" type="curve" smooth="yes"/>
      <point x="170.387" y="262.252"/>
      <point x="168.867" y="256.503"/>
      <point x="168.867" y="250.326" type="curve" smooth="yes"/>
      <point x="168.867" y="244.684"/>
      <point x="170.136" y="238.684"/>
      <point x="173" y="232" type="curve" smooth="yes"/>
      <point x="252" y="58" type="line"/>
      <point x="223" y="37" type="line"/>
      <point x="190.485" y="73.253"/>
      <point x="79.468" y="197.03"/>
    </contour>
    <contour>
      <point x="249" y="231" type="curve" smooth="yes"/>
      <point x="243.13" y="237.848"/>
      <point x="240.371" y="244.457"/>
      <point x="240.371" y="250.826" type="curve" smooth="yes"/>
      <point x="240.371" y="257.479"/>
      <point x="243.381" y="263.87"/>
      <point x="249" y="270" type="curve" smooth="yes"/>
      <point x="423" y="464" type="line"/>
      <point x="452" y="443" type="line"/>
      <point x="438.211" y="412.454"/>
      <point x="384.824" y="294.193"/>
      <point x="373" y="268" type="curve" smooth="yes"/>
      <point x="370.387" y="262.252"/>
      <point x="368.867" y="256.503"/>
      <point x="368.867" y="250.326" type="curve" smooth="yes"/>
      <point x="368.867" y="244.684"/>
      <point x="370.136" y="238.684"/>
      <point x="373" y="232" type="curve" smooth="yes"/>
      <point x="452" y="58" type="line"/>
      <point x="423" y="37" type="line"/>
      <point x="390.485" y="73.253"/>
      <point x="279.468" y="197.03"/>
    </contour>
  </outline>
</glyph>
<glyph name="registered" format="1">
  <advance width="800"/>
  <unicode hex="00AE"/>
  <outline>
    <contour>
      <point x="36" y="346" type="curve" smooth="yes"/>
      <point x="36" y="546"/>
      <point x="199" y="707"/>
      <point x="400" y="707" type="curve" smooth="yes"/>
      <point x="601" y="707"/>
      <point x="764" y="546"/>
      <point x="764" y="346" type="curve" smooth="yes"/>
      <point x="764" y="146"/>
      <point x="601" y="-15"/>
      <point x="400" y="-15" type="curve" smooth="yes"/>
      <point x="199" y="-15"/>
      <point x="36" y="146"/>
    </contour>
    <contour>
      <point x="119" y="346" type="curve" smooth="yes"/>
      <point x="119" y="178"/>
      <point x="245" y="48"/>
      <point x="400" y="48" type="curve" smooth="yes"/>
      <point x="555" y="48"/>
      <point x="681" y="178"/>
      <point x="681" y="346" type="curve" smooth="yes"/>
      <point x="681" y="514"/>
      <point x="555" y="644"/>
      <point x="400" y="644" type="curve" smooth="yes"/>
      <point x="245" y="644"/>
      <point x="119" y="514"/>
    </contour>
    <contour>
      <point x="221" y="159" type="line"/>
      <point x="221" y="185" type="line"/>
      <point x="248" y="189" type="line" smooth="yes"/>
      <point x="264" y="191"/>
      <point x="267" y="201"/>
      <point x="267" y="219" type="curve" smooth="yes"/>
      <point x="267" y="481" type="line" smooth="yes"/>
      <point x="267" y="498"/>
      <point x="264" y="508"/>
      <point x="248" y="510" type="curve" smooth="yes"/>
      <point x="221" y="514" type="line"/>
      <point x="221" y="540" type="line"/>
      <point x="429" y="540" type="line" smooth="yes"/>
      <point x="528" y="540"/>
      <point x="561" y="500"/>
      <point x="561" y="448" type="curve" smooth="yes"/>
      <point x="561" y="396"/>
      <point x="525" y="361"/>
      <point x="472" y="351" type="curve"/>
      <point x="472" y="349" type="line"/>
      <point x="527" y="334"/>
      <point x="533" y="297"/>
      <point x="544" y="253" type="curve" smooth="yes"/>
      <point x="550" y="228"/>
      <point x="559" y="205"/>
      <point x="571" y="196" type="curve" smooth="yes"/>
      <point x="577" y="191"/>
      <point x="585" y="188"/>
      <point x="595" y="185" type="curve"/>
      <point x="595" y="159" type="line"/>
      <point x="540" y="159" type="line" smooth="yes"/>
      <point x="482" y="159"/>
      <point x="464" y="174"/>
      <point x="451" y="204" type="curve" smooth="yes"/>
      <point x="440" y="230"/>
      <point x="433" y="274"/>
      <point x="427" y="295" type="curve" smooth="yes"/>
      <point x="421" y="316"/>
      <point x="412" y="331"/>
      <point x="385" y="331" type="curve" smooth="yes"/>
      <point x="367" y="331" type="line"/>
      <point x="367" y="219" type="line" smooth="yes"/>
      <point x="367" y="201"/>
      <point x="371" y="191"/>
      <point x="387" y="189" type="curve" smooth="yes"/>
      <point x="414" y="185" type="line"/>
      <point x="414" y="159" type="line"/>
    </contour>
    <contour>
      <point x="367" y="363" type="line"/>
      <point x="391" y="363" type="line" smooth="yes"/>
      <point x="416" y="363"/>
      <point x="431" y="370"/>
      <point x="441" y="382" type="curve" smooth="yes"/>
      <point x="451" y="395"/>
      <point x="456" y="413"/>
      <point x="456" y="437" type="curve" smooth="yes"/>
      <point x="456" y="488"/>
      <point x="429" y="508"/>
      <point x="398" y="508" type="curve" smooth="yes"/>
      <point x="371" y="508"/>
      <point x="367" y="503"/>
      <point x="367" y="488" type="curve" smooth="yes"/>
    </contour>
  </outline>
</glyph>
<glyph name="macron" format="2">
  <advance width="430"/>
  <unicode hex="00AF"/>
  <anchor x="216" y="724" name="top"/>
  <outline>
    <contour>
      <point x="215.5" y="674" type="line"/>
      <point x="372" y="674" type="line"/>
      <point x="372" y="587" type="line"/>
      <point x="215.5" y="587" type="line"/>
    </contour>
    <contour>
      <point x="215.5" y="587" type="line"/>
      <point x="60" y="587" type="line"/>
      <point x="60" y="674" type="line"/>
      <point x="215.5" y="674" type="line"/>
    </contour>
  </outline>
</glyph>
<glyph name="degree" format="2">
  <advance width="396"/>
  <unicode hex="00B0"/>
  <outline>
    <contour>
      <point x="35" y="520" type="curve"/>
      <point x="34" y="610"/>
      <point x="107" y="680"/>
      <point x="198" y="680" type="curve" smooth="yes"/>
      <point x="288" y="680"/>
      <point x="361" y="610"/>
      <point x="361" y="520" type="curve" smooth="yes"/>
      <point x="361" y="430"/>
      <point x="288" y="360"/>
      <point x="198" y="360" type="curve" smooth="yes"/>
      <point x="107" y="360"/>
      <point x="35" y="430"/>
    </contour>
    <contour>
      <point x="112" y="521" type="curve"/>
      <point x="112" y="461"/>
      <point x="150" y="418"/>
      <point x="198" y="418" type="curve" smooth="yes"/>
      <point x="245" y="418"/>
      <point x="284" y="461"/>
      <point x="284" y="521" type="curve" smooth="yes"/>
      <point x="284" y="579"/>
      <point x="245" y="622"/>
      <point x="197" y="622" type="curve" smooth="yes"/>
      <point x="150" y="622"/>
      <point x="111" y="579"/>
    </contour>
  </outline>
</glyph>
<glyph name="plusminus" format="2">
	<unicode hex="00B1"/>
	<advance width="600"/>
	<outline>
		<contour>
			<point x="58" y="0" type="line"/>
			<point x="58" y="80" type="line"/>
			<point x="542" y="80" type="line"/>
			<point x="542" y="0" type="line"/>
		</contour>
		<contour>
			<point x="58" y="298" type="line"/>
			<point x="58" y="378" type="line"/>
			<point x="253" y="378" type="line"/>
			<point x="253" y="549" type="line"/>
			<point x="349" y="549" type="line"/>
			<point x="349" y="378" type="line"/>
			<point x="542" y="378" type="line"/>
			<point x="542" y="298" type="line"/>
			<point x="349" y="298" type="line"/>
			<point x="349" y="129" type="line"/>
			<point x="253" y="129" type="line"/>
			<point x="253" y="298" type="line"/>
		</contour>
	</outline>
</glyph>
<glyph name="twosuperior" format="2">
	<unicode hex="00B2"/>
	<advance width="380"/>
	<outline>
		<contour>
			<point x="29" y="282" type="line"/>
			<point x="32" y="340"/>
			<point x="84" y="393"/>
			<point x="154" y="446" type="curve" smooth="yes"/>
			<point x="221" y="497"/>
			<point x="235" y="542"/>
			<point x="235" y="581" type="curve" smooth="yes"/>
			<point x="235" y="616"/>
			<point x="223" y="642"/>
			<point x="201" y="642" type="curve" smooth="yes"/>
			<point x="178" y="642"/>
			<point x="164" y="616"/>
			<point x="152" y="564" type="curve" smooth="yes"/>
			<point x="146" y="539"/>
			<point x="133" y="528"/>
			<point x="109" y="528" type="curve" smooth="yes"/>
			<point x="83" y="528"/>
			<point x="43" y="545"/>
			<point x="43" y="581" type="curve" smooth="yes"/>
			<point x="43" y="632"/>
			<point x="105" y="680"/>
			<point x="202" y="680" type="curve" smooth="yes"/>
			<point x="296" y="680"/>
			<point x="361" y="643"/>
			<point x="361" y="561" type="curve" smooth="yes"/>
			<point x="361" y="489"/>
			<point x="306" y="457"/>
			<point x="251" y="434" type="curve" smooth="yes"/>
			<point x="196" y="412"/>
			<point x="152" y="386"/>
			<point x="138" y="354" type="curve"/>
			<point x="306" y="354" type="line" smooth="yes"/>
			<point x="328" y="354"/>
			<point x="338" y="358"/>
			<point x="354" y="385" type="curve"/>
			<point x="382" y="377" type="line"/>
			<point x="351" y="272" type="line"/>
			<point x="40" y="272" type="line"/>
		</contour>
	</outline>
</glyph>
<glyph name="uni00B2" format="1">
  <advance width="402"/>
  <unicode hex="00B2"/>
  <outline>
    <contour>
      <point x="29" y="418" type="line"/>
      <point x="32" y="476"/>
      <point x="84" y="529"/>
      <point x="154" y="582" type="curve" smooth="yes"/>
      <point x="221" y="633"/>
      <point x="235" y="678"/>
      <point x="235" y="717" type="curve" smooth="yes"/>
      <point x="235" y="752"/>
      <point x="223" y="778"/>
      <point x="201" y="778" type="curve" smooth="yes"/>
      <point x="178" y="778"/>
      <point x="164" y="752"/>
      <point x="152" y="700" type="curve" smooth="yes"/>
      <point x="146" y="675"/>
      <point x="133" y="664"/>
      <point x="109" y="664" type="curve" smooth="yes"/>
      <point x="83" y="664"/>
      <point x="43" y="681"/>
      <point x="43" y="717" type="curve" smooth="yes"/>
      <point x="43" y="768"/>
      <point x="105" y="816"/>
      <point x="202" y="816" type="curve" smooth="yes"/>
      <point x="296" y="816"/>
      <point x="361" y="779"/>
      <point x="361" y="697" type="curve" smooth="yes"/>
      <point x="361" y="625"/>
      <point x="306" y="593"/>
      <point x="251" y="570" type="curve" smooth="yes"/>
      <point x="196" y="548"/>
      <point x="152" y="522"/>
      <point x="138" y="490" type="curve"/>
      <point x="306" y="490" type="line" smooth="yes"/>
      <point x="328" y="490"/>
      <point x="338" y="494"/>
      <point x="354" y="521" type="curve"/>
      <point x="382" y="513" type="line"/>
      <point x="351" y="408" type="line"/>
      <point x="40" y="408" type="line"/>
    </contour>
  </outline>
</glyph>
<glyph name="threesuperior" format="2">
	<unicode hex="00B3"/>
	<advance width="380"/>
	<outline>
		<contour>
			<point x="25" y="350" type="curve" smooth="yes"/>
			<point x="25" y="386"/>
			<point x="62" y="410"/>
			<point x="88" y="410" type="curve" smooth="yes"/>
			<point x="111" y="410"/>
			<point x="123" y="396"/>
			<point x="129" y="377" type="curve"/>
			<point x="148" y="323"/>
			<point x="168" y="303"/>
			<point x="187" y="303" type="curve" smooth="yes"/>
			<point x="216" y="303"/>
			<point x="235" y="332"/>
			<point x="235" y="386" type="curve" smooth="yes"/>
			<point x="235" y="457"/>
			<point x="204" y="466"/>
			<point x="181" y="466" type="curve" smooth="yes"/>
			<point x="158" y="466"/>
			<point x="130" y="454"/>
			<point x="116" y="454" type="curve" smooth="yes"/>
			<point x="101" y="454"/>
			<point x="94" y="466"/>
			<point x="94" y="484" type="curve" smooth="yes"/>
			<point x="94" y="504"/>
			<point x="101" y="516"/>
			<point x="116" y="516" type="curve" smooth="yes"/>
			<point x="130" y="516"/>
			<point x="159" y="504"/>
			<point x="181" y="504" type="curve" smooth="yes"/>
			<point x="220" y="504"/>
			<point x="221" y="557"/>
			<point x="221" y="582" type="curve" smooth="yes"/>
			<point x="221" y="613"/>
			<point x="211" y="642"/>
			<point x="185" y="642" type="curve" smooth="yes"/>
			<point x="165" y="642"/>
			<point x="151" y="619"/>
			<point x="139" y="578" type="curve" smooth="yes"/>
			<point x="133" y="557"/>
			<point x="122" y="546"/>
			<point x="98" y="546" type="curve" smooth="yes"/>
			<point x="74" y="546"/>
			<point x="37" y="560"/>
			<point x="35" y="593" type="curve"/>
			<point x="36" y="639"/>
			<point x="91" y="680"/>
			<point x="193" y="680" type="curve" smooth="yes"/>
			<point x="266" y="680"/>
			<point x="346" y="656"/>
			<point x="346" y="578" type="curve" smooth="yes"/>
			<point x="346" y="524"/>
			<point x="301" y="498"/>
			<point x="259" y="490" type="curve"/>
			<point x="259" y="487" type="line"/>
			<point x="315" y="479"/>
			<point x="363" y="441"/>
			<point x="363" y="384" type="curve" smooth="yes"/>
			<point x="363" y="322"/>
			<point x="322" y="265"/>
			<point x="183" y="265" type="curve" smooth="yes"/>
			<point x="109" y="265"/>
			<point x="25" y="294"/>
		</contour>
	</outline>
</glyph>
<glyph name="uni00B3" format="1">
  <advance width="402"/>
  <unicode hex="00B3"/>
  <outline>
    <contour>
      <point x="25" y="486" type="curve" smooth="yes"/>
      <point x="25" y="522"/>
      <point x="62" y="546"/>
      <point x="88" y="546" type="curve" smooth="yes"/>
      <point x="111" y="546"/>
      <point x="123" y="532"/>
      <point x="129" y="513" type="curve" smooth="yes"/>
      <point x="148" y="459"/>
      <point x="168" y="439"/>
      <point x="187" y="439" type="curve" smooth="yes"/>
      <point x="216" y="439"/>
      <point x="235" y="468"/>
      <point x="235" y="522" type="curve" smooth="yes"/>
      <point x="235" y="593"/>
      <point x="204" y="602"/>
      <point x="181" y="602" type="curve" smooth="yes"/>
      <point x="158" y="602"/>
      <point x="130" y="590"/>
      <point x="116" y="590" type="curve" smooth="yes"/>
      <point x="101" y="590"/>
      <point x="94" y="602"/>
      <point x="94" y="620" type="curve" smooth="yes"/>
      <point x="94" y="640"/>
      <point x="101" y="652"/>
      <point x="116" y="652" type="curve" smooth="yes"/>
      <point x="130" y="652"/>
      <point x="159" y="640"/>
      <point x="181" y="640" type="curve" smooth="yes"/>
      <point x="220" y="640"/>
      <point x="221" y="693"/>
      <point x="221" y="718" type="curve" smooth="yes"/>
      <point x="221" y="749"/>
      <point x="211" y="778"/>
      <point x="185" y="778" type="curve" smooth="yes"/>
      <point x="165" y="778"/>
      <point x="151" y="755"/>
      <point x="139" y="714" type="curve" smooth="yes"/>
      <point x="133" y="693"/>
      <point x="122" y="682"/>
      <point x="98" y="682" type="curve" smooth="yes"/>
      <point x="74" y="682"/>
      <point x="37" y="696"/>
      <point x="35" y="729" type="curve" smooth="yes"/>
      <point x="36" y="775"/>
      <point x="91" y="816"/>
      <point x="193" y="816" type="curve" smooth="yes"/>
      <point x="266" y="816"/>
      <point x="346" y="792"/>
      <point x="346" y="714" type="curve" smooth="yes"/>
      <point x="346" y="660"/>
      <point x="301" y="634"/>
      <point x="259" y="626" type="curve"/>
      <point x="259" y="623" type="line"/>
      <point x="315" y="615"/>
      <point x="363" y="577"/>
      <point x="363" y="520" type="curve" smooth="yes"/>
      <point x="363" y="458"/>
      <point x="322" y="401"/>
      <point x="183" y="401" type="curve" smooth="yes"/>
      <point x="109" y="401"/>
      <point x="25" y="430"/>
    </contour>
  </outline>
</glyph>
<glyph name="periodcentered" format="1">
  <advance width="280"/>
  <unicode hex="00B7"/>
  <outline>
    <contour>
      <point x="47" y="249" type="curve" smooth="yes"/>
      <point x="47" y="304"/>
      <point x="85" y="342"/>
      <point x="140" y="342" type="curve" smooth="yes"/>
      <point x="195" y="342"/>
      <point x="233" y="304"/>
      <point x="233" y="249" type="curve" smooth="yes"/>
      <point x="233" y="194"/>
      <point x="195" y="156"/>
      <point x="140" y="156" type="curve" smooth="yes"/>
      <point x="85" y="156"/>
      <point x="47" y="194"/>
    </contour>
  </outline>
</glyph>
<glyph name="cedilla" format="2">
	<unicode hex="00B8"/>
	<advance width="430"/>
	<outline>
		<contour>
			<point x="136" y="-211" type="line"/>
			<point x="192" y="-211"/>
			<point x="230" y="-196"/>
			<point x="230" y="-153" type="curve" smooth="yes"/>
			<point x="230" y="-111"/>
			<point x="186" y="-102"/>
			<point x="164" y="-100" type="curve"/>
			<point x="160" y="-92" type="line"/>
			<point x="217" y="0" type="line"/>
			<point x="275" y="0" type="line"/>
			<point x="236" y="-58" type="line"/>
			<point x="267" y="-62"/>
			<point x="335" y="-79"/>
			<point x="335" y="-144" type="curve" smooth="yes"/>
			<point x="335" y="-234"/>
			<point x="231" y="-246"/>
			<point x="184" y="-246" type="curve" smooth="yes"/>
			<point x="165" y="-246"/>
			<point x="153" y="-245"/>
			<point x="136" y="-243" type="curve"/>
		</contour>
	</outline>
</glyph>
<glyph name="onesuperior" format="2">
	<unicode hex="00B9"/>
	<advance width="380"/>
	<outline>
		<contour>
			<point x="75" y="272" type="line"/>
			<point x="75" y="299" type="line"/>
			<point x="113" y="304" type="line" smooth="yes"/>
			<point x="134" y="307"/>
			<point x="142" y="314"/>
			<point x="142" y="340" type="curve" smooth="yes"/>
			<point x="142" y="590" type="line" smooth="yes"/>
			<point x="142" y="614"/>
			<point x="134" y="621"/>
			<point x="118" y="624" type="curve"/>
			<point x="77" y="630" type="line"/>
			<point x="77" y="656" type="line"/>
			<point x="253" y="680" type="line"/>
			<point x="261" y="673" type="line"/>
			<point x="261" y="340" type="line" smooth="yes"/>
			<point x="261" y="314"/>
			<point x="269" y="307"/>
			<point x="290" y="304" type="curve" smooth="yes"/>
			<point x="328" y="299" type="line"/>
			<point x="328" y="272" type="line"/>
		</contour>
	</outline>
</glyph>
<glyph name="guillemotright" format="1">
  <advance width="487"/>
  <unicode hex="00BB"/>
  <outline>
    <contour>
      <point x="35" y="58" type="line"/>
      <point x="114" y="232" type="line" smooth="yes"/>
      <point x="120" y="246"/>
      <point x="119" y="257"/>
      <point x="114" y="268" type="curve" smooth="yes"/>
      <point x="35" y="443" type="line"/>
      <point x="64" y="464" type="line"/>
      <point x="238" y="270" type="line" smooth="yes"/>
      <point x="249" y="258"/>
      <point x="250" y="245"/>
      <point x="238" y="231" type="curve" smooth="yes"/>
      <point x="64" y="37" type="line"/>
    </contour>
    <contour>
      <point x="235" y="58" type="line"/>
      <point x="314" y="232" type="line" smooth="yes"/>
      <point x="320" y="246"/>
      <point x="319" y="257"/>
      <point x="314" y="268" type="curve" smooth="yes"/>
      <point x="235" y="443" type="line"/>
      <point x="264" y="464" type="line"/>
      <point x="438" y="270" type="line" smooth="yes"/>
      <point x="449" y="258"/>
      <point x="450" y="245"/>
      <point x="438" y="231" type="curve" smooth="yes"/>
      <point x="264" y="37" type="line"/>
    </contour>
  </outline>
</glyph>
<glyph name="onehalf" format="1">
  <advance width="900"/>
  <unicode hex="00BD"/>
  <outline>
    <contour>
      <point x="57" y="272" type="line"/>
      <point x="57" y="299" type="line"/>
      <point x="95" y="304" type="line" smooth="yes"/>
      <point x="116" y="307"/>
      <point x="124" y="314"/>
      <point x="124" y="340" type="curve" smooth="yes"/>
      <point x="124" y="590" type="line" smooth="yes"/>
      <point x="124" y="614"/>
      <point x="116" y="621"/>
      <point x="100" y="624" type="curve" smooth="yes"/>
      <point x="59" y="630" type="line"/>
      <point x="59" y="656" type="line"/>
      <point x="235" y="680" type="line"/>
      <point x="243" y="673" type="line"/>
      <point x="243" y="340" type="line" smooth="yes"/>
      <point x="243" y="314"/>
      <point x="251" y="307"/>
      <point x="272" y="304" type="curve" smooth="yes"/>
      <point x="310" y="299" type="line"/>
      <point x="310" y="272" type="line"/>
    </contour>
    <contour>
      <point x="218" y="4" type="line"/>
      <point x="575" y="695" type="line"/>
      <point x="628" y="667" type="line"/>
      <point x="270" y="-27" type="line"/>
    </contour>
    <contour>
      <point x="496" y="10" type="line"/>
      <point x="499" y="68"/>
      <point x="551" y="121"/>
      <point x="621" y="174" type="curve" smooth="yes"/>
      <point x="688" y="225"/>
      <point x="702" y="270"/>
      <point x="702" y="309" type="curve" smooth="yes"/>
      <point x="702" y="344"/>
      <point x="690" y="370"/>
      <point x="668" y="370" type="curve" smooth="yes"/>
      <point x="645" y="370"/>
      <point x="631" y="344"/>
      <point x="619" y="292" type="curve" smooth="yes"/>
      <point x="613" y="267"/>
      <point x="600" y="256"/>
      <point x="576" y="256" type="curve" smooth="yes"/>
      <point x="550" y="256"/>
      <point x="510" y="273"/>
      <point x="510" y="309" type="curve" smooth="yes"/>
      <point x="510" y="360"/>
      <point x="572" y="408"/>
      <point x="669" y="408" type="curve" smooth="yes"/>
      <point x="763" y="408"/>
      <point x="828" y="371"/>
      <point x="828" y="289" type="curve" smooth="yes"/>
      <point x="828" y="217"/>
      <point x="773" y="185"/>
      <point x="718" y="162" type="curve" smooth="yes"/>
      <point x="663" y="140"/>
      <point x="619" y="114"/>
      <point x="605" y="82" type="curve"/>
      <point x="773" y="82" type="line" smooth="yes"/>
      <point x="795" y="82"/>
      <point x="805" y="86"/>
      <point x="821" y="113" type="curve"/>
      <point x="849" y="105" type="line"/>
      <point x="818" y="0" type="line"/>
      <point x="507" y="0" type="line"/>
    </contour>
  </outline>
</glyph>
<glyph name="threequarters" format="1">
  <advance width="900"/>
  <unicode hex="00BE"/>
  <outline>
    <contour>
      <point x="35" y="350" type="curve" smooth="yes"/>
      <point x="35" y="386"/>
      <point x="72" y="410"/>
      <point x="98" y="410" type="curve" smooth="yes"/>
      <point x="121" y="410"/>
      <point x="133" y="396"/>
      <point x="139" y="377" type="curve" smooth="yes"/>
      <point x="158" y="323"/>
      <point x="178" y="303"/>
      <point x="197" y="303" type="curve" smooth="yes"/>
      <point x="226" y="303"/>
      <point x="245" y="332"/>
      <point x="245" y="386" type="curve" smooth="yes"/>
      <point x="245" y="457"/>
      <point x="214" y="466"/>
      <point x="191" y="466" type="curve" smooth="yes"/>
      <point x="168" y="466"/>
      <point x="140" y="454"/>
      <point x="126" y="454" type="curve" smooth="yes"/>
      <point x="111" y="454"/>
      <point x="104" y="466"/>
      <point x="104" y="484" type="curve" smooth="yes"/>
      <point x="104" y="504"/>
      <point x="111" y="516"/>
      <point x="126" y="516" type="curve" smooth="yes"/>
      <point x="140" y="516"/>
      <point x="169" y="504"/>
      <point x="191" y="504" type="curve" smooth="yes"/>
      <point x="230" y="504"/>
      <point x="231" y="557"/>
      <point x="231" y="582" type="curve" smooth="yes"/>
      <point x="231" y="613"/>
      <point x="221" y="642"/>
      <point x="195" y="642" type="curve" smooth="yes"/>
      <point x="175" y="642"/>
      <point x="161" y="619"/>
      <point x="149" y="578" type="curve" smooth="yes"/>
      <point x="143" y="557"/>
      <point x="132" y="546"/>
      <point x="108" y="546" type="curve" smooth="yes"/>
      <point x="84" y="546"/>
      <point x="47" y="560"/>
      <point x="45" y="593" type="curve" smooth="yes"/>
      <point x="46" y="639"/>
      <point x="101" y="680"/>
      <point x="203" y="680" type="curve" smooth="yes"/>
      <point x="276" y="680"/>
      <point x="356" y="656"/>
      <point x="356" y="578" type="curve" smooth="yes"/>
      <point x="356" y="524"/>
      <point x="311" y="498"/>
      <point x="269" y="490" type="curve"/>
      <point x="269" y="487" type="line"/>
      <point x="325" y="479"/>
      <point x="373" y="441"/>
      <point x="373" y="384" type="curve" smooth="yes"/>
      <point x="373" y="322"/>
      <point x="332" y="265"/>
      <point x="193" y="265" type="curve" smooth="yes"/>
      <point x="119" y="265"/>
      <point x="35" y="294"/>
    </contour>
    <contour>
      <point x="267" y="4" type="line"/>
      <point x="624" y="695" type="line"/>
      <point x="677" y="667" type="line"/>
      <point x="319" y="-27" type="line"/>
    </contour>
    <contour>
      <point x="484" y="119" type="line"/>
      <point x="548" y="221"/>
      <point x="615" y="319"/>
      <point x="679" y="401" type="curve"/>
      <point x="775" y="401" type="line"/>
      <point x="775" y="142" type="line"/>
      <point x="842" y="142" type="line"/>
      <point x="842" y="93" type="line"/>
      <point x="775" y="93" type="line"/>
      <point x="775" y="61" type="line" smooth="yes"/>
      <point x="775" y="38"/>
      <point x="782" y="32"/>
      <point x="797" y="30" type="curve" smooth="yes"/>
      <point x="824" y="27" type="line"/>
      <point x="824" y="0" type="line"/>
      <point x="601" y="0" type="line"/>
      <point x="601" y="27" type="line"/>
      <point x="638" y="31" type="line" smooth="yes"/>
      <point x="652" y="33"/>
      <point x="660" y="38"/>
      <point x="660" y="61" type="curve" smooth="yes"/>
      <point x="660" y="93" type="line"/>
      <point x="498" y="93" type="line"/>
    </contour>
    <contour>
      <point x="555" y="142" type="curve"/>
      <point x="660" y="142" type="line"/>
      <point x="660" y="311" type="line"/>
      <point x="658" y="311" type="line"/>
      <point x="622" y="261"/>
      <point x="589" y="202"/>
    </contour>
  </outline>
</glyph>
<glyph name="Iacute" format="1">
  <advance width="384"/>
  <unicode hex="00CD"/>
  <outline>
    <contour>
      <point x="33" y="0" type="line"/>
      <point x="33" y="38" type="line"/>
      <point x="104" y="41"/>
      <point x="112" y="46"/>
      <point x="112" y="97" type="curve" smooth="yes"/>
      <point x="112" y="595" type="line" smooth="yes"/>
      <point x="112" y="646"/>
      <point x="104" y="651"/>
      <point x="33" y="654" type="curve"/>
      <point x="33" y="692" type="line"/>
      <point x="351" y="692" type="line"/>
      <point x="351" y="654" type="line"/>
      <point x="280" y="651"/>
      <point x="272" y="646"/>
      <point x="272" y="595" type="curve" smooth="yes"/>
      <point x="272" y="97" type="line" smooth="yes"/>
      <point x="272" y="46"/>
      <point x="280" y="41"/>
      <point x="351" y="38" type="curve"/>
      <point x="351" y="0" type="line"/>
    </contour>
    <contour>
      <point x="83" y="751" type="line"/>
      <point x="255" y="874" type="line" smooth="yes"/>
      <point x="286" y="897"/>
      <point x="301" y="904"/>
      <point x="319" y="904" type="curve" smooth="yes"/>
      <point x="351" y="904"/>
      <point x="373" y="860"/>
      <point x="373" y="840" type="curve" smooth="yes"/>
      <point x="373" y="811"/>
      <point x="353" y="800"/>
      <point x="300" y="783" type="curve" smooth="yes"/>
      <point x="97" y="719" type="line"/>
    </contour>
  </outline>
</glyph>
<glyph name="Icircumflex" format="1">
  <advance width="384"/>
  <unicode hex="00CE"/>
  <outline>
    <contour>
      <point x="4" y="755" type="line"/>
      <point x="146" y="881" type="line" smooth="yes"/>
      <point x="162" y="896"/>
      <point x="177" y="905"/>
      <point x="191" y="905" type="curve" smooth="yes"/>
      <point x="206" y="905"/>
      <point x="224" y="895"/>
      <point x="238" y="882" type="curve" smooth="yes"/>
      <point x="380" y="755" type="line"/>
      <point x="362" y="725" type="line"/>
      <point x="231" y="785" type="line" smooth="yes"/>
      <point x="218" y="792"/>
      <point x="203" y="800"/>
      <point x="191" y="800" type="curve" smooth="yes"/>
      <point x="181" y="800"/>
      <point x="167" y="792"/>
      <point x="153" y="785" type="curve" smooth="yes"/>
      <point x="23" y="725" type="line"/>
    </contour>
    <contour>
      <point x="33" y="0" type="line"/>
      <point x="33" y="38" type="line"/>
      <point x="104" y="41"/>
      <point x="112" y="46"/>
      <point x="112" y="97" type="curve" smooth="yes"/>
      <point x="112" y="595" type="line" smooth="yes"/>
      <point x="112" y="646"/>
      <point x="104" y="651"/>
      <point x="33" y="654" type="curve"/>
      <point x="33" y="692" type="line"/>
      <point x="351" y="692" type="line"/>
      <point x="351" y="654" type="line"/>
      <point x="280" y="651"/>
      <point x="272" y="646"/>
      <point x="272" y="595" type="curve" smooth="yes"/>
      <point x="272" y="97" type="line" smooth="yes"/>
      <point x="272" y="46"/>
      <point x="280" y="41"/>
      <point x="351" y="38" type="curve"/>
      <point x="351" y="0" type="line"/>
    </contour>
  </outline>
</glyph>
<glyph name="Idieresis" format="1">
  <advance width="384"/>
  <unicode hex="00CF"/>
  <outline>
    <contour>
      <point x="-13" y="806" type="curve" smooth="yes"/>
      <point x="-13" y="844"/>
      <point x="15" y="881"/>
      <point x="66" y="881" type="curve" smooth="yes"/>
      <point x="117" y="881"/>
      <point x="145" y="844"/>
      <point x="145" y="806" type="curve" smooth="yes"/>
      <point x="145" y="768"/>
      <point x="117" y="731"/>
      <point x="66" y="731" type="curve" smooth="yes"/>
      <point x="15" y="731"/>
      <point x="-13" y="768"/>
    </contour>
    <contour>
      <point x="33" y="0" type="line"/>
      <point x="33" y="38" type="line"/>
      <point x="104" y="41"/>
      <point x="112" y="46"/>
      <point x="112" y="97" type="curve" smooth="yes"/>
      <point x="112" y="595" type="line" smooth="yes"/>
      <point x="112" y="646"/>
      <point x="104" y="651"/>
      <point x="33" y="654" type="curve"/>
      <point x="33" y="692" type="line"/>
      <point x="351" y="692" type="line"/>
      <point x="351" y="654" type="line"/>
      <point x="280" y="651"/>
      <point x="272" y="646"/>
      <point x="272" y="595" type="curve" smooth="yes"/>
      <point x="272" y="97" type="line" smooth="yes"/>
      <point x="272" y="46"/>
      <point x="280" y="41"/>
      <point x="351" y="38" type="curve"/>
      <point x="351" y="0" type="line"/>
    </contour>
    <contour>
      <point x="239" y="806" type="curve" smooth="yes"/>
      <point x="239" y="844"/>
      <point x="267" y="881"/>
      <point x="318" y="881" type="curve" smooth="yes"/>
      <point x="369" y="881"/>
      <point x="397" y="844"/>
      <point x="397" y="806" type="curve" smooth="yes"/>
      <point x="397" y="768"/>
      <point x="369" y="731"/>
      <point x="318" y="731" type="curve" smooth="yes"/>
      <point x="267" y="731"/>
      <point x="239" y="768"/>
    </contour>
  </outline>
</glyph>
<glyph name="Ntilde" format="1">
  <advance width="739"/>
  <unicode hex="00D1"/>
  <outline>
    <contour>
      <point x="25" y="654" type="curve"/>
      <point x="25" y="692" type="line"/>
      <point x="262" y="692" type="line"/>
      <point x="365" y="533"/>
      <point x="471" y="375"/>
      <point x="577" y="216" type="curve"/>
      <point x="581" y="216" type="line"/>
      <point x="581" y="440" type="line" smooth="yes"/>
      <point x="581" y="522"/>
      <point x="580" y="560"/>
      <point x="576" y="596" type="curve" smooth="yes"/>
      <point x="573" y="631"/>
      <point x="562" y="647"/>
      <point x="534" y="649" type="curve" smooth="yes"/>
      <point x="478" y="654" type="line"/>
      <point x="478" y="692" type="line"/>
      <point x="719" y="692" type="line"/>
      <point x="719" y="654" type="line"/>
      <point x="684" y="649" type="line" smooth="yes"/>
      <point x="661" y="646"/>
      <point x="651" y="631"/>
      <point x="648" y="596" type="curve" smooth="yes"/>
      <point x="644" y="561"/>
      <point x="643" y="522"/>
      <point x="643" y="440" type="curve" smooth="yes"/>
      <point x="643" y="0" type="line"/>
      <point x="533" y="0" type="line"/>
      <point x="414" y="186"/>
      <point x="293" y="372"/>
      <point x="170" y="558" type="curve"/>
      <point x="166" y="558" type="line"/>
      <point x="166" y="252" type="line" smooth="yes"/>
      <point x="166" y="170"/>
      <point x="167" y="132"/>
      <point x="171" y="96" type="curve" smooth="yes"/>
      <point x="174" y="61"/>
      <point x="185" y="45"/>
      <point x="213" y="43" type="curve" smooth="yes"/>
      <point x="269" y="38" type="line"/>
      <point x="269" y="0" type="line"/>
      <point x="28" y="0" type="line"/>
      <point x="28" y="38" type="line"/>
      <point x="63" y="43" type="line" smooth="yes"/>
      <point x="86" y="46"/>
      <point x="96" y="61"/>
      <point x="99" y="96" type="curve" smooth="yes"/>
      <point x="103" y="131"/>
      <point x="104" y="170"/>
      <point x="104" y="252" type="curve" smooth="yes"/>
      <point x="104" y="595" type="line" smooth="yes"/>
      <point x="104" y="646"/>
      <point x="96" y="651"/>
    </contour>
    <contour>
      <point x="171" y="741" type="line"/>
      <point x="189" y="784"/>
      <point x="224" y="863"/>
      <point x="306" y="863" type="curve" smooth="yes"/>
      <point x="334" y="863"/>
      <point x="366" y="853"/>
      <point x="398" y="842" type="curve" smooth="yes"/>
      <point x="431" y="832"/>
      <point x="463" y="821"/>
      <point x="489" y="821" type="curve" smooth="yes"/>
      <point x="526" y="821"/>
      <point x="542" y="837"/>
      <point x="564" y="876" type="curve"/>
      <point x="596" y="858" type="line"/>
      <point x="578" y="815"/>
      <point x="543" y="736"/>
      <point x="461" y="736" type="curve" smooth="yes"/>
      <point x="436" y="736"/>
      <point x="405" y="747"/>
      <point x="373" y="757" type="curve" smooth="yes"/>
      <point x="341" y="768"/>
      <point x="308" y="778"/>
      <point x="278" y="778" type="curve" smooth="yes"/>
      <point x="241" y="778"/>
      <point x="225" y="762"/>
      <point x="203" y="723" type="curve"/>
    </contour>
  </outline>
</glyph>
<glyph name="multiply" format="1">
  <advance width="600"/>
  <unicode hex="00D7"/>
  <outline>
    <contour>
      <point x="75" y="81" type="line"/>
      <point x="240" y="247" type="line"/>
      <point x="75" y="413" type="line"/>
      <point x="133" y="476" type="line"/>
      <point x="300" y="308" type="line"/>
      <point x="466" y="476" type="line"/>
      <point x="525" y="413" type="line"/>
      <point x="360" y="247" type="line"/>
      <point x="525" y="81" type="line"/>
      <point x="466" y="20" type="line"/>
      <point x="300" y="187" type="line"/>
      <point x="133" y="20" type="line"/>
    </contour>
  </outline>
</glyph>
<glyph name="Ucircumflex" format="1">
  <advance width="786"/>
  <unicode hex="00DB"/>
  <outline>
    <contour>
      <point x="29" y="654" type="curve"/>
      <point x="29" y="692" type="line"/>
      <point x="341" y="692" type="line"/>
      <point x="341" y="654" type="line"/>
      <point x="273" y="651"/>
      <point x="265" y="646"/>
      <point x="265" y="595" type="curve" smooth="yes"/>
      <point x="265" y="211" type="line" smooth="yes"/>
      <point x="265" y="97"/>
      <point x="303" y="31"/>
      <point x="393" y="31" type="curve" smooth="yes"/>
      <point x="485" y="31"/>
      <point x="521" y="97"/>
      <point x="521" y="211" type="curve" smooth="yes"/>
      <point x="521" y="595" type="line" smooth="yes"/>
      <point x="521" y="646"/>
      <point x="513" y="651"/>
      <point x="445" y="654" type="curve"/>
      <point x="445" y="692" type="line"/>
      <point x="757" y="692" type="line"/>
      <point x="757" y="654" type="line"/>
      <point x="689" y="651"/>
      <point x="681" y="646"/>
      <point x="681" y="595" type="curve" smooth="yes"/>
      <point x="681" y="225" type="line" smooth="yes"/>
      <point x="679" y="52"/>
      <point x="578" y="-15"/>
      <point x="393" y="-15" type="curve" smooth="yes"/>
      <point x="193" y="-15"/>
      <point x="105" y="52"/>
      <point x="105" y="225" type="curve" smooth="yes"/>
      <point x="105" y="595" type="line" smooth="yes"/>
      <point x="105" y="646"/>
      <point x="97" y="651"/>
    </contour>
    <contour>
      <point x="205" y="755" type="line"/>
      <point x="347" y="881" type="line" smooth="yes"/>
      <point x="363" y="896"/>
      <point x="378" y="905"/>
      <point x="392" y="905" type="curve" smooth="yes"/>
      <point x="407" y="905"/>
      <point x="425" y="895"/>
      <point x="439" y="882" type="curve" smooth="yes"/>
      <point x="581" y="755" type="line"/>
      <point x="563" y="725" type="line"/>
      <point x="432" y="785" type="line" smooth="yes"/>
      <point x="419" y="792"/>
      <point x="404" y="800"/>
      <point x="392" y="800" type="curve" smooth="yes"/>
      <point x="382" y="800"/>
      <point x="368" y="792"/>
      <point x="354" y="785" type="curve" smooth="yes"/>
      <point x="224" y="725" type="line"/>
    </contour>
  </outline>
</glyph>
<glyph name="germandbls" format="2">
  <advance width="662"/>
  <unicode hex="00DF"/>
  <outline>
    <contour>
      <point x="29" y="0" type="line"/>
      <point x="29" y="36" type="line"/>
      <point x="84" y="41"/>
      <point x="92" y="45"/>
      <point x="92" y="85" type="curve" smooth="yes"/>
      <point x="92" y="490" type="line" smooth="yes"/>
      <point x="92" y="652.234"/>
      <point x="174.069" y="742"/>
      <point x="342" y="742" type="curve" smooth="yes"/>
      <point x="548" y="742"/>
      <point x="576" y="634"/>
      <point x="576" y="573.162" type="curve" smooth="yes"/>
      <point x="576" y="545"/>
      <point x="570" y="522"/>
      <point x="550" y="500" type="curve"/>
      <point x="485" y="494"/>
      <point x="449" y="459"/>
      <point x="449" y="416.726" type="curve" smooth="yes"/>
      <point x="449" y="364"/>
      <point x="504" y="327"/>
      <point x="526" y="312" type="curve" smooth="yes"/>
      <point x="575.958" y="277.938"/>
      <point x="647" y="229"/>
      <point x="647" y="135.666" type="curve" smooth="yes"/>
      <point x="647" y="45"/>
      <point x="580" y="-12"/>
      <point x="465.6" y="-12" type="curve" smooth="yes"/>
      <point x="384" y="-12"/>
      <point x="328" y="17"/>
      <point x="328" y="57" type="curve" smooth="yes"/>
      <point x="328" y="86"/>
      <point x="357" y="108"/>
      <point x="381" y="108" type="curve" smooth="yes"/>
      <point x="396" y="108"/>
      <point x="404" y="99"/>
      <point x="414.384" y="83.424" type="curve" smooth="yes"/>
      <point x="436" y="51"/>
      <point x="456" y="34"/>
      <point x="479" y="34" type="curve" smooth="yes"/>
      <point x="498" y="34"/>
      <point x="521" y="47"/>
      <point x="521" y="84" type="curve" smooth="yes"/>
      <point x="521" y="125"/>
      <point x="491" y="159"/>
      <point x="418" y="206" type="curve" smooth="yes"/>
      <point x="343" y="254"/>
      <point x="312" y="310"/>
      <point x="312" y="363" type="curve" smooth="yes"/>
      <point x="312" y="424"/>
      <point x="352" y="481"/>
      <point x="415" y="497" type="curve"/>
      <point x="433" y="523"/>
      <point x="435" y="554"/>
      <point x="435" y="571.358" type="curve" smooth="yes"/>
      <point x="435" y="645"/>
      <point x="399" y="696"/>
      <point x="344" y="696" type="curve" smooth="yes"/>
      <point x="283" y="696"/>
      <point x="243" y="631"/>
      <point x="243" y="511" type="curve" smooth="yes"/>
      <point x="243" y="85" type="line" smooth="yes"/>
      <point x="243" y="45"/>
      <point x="251" y="41"/>
      <point x="306" y="36" type="curve"/>
      <point x="306" y="0" type="line"/>
    </contour>
  </outline>
</glyph>
<glyph name="ae" format="2">
	<unicode hex="00E6"/>
	<advance width="806"/>
	<outline>
		<contour>
			<point x="41" y="134" type="curve" smooth="yes"/>
			<point x="41" y="190"/>
			<point x="67" y="235"/>
			<point x="146" y="259" type="curve" smooth="yes"/>
			<point x="212" y="279"/>
			<point x="287" y="303"/>
			<point x="331" y="327" type="curve"/>
			<point x="331" y="381" type="line" smooth="yes"/>
			<point x="331" y="439"/>
			<point x="302" y="456"/>
			<point x="273" y="456" type="curve" smooth="yes"/>
			<point x="245" y="456"/>
			<point x="213" y="441"/>
			<point x="185" y="355" type="curve" smooth="yes"/>
			<point x="177" y="330"/>
			<point x="166" y="314"/>
			<point x="143" y="314" type="curve" smooth="yes"/>
			<point x="118" y="314"/>
			<point x="54" y="332"/>
			<point x="54" y="383" type="curve" smooth="yes"/>
			<point x="54" y="444"/>
			<point x="144" y="502"/>
			<point x="285" y="502" type="curve" smooth="yes"/>
			<point x="354" y="502"/>
			<point x="397" y="480"/>
			<point x="423" y="444" type="curve"/>
			<point x="464" y="479"/>
			<point x="517" y="502"/>
			<point x="576" y="502" type="curve" smooth="yes"/>
			<point x="779" y="502"/>
			<point x="792" y="348"/>
			<point x="792" y="292" type="curve" smooth="yes"/>
			<point x="792" y="262"/>
			<point x="774" y="252"/>
			<point x="737" y="252" type="curve" smooth="yes"/>
			<point x="478" y="252" type="line"/>
			<point x="478" y="147"/>
			<point x="510" y="66"/>
			<point x="610" y="66" type="curve" smooth="yes"/>
			<point x="672" y="66"/>
			<point x="716" y="97"/>
			<point x="746" y="154" type="curve"/>
			<point x="783" y="134" type="line"/>
			<point x="748" y="47"/>
			<point x="681" y="-12"/>
			<point x="563" y="-12" type="curve" smooth="yes"/>
			<point x="475" y="-12"/>
			<point x="417" y="21"/>
			<point x="382" y="75" type="curve"/>
			<point x="335" y="40" type="line" smooth="yes"/>
			<point x="303" y="15"/>
			<point x="256" y="-12"/>
			<point x="192" y="-12" type="curve" smooth="yes"/>
			<point x="90" y="-12"/>
			<point x="41" y="59"/>
		</contour>
		<contour>
			<point x="195" y="159" type="curve" smooth="yes"/>
			<point x="195" y="97"/>
			<point x="230" y="66"/>
			<point x="269" y="66" type="curve" smooth="yes"/>
			<point x="296" y="66"/>
			<point x="331" y="80"/>
			<point x="331" y="134" type="curve" smooth="yes"/>
			<point x="331" y="278" type="line"/>
			<point x="307" y="265"/>
			<point x="272" y="250"/>
			<point x="247" y="240" type="curve" smooth="yes"/>
			<point x="208" y="225"/>
			<point x="195" y="197"/>
		</contour>
		<contour>
			<point x="478" y="298" type="curve"/>
			<point x="602" y="298" type="line" smooth="yes"/>
			<point x="625" y="298"/>
			<point x="633" y="304"/>
			<point x="633" y="339" type="curve" smooth="yes"/>
			<point x="633" y="379"/>
			<point x="623" y="456"/>
			<point x="561" y="456" type="curve" smooth="yes"/>
			<point x="497" y="456"/>
			<point x="478" y="373"/>
		</contour>
	</outline>
</glyph>
<glyph name="eacute" format="1">
  <advance width="519"/>
  <unicode hex="00E9"/>
  <outline>
    <contour>
      <point x="34" y="245" type="curve" smooth="yes"/>
      <point x="34" y="385"/>
      <point x="101" y="502"/>
      <point x="281" y="502" type="curve" smooth="yes"/>
      <point x="474" y="502"/>
      <point x="505" y="376"/>
      <point x="505" y="294" type="curve" smooth="yes"/>
      <point x="505" y="262"/>
      <point x="487" y="252"/>
      <point x="451" y="252" type="curve" smooth="yes"/>
      <point x="193" y="252" type="line"/>
      <point x="193" y="147"/>
      <point x="227" y="65"/>
      <point x="327" y="65" type="curve" smooth="yes"/>
      <point x="388" y="65"/>
      <point x="431" y="97"/>
      <point x="461" y="154" type="curve"/>
      <point x="497" y="134" type="line"/>
      <point x="463" y="46"/>
      <point x="398" y="-12"/>
      <point x="279" y="-12" type="curve" smooth="yes"/>
      <point x="93" y="-12"/>
      <point x="34" y="109"/>
    </contour>
    <contour>
      <point x="189" y="541" type="line"/>
      <point x="334" y="690" type="line" smooth="yes"/>
      <point x="371" y="728"/>
      <point x="388" y="740"/>
      <point x="408" y="740" type="curve" smooth="yes"/>
      <point x="432" y="740"/>
      <point x="461" y="705"/>
      <point x="461" y="680" type="curve" smooth="yes"/>
      <point x="461" y="654"/>
      <point x="429" y="634"/>
      <point x="393" y="614" type="curve" smooth="yes"/>
      <point x="210" y="511" type="line"/>
    </contour>
    <contour>
      <point x="193" y="300" type="curve"/>
      <point x="317" y="300" type="line" smooth="yes"/>
      <point x="340" y="300"/>
      <point x="348" y="306"/>
      <point x="348" y="333" type="curve" smooth="yes"/>
      <point x="348" y="380"/>
      <point x="338" y="456"/>
      <point x="277" y="456" type="curve" smooth="yes"/>
      <point x="212" y="456"/>
      <point x="193" y="372"/>
    </contour>
  </outline>
</glyph>
<glyph name="igrave" format="1">
  <advance width="316"/>
  <unicode hex="00EC"/>
  <outline>
    <contour>
      <point x="-17" y="680" type="curve" smooth="yes"/>
      <point x="-17" y="705"/>
      <point x="12" y="740"/>
      <point x="36" y="740" type="curve" smooth="yes"/>
      <point x="56" y="740"/>
      <point x="73" y="728"/>
      <point x="110" y="690" type="curve" smooth="yes"/>
      <point x="255" y="541" type="line"/>
      <point x="234" y="511" type="line"/>
      <point x="51" y="614" type="line" smooth="yes"/>
      <point x="15" y="634"/>
      <point x="-17" y="654"/>
    </contour>
    <contour>
      <point x="26" y="0" type="line"/>
      <point x="26" y="38" type="line"/>
      <point x="83" y="41"/>
      <point x="91" y="45"/>
      <point x="91" y="87" type="curve" smooth="yes"/>
      <point x="91" y="381" type="line" smooth="yes"/>
      <point x="91" y="421"/>
      <point x="83" y="430"/>
      <point x="67" y="432" type="curve" smooth="yes"/>
      <point x="32" y="437" type="line"/>
      <point x="32" y="473" type="line"/>
      <point x="235" y="502" type="line"/>
      <point x="242" y="496" type="line"/>
      <point x="242" y="87" type="line" smooth="yes"/>
      <point x="242" y="45"/>
      <point x="250" y="41"/>
      <point x="307" y="38" type="curve"/>
      <point x="307" y="0" type="line"/>
    </contour>
  </outline>
</glyph>
<glyph name="icircumflex" format="1">
  <advance width="316"/>
  <unicode hex="00EE"/>
  <outline>
    <contour>
      <point x="-28" y="547" type="line"/>
      <point x="115" y="716" type="line" smooth="yes"/>
      <point x="130" y="734"/>
      <point x="145" y="747"/>
      <point x="159" y="747" type="curve" smooth="yes"/>
      <point x="173" y="747"/>
      <point x="188" y="733"/>
      <point x="203" y="716" type="curve" smooth="yes"/>
      <point x="346" y="547" type="line"/>
      <point x="322" y="520" type="line"/>
      <point x="197" y="614" type="line" smooth="yes"/>
      <point x="183" y="624"/>
      <point x="170" y="633"/>
      <point x="159" y="633" type="curve" smooth="yes"/>
      <point x="149" y="633"/>
      <point x="135" y="624"/>
      <point x="121" y="614" type="curve" smooth="yes"/>
      <point x="-4" y="520" type="line"/>
    </contour>
    <contour>
      <point x="26" y="0" type="line"/>
      <point x="26" y="38" type="line"/>
      <point x="83" y="41"/>
      <point x="91" y="45"/>
      <point x="91" y="87" type="curve" smooth="yes"/>
      <point x="91" y="381" type="line" smooth="yes"/>
      <point x="91" y="421"/>
      <point x="83" y="430"/>
      <point x="67" y="432" type="curve" smooth="yes"/>
      <point x="32" y="437" type="line"/>
      <point x="32" y="473" type="line"/>
      <point x="235" y="502" type="line"/>
      <point x="242" y="496" type="line"/>
      <point x="242" y="87" type="line" smooth="yes"/>
      <point x="242" y="45"/>
      <point x="250" y="41"/>
      <point x="307" y="38" type="curve"/>
      <point x="307" y="0" type="line"/>
    </contour>
  </outline>
</glyph>
<glyph name="eth" format="2">
	<unicode hex="00F0"/>
	<advance width="585"/>
	<outline>
		<contour>
			<point x="34" y="245" type="curve" smooth="yes"/>
			<point x="34" y="405"/>
			<point x="111" y="502"/>
			<point x="292" y="502" type="curve" smooth="yes"/>
			<point x="303" y="502"/>
			<point x="310" y="501"/>
			<point x="321" y="499" type="curve"/>
			<point x="321" y="502" type="line"/>
			<point x="302" y="526"/>
			<point x="278" y="552"/>
			<point x="246" y="582" type="curve"/>
			<point x="114" y="525" type="line"/>
			<point x="89" y="564" type="line"/>
			<point x="210" y="616" type="line"/>
			<point x="182" y="642"/>
			<point x="147" y="670"/>
			<point x="107" y="700" type="curve"/>
			<point x="107" y="712" type="line"/>
			<point x="154" y="742" type="line"/>
			<point x="205" y="715"/>
			<point x="255" y="685"/>
			<point x="299" y="654" type="curve"/>
			<point x="450" y="718" type="line"/>
			<point x="476" y="680" type="line"/>
			<point x="340" y="622" type="line"/>
			<point x="379" y="593"/>
			<point x="411" y="563"/>
			<point x="441" y="531" type="curve" smooth="yes"/>
			<point x="510" y="455"/>
			<point x="551" y="365"/>
			<point x="551" y="251" type="curve" smooth="yes"/>
			<point x="551" y="85"/>
			<point x="474" y="-12"/>
			<point x="293" y="-12" type="curve" smooth="yes"/>
			<point x="111" y="-12"/>
			<point x="34" y="85"/>
		</contour>
		<contour>
			<point x="193" y="245" type="curve" smooth="yes"/>
			<point x="193" y="111"/>
			<point x="222" y="34"/>
			<point x="293" y="34" type="curve" smooth="yes"/>
			<point x="363" y="34"/>
			<point x="392" y="111"/>
			<point x="392" y="245" type="curve" smooth="yes"/>
			<point x="392" y="379"/>
			<point x="363" y="456"/>
			<point x="293" y="456" type="curve" smooth="yes"/>
			<point x="222" y="456"/>
			<point x="193" y="379"/>
		</contour>
	</outline>
</glyph>
<glyph name="oacute" format="1">
  <advance width="585"/>
  <unicode hex="00F3"/>
  <outline>
    <contour>
      <point x="34" y="245" type="curve" smooth="yes"/>
      <point x="34" y="405"/>
      <point x="111" y="502"/>
      <point x="293" y="502" type="curve" smooth="yes"/>
      <point x="475" y="502"/>
      <point x="552" y="405"/>
      <point x="552" y="245" type="curve" smooth="yes"/>
      <point x="552" y="85"/>
      <point x="475" y="-12"/>
      <point x="293" y="-12" type="curve" smooth="yes"/>
      <point x="111" y="-12"/>
      <point x="34" y="85"/>
    </contour>
    <contour>
      <point x="193" y="245" type="curve" smooth="yes"/>
      <point x="193" y="111"/>
      <point x="222" y="34"/>
      <point x="293" y="34" type="curve" smooth="yes"/>
      <point x="364" y="34"/>
      <point x="393" y="111"/>
      <point x="393" y="245" type="curve" smooth="yes"/>
      <point x="393" y="379"/>
      <point x="364" y="456"/>
      <point x="293" y="456" type="curve" smooth="yes"/>
      <point x="222" y="456"/>
      <point x="193" y="379"/>
    </contour>
    <contour>
      <point x="202" y="541" type="line"/>
      <point x="347" y="690" type="line" smooth="yes"/>
      <point x="384" y="728"/>
      <point x="401" y="740"/>
      <point x="421" y="740" type="curve" smooth="yes"/>
      <point x="445" y="740"/>
      <point x="474" y="705"/>
      <point x="474" y="680" type="curve" smooth="yes"/>
      <point x="474" y="654"/>
      <point x="442" y="634"/>
      <point x="406" y="614" type="curve" smooth="yes"/>
      <point x="223" y="511" type="line"/>
    </contour>
  </outline>
</glyph>
<glyph name="ocircumflex" format="1">
  <advance width="585"/>
  <unicode hex="00F4"/>
  <outline>
    <contour>
      <point x="34" y="245" type="curve" smooth="yes"/>
      <point x="34" y="405"/>
      <point x="111" y="502"/>
      <point x="293" y="502" type="curve" smooth="yes"/>
      <point x="475" y="502"/>
      <point x="552" y="405"/>
      <point x="552" y="245" type="curve" smooth="yes"/>
      <point x="552" y="85"/>
      <point x="475" y="-12"/>
      <point x="293" y="-12" type="curve" smooth="yes"/>
      <point x="111" y="-12"/>
      <point x="34" y="85"/>
    </contour>
    <contour>
      <point x="106" y="547" type="line"/>
      <point x="249" y="716" type="line" smooth="yes"/>
      <point x="264" y="734"/>
      <point x="279" y="747"/>
      <point x="293" y="747" type="curve" smooth="yes"/>
      <point x="307" y="747"/>
      <point x="322" y="733"/>
      <point x="337" y="716" type="curve" smooth="yes"/>
      <point x="480" y="547" type="line"/>
      <point x="456" y="520" type="line"/>
      <point x="331" y="614" type="line" smooth="yes"/>
      <point x="317" y="624"/>
      <point x="304" y="633"/>
      <point x="293" y="633" type="curve" smooth="yes"/>
      <point x="283" y="633"/>
      <point x="269" y="624"/>
      <point x="255" y="614" type="curve" smooth="yes"/>
      <point x="130" y="520" type="line"/>
    </contour>
    <contour>
      <point x="193" y="245" type="curve" smooth="yes"/>
      <point x="193" y="111"/>
      <point x="222" y="34"/>
      <point x="293" y="34" type="curve" smooth="yes"/>
      <point x="364" y="34"/>
      <point x="393" y="111"/>
      <point x="393" y="245" type="curve" smooth="yes"/>
      <point x="393" y="379"/>
      <point x="364" y="456"/>
      <point x="293" y="456" type="curve" smooth="yes"/>
      <point x="222" y="456"/>
      <point x="193" y="379"/>
    </contour>
  </outline>
</glyph>
<glyph name="divide" format="1">
  <advance width="600"/>
  <unicode hex="00F7"/>
  <outline>
    <contour>
      <point x="58" y="210" type="line"/>
      <point x="58" y="290" type="line"/>
      <point x="542" y="290" type="line"/>
      <point x="542" y="210" type="line"/>
    </contour>
    <contour>
      <point x="232" y="76" type="curve" smooth="yes"/>
      <point x="232" y="114"/>
      <point x="261" y="146"/>
      <point x="300" y="146" type="curve" smooth="yes"/>
      <point x="340" y="146"/>
      <point x="370" y="114"/>
      <point x="371" y="78" type="curve"/>
      <point x="370" y="76" type="line"/>
      <point x="370" y="38"/>
      <point x="340" y="6"/>
      <point x="300" y="6" type="curve" smooth="yes"/>
      <point x="261" y="6"/>
      <point x="232" y="38"/>
    </contour>
    <contour>
      <point x="232" y="424" type="curve" smooth="yes"/>
      <point x="232" y="462"/>
      <point x="261" y="494"/>
      <point x="300" y="494" type="curve" smooth="yes"/>
      <point x="340" y="494"/>
      <point x="370" y="462"/>
      <point x="371" y="426" type="curve"/>
      <point x="370" y="424" type="line"/>
      <point x="370" y="386"/>
      <point x="340" y="354"/>
      <point x="300" y="354" type="curve" smooth="yes"/>
      <point x="261" y="354"/>
      <point x="232" y="386"/>
    </contour>
  </outline>
</glyph>
<glyph name="oslash" format="1">
  <advance width="585"/>
  <unicode hex="00F8"/>
  <outline>
    <contour>
      <point x="34" y="245" type="curve" smooth="yes"/>
      <point x="34" y="405"/>
      <point x="111" y="502"/>
      <point x="293" y="502" type="curve" smooth="yes"/>
      <point x="338" y="502"/>
      <point x="377" y="496"/>
      <point x="409" y="484" type="curve"/>
      <point x="441" y="535" type="line"/>
      <point x="480" y="511" type="line"/>
      <point x="451" y="465" type="line"/>
      <point x="520" y="423"/>
      <point x="551" y="347"/>
      <point x="551" y="245" type="curve" smooth="yes"/>
      <point x="551" y="85"/>
      <point x="474" y="-12"/>
      <point x="293" y="-12" type="curve" smooth="yes"/>
      <point x="246" y="-12"/>
      <point x="207" y="-5"/>
      <point x="172" y="8" type="curve"/>
      <point x="136" y="-51" type="line"/>
      <point x="99" y="-23" type="line"/>
      <point x="130" y="28" type="line"/>
      <point x="64" y="70"/>
      <point x="34" y="145"/>
    </contour>
    <contour>
      <point x="189" y="245" type="curve" smooth="yes"/>
      <point x="189" y="204"/>
      <point x="192" y="168"/>
      <point x="198" y="139" type="curve"/>
      <point x="366" y="413" type="line"/>
      <point x="349" y="441"/>
      <point x="326" y="456"/>
      <point x="293" y="456" type="curve" smooth="yes"/>
      <point x="218" y="456"/>
      <point x="189" y="379"/>
    </contour>
    <contour>
      <point x="217" y="82" type="line"/>
      <point x="233" y="50"/>
      <point x="258" y="34"/>
      <point x="293" y="34" type="curve" smooth="yes"/>
      <point x="367" y="34"/>
      <point x="396" y="111"/>
      <point x="396" y="245" type="curve" smooth="yes"/>
      <point x="396" y="289"/>
      <point x="393" y="326"/>
      <point x="386" y="358" type="curve"/>
    </contour>
  </outline>
</glyph>
<glyph name="Cacute" format="1">
  <advance width="689"/>
  <unicode hex="0106"/>
  <outline>
    <contour>
      <point x="42" y="339" type="curve" smooth="yes"/>
      <point x="42" y="439"/>
      <point x="67" y="534"/>
      <point x="128" y="602" type="curve" smooth="yes"/>
      <point x="187" y="668"/>
      <point x="282" y="707"/>
      <point x="423" y="707" type="curve" smooth="yes"/>
      <point x="473" y="707"/>
      <point x="578" y="699"/>
      <point x="638" y="663" type="curve"/>
      <point x="638" y="484" type="line"/>
      <point x="600" y="484" type="line"/>
      <point x="577" y="556"/>
      <point x="542" y="661"/>
      <point x="414" y="661" type="curve" smooth="yes"/>
      <point x="233" y="661"/>
      <point x="219" y="428"/>
      <point x="219" y="355" type="curve" smooth="yes"/>
      <point x="219" y="242"/>
      <point x="244" y="31"/>
      <point x="422" y="31" type="curve" smooth="yes"/>
      <point x="535" y="31"/>
      <point x="578" y="118"/>
      <point x="616" y="228" type="curve"/>
      <point x="654" y="228" type="line"/>
      <point x="642" y="33" type="line"/>
      <point x="582" y="-3"/>
      <point x="478" y="-15"/>
      <point x="408" y="-15" type="curve" smooth="yes"/>
      <point x="151" y="-15"/>
      <point x="42" y="125"/>
    </contour>
    <contour>
      <point x="316" y="751" type="line"/>
      <point x="488" y="874" type="line" smooth="yes"/>
      <point x="519" y="897"/>
      <point x="534" y="904"/>
      <point x="552" y="904" type="curve" smooth="yes"/>
      <point x="584" y="904"/>
      <point x="606" y="860"/>
      <point x="606" y="840" type="curve" smooth="yes"/>
      <point x="606" y="811"/>
      <point x="586" y="800"/>
      <point x="533" y="783" type="curve" smooth="yes"/>
      <point x="330" y="719" type="line"/>
    </contour>
  </outline>
</glyph>
<glyph name="dcroat" format="2">
	<unicode hex="0111"/>
	<advance width="605"/>
	<outline>
		<component base="d"/>
		<contour>
			<point x="285" y="641" type="line"/>
			<point x="285" y="554" type="line"/>
			<point x="596" y="554" type="line"/>
			<point x="596" y="641" type="line"/>
		</contour>
	</outline>
</glyph>
<glyph name="eogonek" format="1">
  <advance width="519"/>
  <unicode hex="0119"/>
  <outline>
    <contour>
      <point x="34" y="245" type="curve" smooth="yes"/>
      <point x="34" y="385"/>
      <point x="101" y="502"/>
      <point x="281" y="502" type="curve" smooth="yes"/>
      <point x="474" y="502"/>
      <point x="505" y="376"/>
      <point x="505" y="294" type="curve" smooth="yes"/>
      <point x="505" y="262"/>
      <point x="487" y="252"/>
      <point x="451" y="252" type="curve" smooth="yes"/>
      <point x="193" y="252" type="line"/>
      <point x="193" y="147"/>
      <point x="227" y="65"/>
      <point x="327" y="65" type="curve" smooth="yes"/>
      <point x="388" y="65"/>
      <point x="431" y="97"/>
      <point x="461" y="154" type="curve"/>
      <point x="497" y="134" type="line"/>
      <point x="479" y="86"/>
      <point x="441" y="40"/>
      <point x="419" y="18" type="curve" smooth="yes"/>
      <point x="387" y="-14"/>
      <point x="334" y="-75"/>
      <point x="334" y="-128" type="curve" smooth="yes"/>
      <point x="334" y="-168"/>
      <point x="359" y="-188"/>
      <point x="392" y="-188" type="curve" smooth="yes"/>
      <point x="407" y="-188"/>
      <point x="428" y="-183"/>
      <point x="441" y="-175" type="curve"/>
      <point x="456" y="-202" type="line"/>
      <point x="419" y="-233"/>
      <point x="382" y="-242"/>
      <point x="351" y="-242" type="curve" smooth="yes"/>
      <point x="248" y="-242"/>
      <point x="233" y="-184"/>
      <point x="233" y="-147" type="curve" smooth="yes"/>
      <point x="233" y="-86"/>
      <point x="286" y="-40"/>
      <point x="342" y="-4" type="curve"/>
      <point x="319" y="-10"/>
      <point x="303" y="-12"/>
      <point x="279" y="-12" type="curve" smooth="yes"/>
      <point x="93" y="-12"/>
      <point x="34" y="109"/>
    </contour>
    <contour>
      <point x="193" y="300" type="curve"/>
      <point x="317" y="300" type="line" smooth="yes"/>
      <point x="340" y="300"/>
      <point x="348" y="306"/>
      <point x="348" y="333" type="curve" smooth="yes"/>
      <point x="348" y="380"/>
      <point x="338" y="456"/>
      <point x="277" y="456" type="curve" smooth="yes"/>
      <point x="212" y="456"/>
      <point x="193" y="372"/>
    </contour>
  </outline>
</glyph>
<glyph name="ecaron" format="1">
  <advance width="519"/>
  <unicode hex="011B"/>
  <outline>
    <contour>
      <point x="34" y="245" type="curve" smooth="yes"/>
      <point x="34" y="385"/>
      <point x="101" y="502"/>
      <point x="281" y="502" type="curve" smooth="yes"/>
      <point x="474" y="502"/>
      <point x="505" y="376"/>
      <point x="505" y="294" type="curve" smooth="yes"/>
      <point x="505" y="262"/>
      <point x="487" y="252"/>
      <point x="451" y="252" type="curve" smooth="yes"/>
      <point x="193" y="252" type="line"/>
      <point x="193" y="147"/>
      <point x="227" y="65"/>
      <point x="327" y="65" type="curve" smooth="yes"/>
      <point x="388" y="65"/>
      <point x="431" y="97"/>
      <point x="461" y="154" type="curve"/>
      <point x="497" y="134" type="line"/>
      <point x="463" y="46"/>
      <point x="398" y="-12"/>
      <point x="279" y="-12" type="curve" smooth="yes"/>
      <point x="93" y="-12"/>
      <point x="34" y="109"/>
    </contour>
    <contour>
      <point x="93" y="720" type="line"/>
      <point x="117" y="747" type="line"/>
      <point x="242" y="653" type="line" smooth="yes"/>
      <point x="256" y="643"/>
      <point x="270" y="634"/>
      <point x="280" y="634" type="curve" smooth="yes"/>
      <point x="291" y="634"/>
      <point x="304" y="643"/>
      <point x="318" y="653" type="curve" smooth="yes"/>
      <point x="443" y="747" type="line"/>
      <point x="467" y="720" type="line"/>
      <point x="324" y="551" type="line" smooth="yes"/>
      <point x="309" y="534"/>
      <point x="294" y="520"/>
      <point x="280" y="520" type="curve" smooth="yes"/>
      <point x="266" y="520"/>
      <point x="251" y="533"/>
      <point x="236" y="551" type="curve" smooth="yes"/>
    </contour>
    <contour>
      <point x="193" y="300" type="curve"/>
      <point x="317" y="300" type="line" smooth="yes"/>
      <point x="340" y="300"/>
      <point x="348" y="306"/>
      <point x="348" y="333" type="curve" smooth="yes"/>
      <point x="348" y="380"/>
      <point x="338" y="456"/>
      <point x="277" y="456" type="curve" smooth="yes"/>
      <point x="212" y="456"/>
      <point x="193" y="372"/>
    </contour>
  </outline>
</glyph>
<glyph name="Gdotaccent" format="1">
  <advance width="726"/>
  <unicode hex="0120"/>
  <outline>
    <contour>
      <point x="42" y="341" type="curve" smooth="yes"/>
      <point x="42" y="479"/>
      <point x="94" y="707"/>
      <point x="414" y="707" type="curve" smooth="yes"/>
      <point x="493" y="707"/>
      <point x="580" y="697"/>
      <point x="643" y="663" type="curve"/>
      <point x="643" y="481" type="line"/>
      <point x="605" y="481" type="line"/>
      <point x="577" y="567"/>
      <point x="530" y="661"/>
      <point x="419" y="661" type="curve" smooth="yes"/>
      <point x="244" y="661"/>
      <point x="219" y="456"/>
      <point x="219" y="354" type="curve" smooth="yes"/>
      <point x="219" y="281"/>
      <point x="229" y="31"/>
      <point x="410" y="31" type="curve" smooth="yes"/>
      <point x="479" y="31"/>
      <point x="493" y="41"/>
      <point x="493" y="76" type="curve" smooth="yes"/>
      <point x="493" y="217" type="line" smooth="yes"/>
      <point x="493" y="266"/>
      <point x="485" y="271"/>
      <point x="407" y="276" type="curve"/>
      <point x="407" y="314" type="line"/>
      <point x="709" y="314" type="line"/>
      <point x="709" y="276" type="line"/>
      <point x="661" y="271"/>
      <point x="653" y="266"/>
      <point x="653" y="219" type="curve" smooth="yes"/>
      <point x="653" y="33" type="line"/>
      <point x="583" y="2"/>
      <point x="486" y="-15"/>
      <point x="410" y="-15" type="curve" smooth="yes"/>
      <point x="344" y="-15"/>
      <point x="250" y="-9"/>
      <point x="177" y="40" type="curve" smooth="yes"/>
      <point x="101" y="91"/>
      <point x="42" y="183"/>
    </contour>
    <contour>
      <point x="335" y="806" type="curve" smooth="yes"/>
      <point x="335" y="844"/>
      <point x="363" y="881"/>
      <point x="414" y="881" type="curve" smooth="yes"/>
      <point x="465" y="881"/>
      <point x="493" y="844"/>
      <point x="493" y="806" type="curve" smooth="yes"/>
      <point x="493" y="768"/>
      <point x="465" y="731"/>
      <point x="414" y="731" type="curve" smooth="yes"/>
      <point x="363" y="731"/>
      <point x="335" y="768"/>
    </contour>
  </outline>
</glyph>
<glyph name="Hbar" format="2">
  <advance width="807"/>
  <unicode hex="0126"/>
  <outline>
    <contour>
      <point x="33" y="0" type="line"/>
      <point x="33" y="38" type="line"/>
      <point x="104" y="41"/>
      <point x="112" y="46"/>
      <point x="112" y="97" type="curve" smooth="yes"/>
      <point x="112" y="553" type="line"/>
      <point x="42" y="553" type="line"/>
      <point x="42" y="599" type="line"/>
      <point x="112" y="599" type="line"/>
      <point x="112" y="646"/>
      <point x="102" y="651"/>
      <point x="33" y="654" type="curve"/>
      <point x="33" y="692" type="line"/>
      <point x="351" y="692" type="line"/>
      <point x="351" y="654" type="line"/>
      <point x="282" y="651"/>
      <point x="272" y="646"/>
      <point x="272" y="599" type="curve"/>
      <point x="535" y="599" type="line"/>
      <point x="535" y="646"/>
      <point x="525" y="651"/>
      <point x="456" y="654" type="curve"/>
      <point x="456" y="692" type="line"/>
      <point x="774" y="692" type="line"/>
      <point x="774" y="654" type="line"/>
      <point x="705" y="651"/>
      <point x="695" y="646"/>
      <point x="695" y="599" type="curve"/>
      <point x="765" y="599" type="line"/>
      <point x="765" y="553" type="line"/>
      <point x="695" y="553" type="line"/>
      <point x="695" y="97" type="line" smooth="yes"/>
      <point x="695" y="46"/>
      <point x="703" y="41"/>
      <point x="774" y="38" type="curve"/>
      <point x="774" y="0" type="line"/>
      <point x="456" y="0" type="line"/>
      <point x="456" y="38" type="line"/>
      <point x="527" y="41"/>
      <point x="535" y="46"/>
      <point x="535" y="97" type="curve" smooth="yes"/>
      <point x="535" y="341" type="line"/>
      <point x="272" y="341" type="line"/>
      <point x="272" y="97" type="line" smooth="yes"/>
      <point x="272" y="46"/>
      <point x="280" y="41"/>
      <point x="351" y="38" type="curve"/>
      <point x="351" y="0" type="line"/>
    </contour>
    <contour>
      <point x="272" y="389" type="line"/>
      <point x="535" y="389" type="line"/>
      <point x="535" y="553" type="line"/>
      <point x="272" y="553" type="line"/>
    </contour>
  </outline>
</glyph>
<glyph name="Imacron" format="1">
  <advance width="384"/>
  <unicode hex="012A"/>
  <outline>
    <contour>
      <point x="17" y="765" type="line"/>
      <point x="17" y="852" type="line"/>
      <point x="367" y="852" type="line"/>
      <point x="367" y="765" type="line"/>
    </contour>
    <contour>
      <point x="33" y="0" type="line"/>
      <point x="33" y="38" type="line"/>
      <point x="104" y="41"/>
      <point x="112" y="46"/>
      <point x="112" y="97" type="curve" smooth="yes"/>
      <point x="112" y="595" type="line" smooth="yes"/>
      <point x="112" y="646"/>
      <point x="104" y="651"/>
      <point x="33" y="654" type="curve"/>
      <point x="33" y="692" type="line"/>
      <point x="351" y="692" type="line"/>
      <point x="351" y="654" type="line"/>
      <point x="280" y="651"/>
      <point x="272" y="646"/>
      <point x="272" y="595" type="curve" smooth="yes"/>
      <point x="272" y="97" type="line" smooth="yes"/>
      <point x="272" y="46"/>
      <point x="280" y="41"/>
      <point x="351" y="38" type="curve"/>
      <point x="351" y="0" type="line"/>
    </contour>
  </outline>
</glyph>
<glyph name="Ibreve" format="1">
  <advance width="384"/>
  <unicode hex="012C"/>
  <outline>
    <contour>
      <point x="27" y="896" type="curve"/>
      <point x="68" y="896" type="line"/>
      <point x="70" y="872"/>
      <point x="93" y="827"/>
      <point x="192" y="827" type="curve" smooth="yes"/>
      <point x="291" y="827"/>
      <point x="314" y="872"/>
      <point x="316" y="896" type="curve"/>
      <point x="357" y="896" type="line"/>
      <point x="357" y="822"/>
      <point x="331" y="746"/>
      <point x="192" y="746" type="curve" smooth="yes"/>
      <point x="53" y="746"/>
      <point x="27" y="822"/>
    </contour>
    <contour>
      <point x="33" y="0" type="line"/>
      <point x="33" y="38" type="line"/>
      <point x="104" y="41"/>
      <point x="112" y="46"/>
      <point x="112" y="97" type="curve" smooth="yes"/>
      <point x="112" y="595" type="line" smooth="yes"/>
      <point x="112" y="646"/>
      <point x="104" y="651"/>
      <point x="33" y="654" type="curve"/>
      <point x="33" y="692" type="line"/>
      <point x="351" y="692" type="line"/>
      <point x="351" y="654" type="line"/>
      <point x="280" y="651"/>
      <point x="272" y="646"/>
      <point x="272" y="595" type="curve" smooth="yes"/>
      <point x="272" y="97" type="line" smooth="yes"/>
      <point x="272" y="46"/>
      <point x="280" y="41"/>
      <point x="351" y="38" type="curve"/>
      <point x="351" y="0" type="line"/>
    </contour>
  </outline>
</glyph>
<glyph name="ibreve" format="1">
  <advance width="316"/>
  <unicode hex="012D"/>
  <outline>
    <contour>
      <point x="6" y="716" type="curve"/>
      <point x="44" y="716" type="line"/>
      <point x="46" y="692"/>
      <point x="63" y="641"/>
      <point x="165" y="641" type="curve" smooth="yes"/>
      <point x="267" y="641"/>
      <point x="284" y="692"/>
      <point x="286" y="716" type="curve"/>
      <point x="325" y="716" type="line"/>
      <point x="325" y="646"/>
      <point x="308" y="556"/>
      <point x="166" y="556" type="curve" smooth="yes"/>
      <point x="23" y="556"/>
      <point x="6" y="640"/>
    </contour>
    <contour>
      <point x="26" y="0" type="line"/>
      <point x="26" y="38" type="line"/>
      <point x="83" y="41"/>
      <point x="91" y="45"/>
      <point x="91" y="87" type="curve" smooth="yes"/>
      <point x="91" y="381" type="line" smooth="yes"/>
      <point x="91" y="421"/>
      <point x="83" y="430"/>
      <point x="67" y="432" type="curve" smooth="yes"/>
      <point x="32" y="437" type="line"/>
      <point x="32" y="473" type="line"/>
      <point x="235" y="502" type="line"/>
      <point x="242" y="496" type="line"/>
      <point x="242" y="87" type="line" smooth="yes"/>
      <point x="242" y="45"/>
      <point x="250" y="41"/>
      <point x="307" y="38" type="curve"/>
      <point x="307" y="0" type="line"/>
    </contour>
  </outline>
</glyph>
<glyph name="Iogonek" format="1">
  <advance width="384"/>
  <unicode hex="012E"/>
  <outline>
    <contour>
      <point x="33" y="0" type="line"/>
      <point x="34" y="38" type="line"/>
      <point x="105" y="41"/>
      <point x="113" y="46"/>
      <point x="113" y="97" type="curve" smooth="yes"/>
      <point x="113" y="595" type="line" smooth="yes"/>
      <point x="113" y="646"/>
      <point x="105" y="651"/>
      <point x="34" y="654" type="curve"/>
      <point x="34" y="692" type="line"/>
      <point x="352" y="692" type="line"/>
      <point x="352" y="654" type="line"/>
      <point x="281" y="651"/>
      <point x="273" y="646"/>
      <point x="273" y="595" type="curve" smooth="yes"/>
      <point x="273" y="97" type="line" smooth="yes"/>
      <point x="273" y="46"/>
      <point x="281" y="41"/>
      <point x="352" y="38" type="curve"/>
      <point x="352" y="0" type="line"/>
      <point x="212" y="0" type="line"/>
      <point x="164" y="-41"/>
      <point x="139" y="-84"/>
      <point x="139" y="-122" type="curve" smooth="yes"/>
      <point x="140" y="-162"/>
      <point x="166" y="-184"/>
      <point x="199" y="-184" type="curve" smooth="yes"/>
      <point x="214" y="-184"/>
      <point x="235" y="-179"/>
      <point x="248" y="-171" type="curve"/>
      <point x="263" y="-198" type="line"/>
      <point x="226" y="-229"/>
      <point x="189" y="-238"/>
      <point x="158" y="-238" type="curve" smooth="yes"/>
      <point x="55" y="-238"/>
      <point x="43" y="-174"/>
      <point x="43" y="-141" type="curve" smooth="yes"/>
      <point x="43" y="-94"/>
      <point x="90" y="-36"/>
      <point x="149" y="0" type="curve"/>
    </contour>
  </outline>
</glyph>
<glyph name="IJ" format="2">
  <advance width="770"/>
  <unicode hex="0132"/>
  <outline>
    <contour>
      <point x="33" y="0" type="line"/>
      <point x="33" y="38" type="line"/>
      <point x="104" y="41"/>
      <point x="112" y="46"/>
      <point x="112" y="97" type="curve" smooth="yes"/>
      <point x="112" y="595" type="line" smooth="yes"/>
      <point x="112" y="646"/>
      <point x="104" y="651"/>
      <point x="33" y="654" type="curve"/>
      <point x="33" y="692" type="line"/>
      <point x="351" y="692" type="line"/>
      <point x="351" y="654" type="line"/>
      <point x="280" y="651"/>
      <point x="272" y="646"/>
      <point x="272" y="595" type="curve" smooth="yes"/>
      <point x="272" y="97" type="line" smooth="yes"/>
      <point x="272" y="46"/>
      <point x="280" y="41"/>
      <point x="351" y="38" type="curve"/>
      <point x="351" y="0" type="line"/>
    </contour>
    <contour>
      <point x="390" y="-83" type="line"/>
      <point x="425" y="-72"/>
      <point x="446" y="-60"/>
      <point x="467" y="-36" type="curve" smooth="yes"/>
      <point x="490" y="-10"/>
      <point x="506" y="50"/>
      <point x="506" y="146" type="curve" smooth="yes"/>
      <point x="506" y="595" type="line" smooth="yes"/>
      <point x="506" y="646"/>
      <point x="498" y="651"/>
      <point x="427" y="654" type="curve"/>
      <point x="427" y="692" type="line"/>
      <point x="745" y="692" type="line"/>
      <point x="745" y="654" type="line"/>
      <point x="674" y="651"/>
      <point x="666" y="646"/>
      <point x="666" y="595" type="curve" smooth="yes"/>
      <point x="666" y="143" type="line" smooth="yes"/>
      <point x="666" y="30"/>
      <point x="639" y="-44"/>
      <point x="562" y="-81" type="curve" smooth="yes"/>
      <point x="511" y="-105"/>
      <point x="452" y="-115"/>
      <point x="396" y="-114" type="curve"/>
    </contour>
  </outline>
</glyph>
<glyph name="ij" format="1">
  <advance width="632"/>
  <unicode hex="0133"/>
  <outline>
    <contour>
      <point x="26" y="0" type="line"/>
      <point x="26" y="38" type="line"/>
      <point x="83" y="41"/>
      <point x="91" y="45"/>
      <point x="91" y="87" type="curve" smooth="yes"/>
      <point x="91" y="381" type="line" smooth="yes"/>
      <point x="91" y="421"/>
      <point x="83" y="430"/>
      <point x="67" y="432" type="curve" smooth="yes"/>
      <point x="32" y="437" type="line"/>
      <point x="32" y="473" type="line"/>
      <point x="235" y="502" type="line"/>
      <point x="242" y="496" type="line"/>
      <point x="242" y="87" type="line" smooth="yes"/>
      <point x="242" y="45"/>
      <point x="250" y="41"/>
      <point x="307" y="38" type="curve"/>
      <point x="307" y="0" type="line"/>
    </contour>
    <contour>
      <point x="70" y="633" type="curve" smooth="yes"/>
      <point x="70" y="680"/>
      <point x="105" y="720"/>
      <point x="161" y="720" type="curve" smooth="yes"/>
      <point x="218" y="720"/>
      <point x="253" y="680"/>
      <point x="253" y="633" type="curve" smooth="yes"/>
      <point x="253" y="585"/>
      <point x="216" y="545"/>
      <point x="161" y="545" type="curve" smooth="yes"/>
      <point x="105" y="545"/>
      <point x="70" y="585"/>
    </contour>
    <contour>
      <point x="304" y="-201" type="line"/>
      <point x="331" y="-192"/>
      <point x="356" y="-181"/>
      <point x="376" y="-156" type="curve" smooth="yes"/>
      <point x="398" y="-128"/>
      <point x="414" y="-69"/>
      <point x="414" y="31" type="curve" smooth="yes"/>
      <point x="414" y="381" type="line" smooth="yes"/>
      <point x="414" y="421"/>
      <point x="406" y="430"/>
      <point x="390" y="432" type="curve" smooth="yes"/>
      <point x="355" y="437" type="line"/>
      <point x="355" y="473" type="line"/>
      <point x="558" y="502" type="line"/>
      <point x="565" y="496" type="line"/>
      <point x="565" y="25" type="line" smooth="yes"/>
      <point x="565" y="-84"/>
      <point x="543" y="-162"/>
      <point x="474" y="-198" type="curve" smooth="yes"/>
      <point x="424" y="-224"/>
      <point x="367" y="-232"/>
      <point x="308" y="-232" type="curve"/>
    </contour>
    <contour>
      <point x="393" y="633" type="curve" smooth="yes"/>
      <point x="393" y="680"/>
      <point x="428" y="720"/>
      <point x="484" y="720" type="curve" smooth="yes"/>
      <point x="541" y="720"/>
      <point x="576" y="680"/>
      <point x="576" y="633" type="curve" smooth="yes"/>
      <point x="576" y="585"/>
      <point x="539" y="545"/>
      <point x="484" y="545" type="curve" smooth="yes"/>
      <point x="428" y="545"/>
      <point x="393" y="585"/>
    </contour>
  </outline>
</glyph>
<glyph name="Kcedilla" format="2">
  <advance width="750"/>
  <unicode hex="0136"/>
  <outline>
    <contour>
      <point x="32" y="0" type="line"/>
      <point x="32" y="38" type="line"/>
      <point x="103" y="41"/>
      <point x="111" y="46"/>
      <point x="111" y="97" type="curve" smooth="yes"/>
      <point x="111" y="595" type="line" smooth="yes"/>
      <point x="111" y="646"/>
      <point x="103" y="651"/>
      <point x="32" y="654" type="curve"/>
      <point x="32" y="692" type="line"/>
      <point x="350" y="692" type="line"/>
      <point x="350" y="654" type="line"/>
      <point x="279" y="651"/>
      <point x="271" y="646"/>
      <point x="271" y="595" type="curve" smooth="yes"/>
      <point x="271" y="359" type="line"/>
      <point x="286.324" y="376.659"/>
      <point x="363.07" y="465.1"/>
      <point x="376" y="480" type="curve" smooth="yes"/>
      <point x="427" y="538"/>
      <point x="466" y="589"/>
      <point x="492" y="622" type="curve" smooth="yes"/>
      <point x="505" y="638"/>
      <point x="502" y="648"/>
      <point x="486" y="650" type="curve" smooth="yes"/>
      <point x="444" y="656" type="line"/>
      <point x="444" y="692" type="line"/>
      <point x="716" y="692" type="line"/>
      <point x="716" y="656" type="line"/>
      <point x="655" y="651"/>
      <point x="636" y="641"/>
      <point x="601" y="615" type="curve" smooth="yes"/>
      <point x="530" y="562"/>
      <point x="477" y="500"/>
      <point x="400" y="419" type="curve"/>
      <point x="455" y="327"/>
      <point x="551" y="189"/>
      <point x="636" y="92" type="curve" smooth="yes"/>
      <point x="664" y="60"/>
      <point x="687" y="40"/>
      <point x="708" y="35" type="curve"/>
      <point x="718" y="32" type="line"/>
      <point x="718" y="-6" type="line"/>
      <point x="707.43" y="-5.689"/>
      <point x="664.972" y="-4.44"/>
      <point x="650" y="-4" type="curve" smooth="yes"/>
      <point x="524" y="0"/>
      <point x="477" y="25"/>
      <point x="410" y="119" type="curve" smooth="yes"/>
      <point x="361" y="189"/>
      <point x="325" y="241"/>
      <point x="273" y="339" type="curve"/>
      <point x="271" y="339" type="line"/>
      <point x="271" y="97" type="line" smooth="yes"/>
      <point x="271" y="46"/>
      <point x="279" y="41"/>
      <point x="350" y="38" type="curve"/>
      <point x="350" y="0" type="line"/>
    </contour>
    <contour>
      <point x="356" y="-300" type="line"/>
      <point x="384" y="-269"/>
      <point x="401" y="-246"/>
      <point x="401" y="-208" type="curve" smooth="yes"/>
      <point x="401" y="-179"/>
      <point x="366" y="-158"/>
      <point x="366" y="-124" type="curve" smooth="yes"/>
      <point x="366" y="-94"/>
      <point x="389" y="-66"/>
      <point x="425" y="-66" type="curve" smooth="yes"/>
      <point x="468" y="-66"/>
      <point x="501" y="-97"/>
      <point x="501" y="-151" type="curve" smooth="yes"/>
      <point x="501" y="-223"/>
      <point x="433" y="-278"/>
      <point x="377" y="-321" type="curve"/>
    </contour>
  </outline>
</glyph>
<glyph name="uni0136" format="1">
  <advance width="707"/>
  <unicode hex="0136"/>
  <outline>
    <contour>
      <point x="32" y="0" type="line"/>
      <point x="32" y="38" type="line"/>
      <point x="103" y="41"/>
      <point x="111" y="46"/>
      <point x="111" y="97" type="curve" smooth="yes"/>
      <point x="111" y="595" type="line" smooth="yes"/>
      <point x="111" y="646"/>
      <point x="103" y="651"/>
      <point x="32" y="654" type="curve"/>
      <point x="32" y="692" type="line"/>
      <point x="350" y="692" type="line"/>
      <point x="350" y="654" type="line"/>
      <point x="279" y="651"/>
      <point x="271" y="646"/>
      <point x="271" y="595" type="curve" smooth="yes"/>
      <point x="271" y="359" type="line"/>
      <point x="376" y="480" type="line" smooth="yes"/>
      <point x="427" y="538"/>
      <point x="466" y="589"/>
      <point x="492" y="622" type="curve" smooth="yes"/>
      <point x="505" y="638"/>
      <point x="502" y="648"/>
      <point x="486" y="650" type="curve" smooth="yes"/>
      <point x="444" y="656" type="line"/>
      <point x="444" y="692" type="line"/>
      <point x="716" y="692" type="line"/>
      <point x="716" y="656" type="line"/>
      <point x="655" y="651"/>
      <point x="636" y="641"/>
      <point x="601" y="615" type="curve" smooth="yes"/>
      <point x="530" y="562"/>
      <point x="477" y="500"/>
      <point x="400" y="419" type="curve"/>
      <point x="455" y="327"/>
      <point x="551" y="189"/>
      <point x="636" y="92" type="curve" smooth="yes"/>
      <point x="664" y="60"/>
      <point x="687" y="40"/>
      <point x="708" y="35" type="curve" smooth="yes"/>
      <point x="718" y="32" type="line"/>
      <point x="718" y="-6" type="line"/>
      <point x="650" y="-4" type="line" smooth="yes"/>
      <point x="524" y="0"/>
      <point x="477" y="25"/>
      <point x="410" y="119" type="curve" smooth="yes"/>
      <point x="361" y="189"/>
      <point x="325" y="241"/>
      <point x="273" y="339" type="curve"/>
      <point x="271" y="339" type="line"/>
      <point x="271" y="97" type="line" smooth="yes"/>
      <point x="271" y="46"/>
      <point x="279" y="41"/>
      <point x="350" y="38" type="curve"/>
      <point x="350" y="0" type="line"/>
    </contour>
    <contour>
      <point x="646" y="-300" type="line"/>
      <point x="674" y="-269"/>
      <point x="691" y="-246"/>
      <point x="691" y="-208" type="curve" smooth="yes"/>
      <point x="691" y="-179"/>
      <point x="656" y="-158"/>
      <point x="656" y="-124" type="curve" smooth="yes"/>
      <point x="656" y="-94"/>
      <point x="679" y="-66"/>
      <point x="715" y="-66" type="curve" smooth="yes"/>
      <point x="758" y="-66"/>
      <point x="791" y="-97"/>
      <point x="791" y="-151" type="curve" smooth="yes"/>
      <point x="791" y="-223"/>
      <point x="723" y="-278"/>
      <point x="667" y="-321" type="curve"/>
    </contour>
  </outline>
</glyph>
<glyph name="uni013B" format="1">
  <advance width="585"/>
  <unicode hex="013B"/>
  <outline>
    <contour>
      <point x="33" y="0" type="line"/>
      <point x="33" y="38" type="line"/>
      <point x="104" y="41"/>
      <point x="112" y="46"/>
      <point x="112" y="97" type="curve" smooth="yes"/>
      <point x="112" y="595" type="line" smooth="yes"/>
      <point x="112" y="646"/>
      <point x="104" y="651"/>
      <point x="33" y="654" type="curve"/>
      <point x="33" y="692" type="line"/>
      <point x="363" y="692" type="line"/>
      <point x="363" y="654" type="line"/>
      <point x="280" y="651"/>
      <point x="272" y="646"/>
      <point x="272" y="595" type="curve" smooth="yes"/>
      <point x="272" y="119" type="line" smooth="yes"/>
      <point x="272" y="55"/>
      <point x="299" y="46"/>
      <point x="383" y="46" type="curve" smooth="yes"/>
      <point x="497" y="46"/>
      <point x="510" y="101"/>
      <point x="546" y="201" type="curve"/>
      <point x="584" y="201" type="line"/>
      <point x="572" y="0" type="line"/>
    </contour>
    <contour>
      <point x="230" y="-294" type="line"/>
      <point x="258" y="-263"/>
      <point x="275" y="-240"/>
      <point x="275" y="-202" type="curve" smooth="yes"/>
      <point x="275" y="-173"/>
      <point x="240" y="-152"/>
      <point x="240" y="-118" type="curve" smooth="yes"/>
      <point x="240" y="-88"/>
      <point x="263" y="-60"/>
      <point x="299" y="-60" type="curve" smooth="yes"/>
      <point x="342" y="-60"/>
      <point x="375" y="-91"/>
      <point x="375" y="-145" type="curve" smooth="yes"/>
      <point x="375" y="-217"/>
      <point x="307" y="-272"/>
      <point x="251" y="-315" type="curve"/>
    </contour>
  </outline>
</glyph>
<glyph name="uni013C" format="1">
  <advance width="309"/>
  <unicode hex="013C"/>
  <outline>
    <contour>
      <point x="19" y="0" type="line"/>
      <point x="19" y="38" type="line"/>
      <point x="76" y="41"/>
      <point x="84" y="45"/>
      <point x="84" y="87" type="curve" smooth="yes"/>
      <point x="84" y="621" type="line" smooth="yes"/>
      <point x="84" y="661"/>
      <point x="76" y="670"/>
      <point x="60" y="673" type="curve" smooth="yes"/>
      <point x="25" y="679" type="line"/>
      <point x="25" y="715" type="line"/>
      <point x="228" y="742" type="line"/>
      <point x="235" y="736" type="line"/>
      <point x="235" y="87" type="line" smooth="yes"/>
      <point x="235" y="45"/>
      <point x="243" y="41"/>
      <point x="300" y="38" type="curve"/>
      <point x="300" y="0" type="line"/>
    </contour>
    <contour>
      <point x="87" y="-294" type="line"/>
      <point x="115" y="-263"/>
      <point x="132" y="-240"/>
      <point x="132" y="-202" type="curve" smooth="yes"/>
      <point x="132" y="-173"/>
      <point x="97" y="-152"/>
      <point x="97" y="-118" type="curve" smooth="yes"/>
      <point x="97" y="-88"/>
      <point x="120" y="-60"/>
      <point x="156" y="-60" type="curve" smooth="yes"/>
      <point x="199" y="-60"/>
      <point x="232" y="-91"/>
      <point x="232" y="-145" type="curve" smooth="yes"/>
      <point x="232" y="-217"/>
      <point x="164" y="-272"/>
      <point x="108" y="-315" type="curve"/>
    </contour>
  </outline>
</glyph>
<glyph name="Lcaron" format="1">
  <advance width="585"/>
  <unicode hex="013D"/>
  <outline>
    <contour>
      <point x="33" y="0" type="line"/>
      <point x="33" y="38" type="line"/>
      <point x="104" y="41"/>
      <point x="112" y="46"/>
      <point x="112" y="97" type="curve" smooth="yes"/>
      <point x="112" y="595" type="line" smooth="yes"/>
      <point x="112" y="646"/>
      <point x="104" y="651"/>
      <point x="33" y="654" type="curve"/>
      <point x="33" y="692" type="line"/>
      <point x="363" y="692" type="line"/>
      <point x="363" y="654" type="line"/>
      <point x="280" y="651"/>
      <point x="272" y="646"/>
      <point x="272" y="595" type="curve" smooth="yes"/>
      <point x="272" y="119" type="line" smooth="yes"/>
      <point x="272" y="55"/>
      <point x="299" y="46"/>
      <point x="383" y="46" type="curve" smooth="yes"/>
      <point x="497" y="46"/>
      <point x="510" y="101"/>
      <point x="546" y="201" type="curve"/>
      <point x="584" y="201" type="line"/>
      <point x="572" y="0" type="line"/>
    </contour>
    <contour>
      <point x="398" y="749" type="curve" smooth="yes"/>
      <point x="398" y="788"/>
      <point x="422" y="811"/>
      <point x="462" y="811" type="curve" smooth="yes"/>
      <point x="515" y="811"/>
      <point x="542" y="764"/>
      <point x="542" y="708" type="curve" smooth="yes"/>
      <point x="542" y="644"/>
      <point x="506" y="577"/>
      <point x="465" y="532" type="curve"/>
      <point x="433" y="555" type="line"/>
      <point x="448" y="587"/>
      <point x="449" y="621"/>
      <point x="449" y="647" type="curve" smooth="yes"/>
      <point x="449" y="689"/>
      <point x="398" y="706"/>
    </contour>
  </outline>
</glyph>
<glyph name="lcaron" format="2">
	<unicode hex="013E"/>
	<advance width="384"/>
	<outline>
		<contour>
			<point x="19" y="0" type="line"/>
			<point x="19" y="38" type="line"/>
			<point x="76" y="41"/>
			<point x="84" y="45"/>
			<point x="84" y="87" type="curve" smooth="yes"/>
			<point x="84" y="621" type="line" smooth="yes"/>
			<point x="84" y="661"/>
			<point x="76" y="670"/>
			<point x="60" y="673" type="curve" smooth="yes"/>
			<point x="25" y="679" type="line"/>
			<point x="25" y="715" type="line"/>
			<point x="228" y="742" type="line"/>
			<point x="235" y="736" type="line"/>
			<point x="235" y="87" type="line" smooth="yes"/>
			<point x="235" y="45"/>
			<point x="243" y="41"/>
			<point x="300" y="38" type="curve"/>
			<point x="300" y="0" type="line"/>
		</contour>
		<contour>
			<point x="263" y="749" type="curve" smooth="yes"/>
			<point x="263" y="788"/>
			<point x="287" y="811"/>
			<point x="327" y="811" type="curve" smooth="yes"/>
			<point x="380" y="811"/>
			<point x="407" y="764"/>
			<point x="407" y="708" type="curve" smooth="yes"/>
			<point x="407" y="644"/>
			<point x="371" y="577"/>
			<point x="330" y="532" type="curve"/>
			<point x="298" y="555" type="line"/>
			<point x="313" y="587"/>
			<point x="314" y="621"/>
			<point x="314" y="647" type="curve" smooth="yes"/>
			<point x="314" y="689"/>
			<point x="263" y="706"/>
		</contour>
	</outline>
</glyph>
<glyph name="Ldot" format="1">
  <advance width="585"/>
  <unicode hex="013F"/>
  <outline>
    <contour>
      <point x="33" y="0" type="line"/>
      <point x="33" y="38" type="line"/>
      <point x="104" y="41"/>
      <point x="112" y="46"/>
      <point x="112" y="97" type="curve" smooth="yes"/>
      <point x="112" y="595" type="line" smooth="yes"/>
      <point x="112" y="646"/>
      <point x="104" y="651"/>
      <point x="33" y="654" type="curve"/>
      <point x="33" y="692" type="line"/>
      <point x="363" y="692" type="line"/>
      <point x="363" y="654" type="line"/>
      <point x="280" y="651"/>
      <point x="272" y="646"/>
      <point x="272" y="595" type="curve" smooth="yes"/>
      <point x="272" y="340" type="line"/>
      <point x="278" y="341"/>
      <point x="285" y="342"/>
      <point x="292" y="342" type="curve" smooth="yes"/>
      <point x="347" y="342"/>
      <point x="385" y="304"/>
      <point x="385" y="249" type="curve" smooth="yes"/>
      <point x="385" y="194"/>
      <point x="347" y="156"/>
      <point x="292" y="156" type="curve" smooth="yes"/>
      <point x="285" y="156"/>
      <point x="278" y="157"/>
      <point x="272" y="158" type="curve"/>
      <point x="272" y="119" type="line" smooth="yes"/>
      <point x="272" y="55"/>
      <point x="299" y="46"/>
      <point x="383" y="46" type="curve" smooth="yes"/>
      <point x="497" y="46"/>
      <point x="510" y="101"/>
      <point x="546" y="201" type="curve"/>
      <point x="584" y="201" type="line"/>
      <point x="572" y="0" type="line"/>
    </contour>
  </outline>
</glyph>
<glyph name="Lslash" format="2">
	<unicode hex="0141"/>
	<advance width="591"/>
	<outline>
		<component base="L" xOffset="6"/>
		<contour>
			<point x="30" y="238" type="line"/>
			<point x="30" y="178" type="line"/>
			<point x="421" y="459" type="line"/>
			<point x="421" y="519" type="line"/>
		</contour>
	</outline>
</glyph>
<glyph name="lslash" format="2">
  <advance width="321"/>
  <unicode hex="0142"/>
  <outline>
    <contour>
      <point x="16" y="206" type="line"/>
      <point x="16" y="265" type="line"/>
      <point x="90" y="321" type="line"/>
      <point x="90" y="621" type="line" smooth="yes"/>
      <point x="90" y="661"/>
      <point x="82" y="670"/>
      <point x="66" y="673" type="curve" smooth="yes"/>
      <point x="31" y="679" type="line"/>
      <point x="31" y="715" type="line"/>
      <point x="234" y="742" type="line"/>
      <point x="241" y="736" type="line"/>
      <point x="241" y="435" type="line"/>
      <point x="332" y="504" type="line"/>
      <point x="332" y="446" type="line"/>
      <point x="241" y="377" type="line"/>
      <point x="241" y="87" type="line" smooth="yes"/>
      <point x="241" y="45"/>
      <point x="249" y="41"/>
      <point x="306" y="38" type="curve"/>
      <point x="306" y="0" type="line"/>
      <point x="25" y="0" type="line"/>
      <point x="25" y="38" type="line"/>
      <point x="82" y="41"/>
      <point x="90" y="45"/>
      <point x="90" y="87" type="curve" smooth="yes"/>
      <point x="90" y="262" type="line"/>
    </contour>
  </outline>
</glyph>
<glyph name="nacute" format="1">
  <advance width="638"/>
  <unicode hex="0144"/>
  <outline>
    <contour>
      <point x="26" y="0" type="line"/>
      <point x="26" y="38" type="line"/>
      <point x="83" y="41"/>
      <point x="91" y="45"/>
      <point x="91" y="87" type="curve" smooth="yes"/>
      <point x="91" y="381" type="line" smooth="yes"/>
      <point x="91" y="421"/>
      <point x="83" y="430"/>
      <point x="67" y="432" type="curve" smooth="yes"/>
      <point x="32" y="437" type="line"/>
      <point x="32" y="473" type="line"/>
      <point x="229" y="502" type="line"/>
      <point x="242" y="433" type="line"/>
      <point x="308" y="472"/>
      <point x="355" y="502"/>
      <point x="413" y="502" type="curve" smooth="yes"/>
      <point x="516" y="502"/>
      <point x="563" y="442"/>
      <point x="564" y="348" type="curve" smooth="yes"/>
      <point x="564" y="87" type="line" smooth="yes"/>
      <point x="564" y="45"/>
      <point x="572" y="41"/>
      <point x="629" y="38" type="curve"/>
      <point x="629" y="0" type="line"/>
      <point x="360" y="0" type="line"/>
      <point x="360" y="38" type="line"/>
      <point x="381" y="40" type="line" smooth="yes"/>
      <point x="402" y="42"/>
      <point x="413" y="47"/>
      <point x="413" y="80" type="curve" smooth="yes"/>
      <point x="413" y="334" type="line" smooth="yes"/>
      <point x="411" y="394"/>
      <point x="385" y="425"/>
      <point x="334" y="425" type="curve" smooth="yes"/>
      <point x="292" y="425"/>
      <point x="265" y="402"/>
      <point x="252" y="376" type="curve" smooth="yes"/>
      <point x="245" y="362"/>
      <point x="242" y="339"/>
      <point x="242" y="317" type="curve" smooth="yes"/>
      <point x="242" y="80" type="line" smooth="yes"/>
      <point x="242" y="47"/>
      <point x="253" y="42"/>
      <point x="274" y="40" type="curve" smooth="yes"/>
      <point x="295" y="38" type="line"/>
      <point x="295" y="0" type="line"/>
    </contour>
    <contour>
      <point x="237" y="541" type="line"/>
      <point x="382" y="690" type="line" smooth="yes"/>
      <point x="419" y="728"/>
      <point x="436" y="740"/>
      <point x="456" y="740" type="curve" smooth="yes"/>
      <point x="480" y="740"/>
      <point x="509" y="705"/>
      <point x="509" y="680" type="curve" smooth="yes"/>
      <point x="509" y="654"/>
      <point x="477" y="634"/>
      <point x="441" y="614" type="curve" smooth="yes"/>
      <point x="258" y="511" type="line"/>
    </contour>
  </outline>
</glyph>
<glyph name="Eng" format="1">
  <advance width="776"/>
  <unicode hex="014A"/>
  <outline>
    <contour>
      <point x="33" y="0" type="line"/>
      <point x="33" y="38" type="line"/>
      <point x="104" y="41"/>
      <point x="112" y="46"/>
      <point x="112" y="97" type="curve" smooth="yes"/>
      <point x="112" y="595" type="line" smooth="yes"/>
      <point x="112" y="646"/>
      <point x="104" y="651"/>
      <point x="33" y="654" type="curve"/>
      <point x="33" y="692" type="line"/>
      <point x="272" y="692" type="line"/>
      <point x="272" y="604" type="line"/>
      <point x="342" y="665"/>
      <point x="424" y="707"/>
      <point x="522" y="707" type="curve" smooth="yes"/>
      <point x="652" y="707"/>
      <point x="700" y="628"/>
      <point x="700" y="486" type="curve" smooth="yes"/>
      <point x="700" y="27" type="line" smooth="yes"/>
      <point x="700" y="-198"/>
      <point x="562" y="-242"/>
      <point x="456" y="-242" type="curve" smooth="yes"/>
      <point x="336" y="-242"/>
      <point x="291" y="-192"/>
      <point x="291" y="-145" type="curve" smooth="yes"/>
      <point x="291" y="-102"/>
      <point x="340" y="-78"/>
      <point x="372" y="-78" type="curve" smooth="yes"/>
      <point x="434" y="-78"/>
      <point x="418" y="-196"/>
      <point x="466" y="-196" type="curve" smooth="yes"/>
      <point x="530" y="-196"/>
      <point x="540" y="-90"/>
      <point x="540" y="47" type="curve" smooth="yes"/>
      <point x="540" y="506" type="line" smooth="yes"/>
      <point x="540" y="591"/>
      <point x="508" y="625"/>
      <point x="440" y="625" type="curve" smooth="yes"/>
      <point x="382" y="625"/>
      <point x="332" y="589"/>
      <point x="302" y="559" type="curve" smooth="yes"/>
      <point x="284" y="541"/>
      <point x="272" y="528"/>
      <point x="272" y="475" type="curve" smooth="yes"/>
      <point x="272" y="97" type="line" smooth="yes"/>
      <point x="272" y="46"/>
      <point x="282" y="42"/>
      <point x="347" y="38" type="curve"/>
      <point x="347" y="0" type="line"/>
    </contour>
  </outline>
</glyph>
<glyph name="obreve" format="1">
  <advance width="585"/>
  <unicode hex="014F"/>
  <outline>
    <contour>
      <point x="34" y="245" type="curve" smooth="yes"/>
      <point x="34" y="405"/>
      <point x="111" y="502"/>
      <point x="293" y="502" type="curve" smooth="yes"/>
      <point x="475" y="502"/>
      <point x="552" y="405"/>
      <point x="552" y="245" type="curve" smooth="yes"/>
      <point x="552" y="85"/>
      <point x="475" y="-12"/>
      <point x="293" y="-12" type="curve" smooth="yes"/>
      <point x="111" y="-12"/>
      <point x="34" y="85"/>
    </contour>
    <contour>
      <point x="133" y="716" type="curve"/>
      <point x="171" y="716" type="line"/>
      <point x="173" y="692"/>
      <point x="190" y="641"/>
      <point x="292" y="641" type="curve" smooth="yes"/>
      <point x="394" y="641"/>
      <point x="411" y="692"/>
      <point x="413" y="716" type="curve"/>
      <point x="452" y="716" type="line"/>
      <point x="452" y="646"/>
      <point x="435" y="556"/>
      <point x="293" y="556" type="curve" smooth="yes"/>
      <point x="150" y="556"/>
      <point x="133" y="640"/>
    </contour>
    <contour>
      <point x="193" y="245" type="curve" smooth="yes"/>
      <point x="193" y="111"/>
      <point x="222" y="34"/>
      <point x="293" y="34" type="curve" smooth="yes"/>
      <point x="364" y="34"/>
      <point x="393" y="111"/>
      <point x="393" y="245" type="curve" smooth="yes"/>
      <point x="393" y="379"/>
      <point x="364" y="456"/>
      <point x="293" y="456" type="curve" smooth="yes"/>
      <point x="222" y="456"/>
      <point x="193" y="379"/>
    </contour>
  </outline>
</glyph>
